%FSTAX24Y24*%
%MOIN*%
%SFA1B1*%

%IPPOS*%
<<<<<<< HEAD
%ADD10C,0.020000*%
%ADD11C,0.010000*%
%ADD12R,0.059400X0.059400*%
%ADD13C,0.059400*%
%ADD14C,0.057100*%
%ADD15R,0.057100X0.057100*%
%ADD16C,0.066900*%
%ADD17R,0.066900X0.066900*%
%ADD18R,0.078700X0.063000*%
%ADD19O,0.078700X0.063000*%
%ADD20C,0.060200*%
%ADD21R,0.060200X0.060200*%
%ADD22O,0.078700X0.059400*%
%ADD23R,0.078700X0.059400*%
%ADD24C,0.061000*%
%ADD25C,0.059100*%
%LNmikrofonvorverstärker-1*%
%LPD*%
G36*
X069055Y01D02*
X01D01*
Y039528*
X069055*
Y01*
=======
%ADD10R,0.059100X0.055100*%
%ADD11R,0.078700X0.078700*%
%ADD12R,0.055100X0.059100*%
%ADD13R,0.137800X0.063000*%
%ADD14R,0.063000X0.137800*%
%ADD15C,0.010000*%
%ADD16C,0.020000*%
%ADD17C,0.012900*%
%ADD18C,0.019900*%
%ADD19R,0.059400X0.059400*%
%ADD20C,0.059400*%
%ADD21R,0.066900X0.066900*%
%ADD22C,0.066900*%
%ADD23C,0.057100*%
%ADD24R,0.057100X0.057100*%
%ADD25R,0.059400X0.059400*%
%ADD26R,0.057100X0.057100*%
%ADD27C,0.060200*%
%ADD28R,0.060200X0.060200*%
%ADD29R,0.063000X0.078700*%
%ADD30O,0.063000X0.078700*%
%ADD31C,0.059100*%
%LNmikrofonvorverstärker-1*%
%LPD*%
G36*
X07063Y036772D02*
Y010787D01*
X012362*
Y036772*
X07063*
>>>>>>> 7bd1cce91baa8b1f11babff2120aec98a590d833
G37*
%LNmikrofonvorverstärker-2*%
%LPC*%
G36*
<<<<<<< HEAD
X041546Y037754D02*
Y037412D01*
X041888*
X041881Y037465*
X041841Y037562*
X041778Y037644*
X041695Y037707*
X041599Y037747*
X041546Y037754*
G37*
G36*
X041446D02*
X041393Y037747D01*
X041297Y037707*
X041214Y037644*
X041151Y037562*
X041111Y037465*
X041104Y037412*
X041446*
Y037754*
G37*
G36*
X041888Y037312D02*
X041546D01*
Y03697*
X041599Y036977*
X041695Y037017*
X041778Y03708*
X041841Y037163*
X041881Y037259*
X041888Y037312*
G37*
G36*
X041446D02*
X041104D01*
X041111Y037259*
X041151Y037163*
X041214Y03708*
X041297Y037017*
X041393Y036977*
X041446Y03697*
Y037312*
G37*
G36*
X041578Y036595D02*
Y036247D01*
X041926*
X041918Y036302*
X041878Y036399*
X041814Y036483*
X04173Y036547*
X041632Y036588*
X041578Y036595*
G37*
G36*
X040578D02*
Y036247D01*
X040926*
X040918Y036302*
X040878Y036399*
X040814Y036483*
X04073Y036547*
X040632Y036588*
X040578Y036595*
G37*
G36*
X041478D02*
X041423Y036588D01*
X041325Y036547*
X041241Y036483*
X041177Y036399*
X041137Y036302*
X041129Y036247*
X041478*
Y036595*
G37*
G36*
X040478D02*
X040423Y036588D01*
X040325Y036547*
X040241Y036483*
X040177Y036399*
X040137Y036302*
X040129Y036247*
X040478*
Y036595*
G37*
G36*
X050805Y036419D02*
X05042D01*
Y036034*
X050805*
Y036419*
G37*
G36*
X05032D02*
X049935D01*
Y036034*
X05032*
Y036419*
G37*
G36*
X054932Y036416D02*
Y036034D01*
X055314*
X055305Y036098*
X055262Y036203*
X055192Y036294*
X055101Y036364*
X054995Y036408*
X054932Y036416*
G37*
G36*
X054832D02*
X054768Y036408D01*
X054663Y036364*
X054572Y036294*
X054502Y036203*
X054458Y036098*
X05445Y036034*
X054832*
Y036416*
G37*
G36*
X041926Y036147D02*
X041578D01*
Y035799*
X041632Y035806*
X04173Y035846*
X041814Y035911*
X041878Y035995*
X041918Y036092*
X041926Y036147*
G37*
G36*
X040926D02*
X040578D01*
Y035799*
X040632Y035806*
X04073Y035846*
X040814Y035911*
X040878Y035995*
X040918Y036092*
X040926Y036147*
G37*
G36*
X041478D02*
X041129D01*
X041137Y036092*
X041177Y035995*
X041241Y035911*
X041325Y035846*
X041423Y035806*
X041478Y035799*
Y036147*
G37*
G36*
X040478D02*
X040129D01*
X040137Y036092*
X040177Y035995*
X040241Y035911*
X040325Y035846*
X040423Y035806*
X040478Y035799*
Y036147*
G37*
G36*
X036929Y036598D02*
X036126D01*
Y035796*
X036929*
Y036598*
G37*
G36*
X042528Y036601D02*
X042423Y036588D01*
X042325Y036547*
X042241Y036483*
X042177Y036399*
X042137Y036302*
X042123Y036197*
X042137Y036092*
X042177Y035995*
X042241Y035911*
X042325Y035846*
X042423Y035806*
X042528Y035792*
X042632Y035806*
X04273Y035846*
X042814Y035911*
X042878Y035995*
X042918Y036092*
X042932Y036197*
X042918Y036302*
X042878Y036399*
X042814Y036483*
X04273Y036547*
X042632Y036588*
X042528Y036601*
G37*
G36*
X039528D02*
X039423Y036588D01*
X039325Y036547*
X039241Y036483*
X039177Y036399*
X039137Y036302*
X039123Y036197*
X039137Y036092*
X039177Y035995*
X039241Y035911*
X039325Y035846*
X039423Y035806*
X039528Y035792*
X039632Y035806*
X03973Y035846*
X039814Y035911*
X039878Y035995*
X039918Y036092*
X039932Y036197*
X039918Y036302*
X039878Y036399*
X039814Y036483*
X03973Y036547*
X039632Y036588*
X039528Y036601*
G37*
G36*
X038528D02*
X038423Y036588D01*
X038325Y036547*
X038241Y036483*
X038177Y036399*
X038137Y036302*
X038123Y036197*
X038137Y036092*
X038177Y035995*
X038241Y035911*
X038325Y035846*
X038423Y035806*
X038528Y035792*
X038632Y035806*
X03873Y035846*
X038814Y035911*
X038878Y035995*
X038918Y036092*
X038932Y036197*
X038918Y036302*
X038878Y036399*
X038814Y036483*
X03873Y036547*
X038632Y036588*
X038528Y036601*
G37*
G36*
X037528D02*
X037423Y036588D01*
X037325Y036547*
X037241Y036483*
X037177Y036399*
X037137Y036302*
X037123Y036197*
X037137Y036092*
X037177Y035995*
X037241Y035911*
X037325Y035846*
X037423Y035806*
X037528Y035792*
X037632Y035806*
X03773Y035846*
X037814Y035911*
X037878Y035995*
X037918Y036092*
X037932Y036197*
X037918Y036302*
X037878Y036399*
X037814Y036483*
X03773Y036547*
X037632Y036588*
X037528Y036601*
G37*
G36*
X055314Y035934D02*
X054932D01*
Y035552*
X054995Y035561*
X055101Y035605*
X055192Y035674*
X055262Y035765*
X055305Y035871*
X055314Y035934*
G37*
G36*
X054832D02*
X05445D01*
X054458Y035871*
X054502Y035765*
X054572Y035674*
X054663Y035605*
X054768Y035561*
X054832Y035552*
Y035934*
G37*
G36*
X056317Y036419D02*
X055447D01*
Y03555*
X056317*
Y036419*
G37*
G36*
X050805Y035934D02*
X05042D01*
Y03555*
X050805*
Y035934*
G37*
G36*
X05032D02*
X049935D01*
Y03555*
X05032*
Y035934*
G37*
G36*
X053882Y036423D02*
X053768Y036408D01*
X053663Y036364*
X053572Y036294*
X053502Y036203*
X053458Y036098*
X053443Y035984*
X053458Y035871*
X053502Y035765*
X053572Y035674*
X053663Y035605*
X053768Y035561*
X053882Y035546*
X053995Y035561*
X054101Y035605*
X054192Y035674*
X054262Y035765*
X054305Y035871*
X05432Y035984*
X054305Y036098*
X054262Y036203*
X054192Y036294*
X054101Y036364*
X053995Y036408*
X053882Y036423*
G37*
G36*
X04937D02*
X049257Y036408D01*
X049151Y036364*
X04906Y036294*
X04899Y036203*
X048947Y036098*
X048932Y035984*
X048947Y035871*
X04899Y035765*
X04906Y035674*
X049151Y035605*
X049257Y035561*
X04937Y035546*
X049484Y035561*
X049589Y035605*
X04968Y035674*
X04975Y035765*
X049794Y035871*
X049808Y035984*
X049794Y036098*
X04975Y036203*
X04968Y036294*
X049589Y036364*
X049484Y036408*
X04937Y036423*
G37*
G36*
X04837D02*
X048257Y036408D01*
X048151Y036364*
X04806Y036294*
X04799Y036203*
X047947Y036098*
X047932Y035984*
X047947Y035871*
X04799Y035765*
X04806Y035674*
X048151Y035605*
X048257Y035561*
X04837Y035546*
X048484Y035561*
X048589Y035605*
X04868Y035674*
X04875Y035765*
X048794Y035871*
X048808Y035984*
X048794Y036098*
X04875Y036203*
X04868Y036294*
X048589Y036364*
X048484Y036408*
X04837Y036423*
G37*
G36*
X041578Y035595D02*
Y035247D01*
X041926*
X041918Y035302*
X041878Y035399*
X041814Y035483*
X04173Y035547*
X041632Y035588*
X041578Y035595*
G37*
G36*
X040578D02*
Y035247D01*
X040926*
X040918Y035302*
X040878Y035399*
X040814Y035483*
X04073Y035547*
X040632Y035588*
X040578Y035595*
G37*
G36*
X041478D02*
X041423Y035588D01*
X041325Y035547*
X041241Y035483*
X041177Y035399*
X041137Y035302*
X041129Y035247*
X041478*
Y035595*
G37*
G36*
X040478D02*
X040423Y035588D01*
X040325Y035547*
X040241Y035483*
X040177Y035399*
X040137Y035302*
X040129Y035247*
X040478*
Y035595*
G37*
G36*
X041926Y035147D02*
X041578D01*
Y034799*
X041632Y034806*
X04173Y034846*
X041814Y034911*
X041878Y034995*
X041918Y035092*
X041926Y035147*
G37*
G36*
X040926D02*
X040578D01*
Y034799*
X040632Y034806*
X04073Y034846*
X040814Y034911*
X040878Y034995*
X040918Y035092*
X040926Y035147*
G37*
G36*
X041478D02*
X041129D01*
X041137Y035092*
X041177Y034995*
X041241Y034911*
X041325Y034846*
X041423Y034806*
X041478Y034799*
Y035147*
G37*
G36*
X040478D02*
X040129D01*
X040137Y035092*
X040177Y034995*
X040241Y034911*
X040325Y034846*
X040423Y034806*
X040478Y034799*
Y035147*
G37*
G36*
X042528Y035601D02*
X042423Y035588D01*
X042325Y035547*
X042241Y035483*
X042177Y035399*
X042137Y035302*
X042123Y035197*
X042137Y035092*
X042177Y034995*
X042241Y034911*
X042325Y034846*
X042423Y034806*
X042528Y034792*
X042632Y034806*
X04273Y034846*
X042814Y034911*
X042878Y034995*
X042918Y035092*
X042932Y035197*
X042918Y035302*
X042878Y035399*
X042814Y035483*
X04273Y035547*
X042632Y035588*
X042528Y035601*
G37*
G36*
X039528D02*
X039423Y035588D01*
X039325Y035547*
X039241Y035483*
X039177Y035399*
X039137Y035302*
X039123Y035197*
X039137Y035092*
X039177Y034995*
X039241Y034911*
X039325Y034846*
X039423Y034806*
X039528Y034792*
X039632Y034806*
X03973Y034846*
X039814Y034911*
X039878Y034995*
X039918Y035092*
X039932Y035197*
X039918Y035302*
X039878Y035399*
X039814Y035483*
X03973Y035547*
X039632Y035588*
X039528Y035601*
G37*
G36*
X038528D02*
X038423Y035588D01*
X038325Y035547*
X038241Y035483*
X038177Y035399*
X038137Y035302*
X038123Y035197*
X038137Y035092*
X038177Y034995*
X038241Y034911*
X038325Y034846*
X038423Y034806*
X038528Y034792*
X038632Y034806*
X03873Y034846*
X038814Y034911*
X038878Y034995*
X038918Y035092*
X038932Y035197*
X038918Y035302*
X038878Y035399*
X038814Y035483*
X03873Y035547*
X038632Y035588*
X038528Y035601*
G37*
G36*
X037528D02*
X037423Y035588D01*
X037325Y035547*
X037241Y035483*
X037177Y035399*
X037137Y035302*
X037123Y035197*
X037137Y035092*
X037177Y034995*
X037241Y034911*
X037325Y034846*
X037423Y034806*
X037528Y034792*
X037632Y034806*
X03773Y034846*
X037814Y034911*
X037878Y034995*
X037918Y035092*
X037932Y035197*
X037918Y035302*
X037878Y035399*
X037814Y035483*
X03773Y035547*
X037632Y035588*
X037528Y035601*
G37*
G36*
X036528D02*
X036423Y035588D01*
X036325Y035547*
X036241Y035483*
X036177Y035399*
X036137Y035302*
X036123Y035197*
X036137Y035092*
X036177Y034995*
X036241Y034911*
X036325Y034846*
X036423Y034806*
X036528Y034792*
X036632Y034806*
X03673Y034846*
X036814Y034911*
X036878Y034995*
X036918Y035092*
X036932Y035197*
X036918Y035302*
X036878Y035399*
X036814Y035483*
X03673Y035547*
X036632Y035588*
X036528Y035601*
G37*
G36*
X054932Y034721D02*
Y034369D01*
X055284*
X055277Y034425*
X055236Y034523*
X055171Y034608*
X055086Y034673*
X054988Y034714*
X054932Y034721*
G37*
G36*
X054832D02*
X054776Y034714D01*
X054678Y034673*
X054593Y034608*
X054528Y034523*
X054487Y034425*
X05448Y034369*
X054832*
Y034721*
G37*
G36*
X04942D02*
Y034369D01*
X049772*
X049765Y034425*
X049724Y034523*
X049659Y034608*
X049574Y034673*
X049476Y034714*
X04942Y034721*
G37*
G36*
X04932D02*
X049264Y034714D01*
X049166Y034673*
X049081Y034608*
X049016Y034523*
X048975Y034425*
X048968Y034369*
X04932*
Y034721*
G37*
G36*
X055284Y034269D02*
X054932D01*
Y033917*
X054988Y033924*
X055086Y033965*
X055171Y03403*
X055236Y034115*
X055277Y034213*
X055284Y034269*
G37*
G36*
X054832D02*
X05448D01*
X054487Y034213*
X054528Y034115*
X054593Y03403*
X054678Y033965*
X054776Y033924*
X054832Y033917*
Y034269*
G37*
G36*
X049772D02*
X04942D01*
Y033917*
X049476Y033924*
X049574Y033965*
X049659Y03403*
X049724Y034115*
X049765Y034213*
X049772Y034269*
G37*
G36*
X04932D02*
X048968D01*
X048975Y034213*
X049016Y034115*
X049081Y03403*
X049166Y033965*
X049264Y033924*
X04932Y033917*
Y034269*
G37*
G36*
X056063Y034728D02*
X055957Y034714D01*
X055859Y034673*
X055774Y034608*
X055709Y034523*
X055668Y034425*
X055654Y034319*
X055668Y034213*
X055709Y034115*
X055774Y03403*
X055859Y033965*
X055957Y033924*
X056063Y03391*
X056169Y033924*
X056267Y033965*
X056352Y03403*
X056417Y034115*
X056458Y034213*
X056472Y034319*
X056458Y034425*
X056417Y034523*
X056352Y034608*
X056267Y034673*
X056169Y034714*
X056063Y034728*
G37*
G36*
X050551D02*
X050445Y034714D01*
X050347Y034673*
X050262Y034608*
X050197Y034523*
X050156Y034425*
X050143Y034319*
X050156Y034213*
X050197Y034115*
X050262Y03403*
X050347Y033965*
X050445Y033924*
X050551Y03391*
X050657Y033924*
X050755Y033965*
X05084Y03403*
X050905Y034115*
X050946Y034213*
X05096Y034319*
X050946Y034425*
X050905Y034523*
X05084Y034608*
X050755Y034673*
X050657Y034714*
X050551Y034728*
G37*
G36*
X018121Y032636D02*
Y032294D01*
X018463*
X018456Y032347*
X018416Y032443*
X018353Y032526*
X01827Y032589*
X018174Y032629*
X018121Y032636*
G37*
G36*
X018021D02*
X017968Y032629D01*
X017872Y032589*
X017789Y032526*
X017726Y032443*
X017686Y032347*
X017679Y032294*
X018021*
Y032636*
G37*
G36*
X018463Y032194D02*
X018121D01*
Y031852*
X018174Y031859*
X01827Y031899*
X018353Y031962*
X018416Y032045*
X018456Y032141*
X018463Y032194*
G37*
G36*
X018021D02*
X017679D01*
X017686Y032141*
X017726Y032045*
X017789Y031962*
X017872Y031899*
X017968Y031859*
X018021Y031852*
Y032194*
G37*
G36*
X025554Y030885D02*
X025207D01*
Y030538*
X025554*
Y030885*
G37*
G36*
X025107D02*
X024761D01*
Y030538*
X025107*
Y030885*
G37*
G36*
X056063Y030972D02*
X055957Y030958D01*
X055859Y030917*
X055774Y030852*
X055709Y030767*
X055668Y030669*
X055654Y030563*
X055668Y030457*
X055709Y030359*
X055774Y030274*
X055859Y030209*
X055957Y030168*
X056063Y030154*
X056169Y030168*
X056267Y030209*
X056352Y030274*
X056417Y030359*
X056458Y030457*
X056472Y030563*
X056458Y030669*
X056417Y030767*
X056352Y030852*
X056267Y030917*
X056169Y030958*
X056063Y030972*
G37*
G36*
X054882D02*
X054776Y030958D01*
X054678Y030917*
X054593Y030852*
X054528Y030767*
X054487Y030669*
X054473Y030563*
X054487Y030457*
X054528Y030359*
X054593Y030274*
X054678Y030209*
X054776Y030168*
X054882Y030154*
X054988Y030168*
X055086Y030209*
X055171Y030274*
X055236Y030359*
X055277Y030457*
X055291Y030563*
X055277Y030669*
X055236Y030767*
X055171Y030852*
X055086Y030917*
X054988Y030958*
X054882Y030972*
G37*
G36*
X04937D02*
X049264Y030958D01*
X049166Y030917*
X049081Y030852*
X049016Y030767*
X048975Y030669*
X048961Y030563*
X048975Y030457*
X049016Y030359*
X049081Y030274*
X049166Y030209*
X049264Y030168*
X04937Y030154*
X049476Y030168*
X049574Y030209*
X049659Y030274*
X049724Y030359*
X049765Y030457*
X049779Y030563*
X049765Y030669*
X049724Y030767*
X049659Y030852*
X049574Y030917*
X049476Y030958*
X04937Y030972*
G37*
G36*
X033231Y030885D02*
X032438D01*
Y030091*
X033231*
Y030885*
G37*
G36*
X029491D02*
X028698D01*
Y030091*
X029491*
Y030885*
G37*
G36*
X025554Y030438D02*
X025207D01*
Y030091*
X025554*
Y030438*
G37*
G36*
X025107D02*
X024761D01*
Y030091*
X025107*
Y030438*
G37*
G36*
X032835Y029888D02*
X032731Y029875D01*
X032635Y029835*
X032552Y029771*
X032488Y029688*
X032448Y029592*
X032434Y029488*
X032448Y029385*
X032488Y029288*
X032552Y029205*
X032635Y029142*
X032731Y029102*
X032835Y029088*
X032938Y029102*
X033035Y029142*
X033118Y029205*
X033181Y029288*
X033221Y029385*
X033235Y029488*
X033221Y029592*
X033181Y029688*
X033118Y029771*
X033035Y029835*
X032938Y029875*
X032835Y029888*
G37*
G36*
X029094D02*
X028991Y029875D01*
X028894Y029835*
X028811Y029771*
X028748Y029688*
X028708Y029592*
X028694Y029488*
X028708Y029385*
X028748Y029288*
X028811Y029205*
X028894Y029142*
X028991Y029102*
X029094Y029088*
X029198Y029102*
X029295Y029142*
X029378Y029205*
X029441Y029288*
X029481Y029385*
X029495Y029488*
X029481Y029592*
X029441Y029688*
X029378Y029771*
X029295Y029835*
X029198Y029875*
X029094Y029888*
G37*
G36*
X025157D02*
X025054Y029875D01*
X024957Y029835*
X024874Y029771*
X024811Y029688*
X024771Y029592*
X024757Y029488*
X024771Y029385*
X024811Y029288*
X024874Y029205*
X024957Y029142*
X025054Y029102*
X025157Y029088*
X025261Y029102*
X025358Y029142*
X025441Y029205*
X025504Y029288*
X025544Y029385*
X025558Y029488*
X025544Y029592*
X025504Y029688*
X025441Y029771*
X025358Y029835*
X025261Y029875*
X025157Y029888*
G37*
G36*
X032835Y028888D02*
X032731Y028875D01*
X032635Y028835*
X032552Y028771*
X032488Y028688*
X032448Y028592*
X032434Y028488*
X032448Y028385*
X032488Y028288*
X032552Y028205*
X032635Y028142*
X032731Y028102*
X032835Y028088*
X032938Y028102*
X033035Y028142*
X033118Y028205*
X033181Y028288*
X033221Y028385*
X033235Y028488*
X033221Y028592*
X033181Y028688*
X033118Y028771*
X033035Y028835*
X032938Y028875*
X032835Y028888*
G37*
G36*
X029094D02*
X028991Y028875D01*
X028894Y028835*
X028811Y028771*
X028748Y028688*
X028708Y028592*
X028694Y028488*
X028708Y028385*
X028748Y028288*
X028811Y028205*
X028894Y028142*
X028991Y028102*
X029094Y028088*
X029198Y028102*
X029295Y028142*
X029378Y028205*
X029441Y028288*
X029481Y028385*
X029495Y028488*
X029481Y028592*
X029441Y028688*
X029378Y028771*
X029295Y028835*
X029198Y028875*
X029094Y028888*
G37*
G36*
X025157D02*
X025054Y028875D01*
X024957Y028835*
X024874Y028771*
X024811Y028688*
X024771Y028592*
X024757Y028488*
X024771Y028385*
X024811Y028288*
X024874Y028205*
X024957Y028142*
X025054Y028102*
X025157Y028088*
X025261Y028102*
X025358Y028142*
X025441Y028205*
X025504Y028288*
X025544Y028385*
X025558Y028488*
X025544Y028592*
X025504Y028688*
X025441Y028771*
X025358Y028835*
X025261Y028875*
X025157Y028888*
G37*
G36*
X059755Y027385D02*
Y027043D01*
X060097*
X06009Y027096*
X06005Y027192*
X059987Y027275*
X059904Y027338*
X059808Y027378*
X059755Y027385*
G37*
G36*
X059655D02*
X059602Y027378D01*
X059506Y027338*
X059423Y027275*
X05936Y027192*
X05932Y027096*
X059313Y027043*
X059655*
Y027385*
G37*
G36*
X060097Y026943D02*
X059755D01*
Y026601*
X059808Y026608*
X059904Y026647*
X059987Y026711*
X06005Y026793*
X06009Y02689*
X060097Y026943*
G37*
G36*
X059655D02*
X059313D01*
X05932Y02689*
X05936Y026793*
X059423Y026711*
X059506Y026647*
X059602Y026608*
X059655Y026601*
Y026943*
G37*
G36*
X057441Y026361D02*
X057337Y026347D01*
X057241Y026307*
X057158Y026244*
X057094Y026161*
X057054Y026064*
X057041Y025961*
X057054Y025857*
X057094Y02576*
X057158Y025678*
X057241Y025614*
X057337Y025574*
X057441Y02556*
X057545Y025574*
X057641Y025614*
X057724Y025678*
X057788Y02576*
X057828Y025857*
X057841Y025961*
X057828Y026064*
X057788Y026161*
X057724Y026244*
X057641Y026307*
X057545Y026347*
X057441Y026361*
G37*
G36*
X054488D02*
X054385Y026347D01*
X054288Y026307*
X054205Y026244*
X054142Y026161*
X054102Y026064*
X054088Y025961*
X054102Y025857*
X054142Y02576*
X054205Y025678*
X054288Y025614*
X054385Y025574*
X054488Y02556*
X054592Y025574*
X054688Y025614*
X054771Y025678*
X054835Y02576*
X054875Y025857*
X054888Y025961*
X054875Y026064*
X054835Y026161*
X054771Y026244*
X054688Y026307*
X054592Y026347*
X054488Y026361*
G37*
G36*
X02801Y025845D02*
X027817D01*
X027713Y025832*
X027616Y025792*
X027534Y025728*
X02747Y025645*
X02743Y025548*
X027416Y025445*
X02743Y025341*
X02747Y025245*
X027534Y025162*
X027616Y025098*
X027713Y025058*
X027817Y025045*
X02801*
X028114Y025058*
X02821Y025098*
X028293Y025162*
X028357Y025245*
X028397Y025341*
X028411Y025445*
X028397Y025548*
X028357Y025645*
X028293Y025728*
X02821Y025792*
X028114Y025832*
X02801Y025845*
G37*
G36*
X057441Y025361D02*
X057337Y025347D01*
X057241Y025307*
X057158Y025244*
X057094Y025161*
X057054Y025064*
X057041Y024961*
X057054Y024857*
X057094Y02476*
X057158Y024678*
X057241Y024614*
X057337Y024574*
X057441Y02456*
X057545Y024574*
X057641Y024614*
X057724Y024678*
X057788Y02476*
X057828Y024857*
X057841Y024961*
X057828Y025064*
X057788Y025161*
X057724Y025244*
X057641Y025307*
X057545Y025347*
X057441Y025361*
G37*
G36*
X054488D02*
X054385Y025347D01*
X054288Y025307*
X054205Y025244*
X054142Y025161*
X054102Y025064*
X054088Y024961*
X054102Y024857*
X054142Y02476*
X054205Y024678*
X054288Y024614*
X054385Y024574*
X054488Y02456*
X054592Y024574*
X054688Y024614*
X054771Y024678*
X054835Y02476*
X054875Y024857*
X054888Y024961*
X054875Y025064*
X054835Y025161*
X054771Y025244*
X054688Y025307*
X054592Y025347*
X054488Y025361*
G37*
G36*
X036133Y024565D02*
Y024223D01*
X036475*
X036468Y024276*
X036428Y024373*
X036365Y024455*
X036282Y024518*
X036186Y024558*
X036133Y024565*
G37*
G36*
X020315Y025001D02*
X020157D01*
X020049Y024987*
X019948Y024945*
X019862Y024879*
X019795Y024792*
X019753Y024691*
X019739Y024583*
X019753Y024474*
X019795Y024373*
X019862Y024287*
X019948Y02422*
X020049Y024178*
X020157Y024164*
X020315*
X020423Y024178*
X020524Y02422*
X020611Y024287*
X020677Y024373*
X020719Y024474*
X020733Y024583*
X020719Y024691*
X020677Y024792*
X020611Y024879*
X020524Y024945*
X020423Y024987*
X020315Y025001*
G37*
G36*
X018346D02*
X018189D01*
X018081Y024987*
X01798Y024945*
X017893Y024879*
X017827Y024792*
X017785Y024691*
X01777Y024583*
X017785Y024474*
X017827Y024373*
X017893Y024287*
X01798Y02422*
X018081Y024178*
X018189Y024164*
X018346*
X018455Y024178*
X018556Y02422*
X018642Y024287*
X018709Y024373*
X018751Y024474*
X018765Y024583*
X018751Y024691*
X018709Y024792*
X018642Y024879*
X018556Y024945*
X018455Y024987*
X018346Y025001*
G37*
G36*
X016575D02*
X016417D01*
X016309Y024987*
X016208Y024945*
X016121Y024879*
X016055Y024792*
X016013Y024691*
X015999Y024583*
X016013Y024474*
X016055Y024373*
X016121Y024287*
X016208Y02422*
X016309Y024178*
X016417Y024164*
X016575*
X016683Y024178*
X016784Y02422*
X016871Y024287*
X016937Y024373*
X016979Y024474*
X016993Y024583*
X016979Y024691*
X016937Y024792*
X016871Y024879*
X016784Y024945*
X016683Y024987*
X016575Y025001*
G37*
G36*
X060067Y024803D02*
X059296D01*
Y024032*
X060067*
Y024803*
G37*
G36*
X062681Y024806D02*
X06258Y024793D01*
X062487Y024754*
X062406Y024692*
X062344Y024612*
X062306Y024518*
X062292Y024417*
X062306Y024317*
X062344Y024223*
X062406Y024142*
X062487Y024081*
X06258Y024042*
X062681Y024029*
X062782Y024042*
X062875Y024081*
X062956Y024142*
X063018Y024223*
X063057Y024317*
X06307Y024417*
X063057Y024518*
X063018Y024612*
X062956Y024692*
X062875Y024754*
X062782Y024793*
X062681Y024806*
G37*
G36*
X042974Y024676D02*
X041987D01*
Y023883*
X042974*
Y024676*
G37*
G36*
X038272Y024609D02*
X038171Y024596D01*
X038077Y024557*
X037997Y024495*
X037935Y024415*
X037896Y024321*
X037883Y02422*
X037896Y02412*
X037935Y024026*
X037997Y023946*
X038077Y023884*
X038171Y023845*
X038272Y023832*
X038372Y023845*
X038466Y023884*
X038547Y023946*
X038608Y024026*
X038647Y02412*
X03866Y02422*
X038647Y024321*
X038608Y024415*
X038547Y024495*
X038466Y024557*
X038372Y024596*
X038272Y024609*
G37*
G36*
X047937Y024574D02*
X047166D01*
Y023804*
X047937*
Y024574*
G37*
G36*
X050551Y024578D02*
X050451Y024564D01*
X050357Y024526*
X050276Y024464*
X050215Y024383*
X050176Y02429*
X050162Y024189*
X050176Y024088*
X050215Y023995*
X050276Y023914*
X050357Y023852*
X050451Y023813*
X050551Y0238*
X050652Y023813*
X050746Y023852*
X050826Y023914*
X050888Y023995*
X050927Y024088*
X05094Y024189*
X050927Y02429*
X050888Y024383*
X050826Y024464*
X050746Y024526*
X050652Y024564*
X050551Y024578*
G37*
G36*
X025299Y024559D02*
X024528D01*
Y023788*
X025299*
Y024559*
G37*
G36*
X027913Y024562D02*
X027813Y024549D01*
X027719Y02451*
X027638Y024448*
X027577Y024368*
X027538Y024274*
X027525Y024173*
X027538Y024073*
X027577Y023979*
X027638Y023898*
X027719Y023837*
X027813Y023798*
X027913Y023784*
X028014Y023798*
X028108Y023837*
X028188Y023898*
X02825Y023979*
X028289Y024073*
X028302Y024173*
X028289Y024274*
X02825Y024368*
X028188Y024448*
X028108Y02451*
X028014Y024549*
X027913Y024562*
G37*
G36*
X036475Y024123D02*
X036133D01*
Y023781*
X036186Y023788*
X036282Y023828*
X036365Y023891*
X036428Y023974*
X036468Y02407*
X036475Y024123*
G37*
G36*
X035657Y024606D02*
X034886D01*
Y023835*
X035657*
Y024037*
X035707Y024047*
X035737Y023974*
X035801Y023891*
X035883Y023828*
X035979Y023788*
X036033Y023781*
Y024173*
Y024565*
X035979Y024558*
X035883Y024518*
X035801Y024455*
X035737Y024373*
X035707Y024299*
X035657Y024309*
Y024606*
G37*
G36*
X057838Y024357D02*
X057044D01*
Y023564*
X057838*
Y024357*
G37*
G36*
X054885D02*
X054091D01*
Y023564*
X054885*
Y024357*
G37*
G36*
X020315Y024001D02*
X020157D01*
X020049Y023987*
X019948Y023945*
X019862Y023879*
X019795Y023792*
X019753Y023691*
X019739Y023583*
X019753Y023474*
X019795Y023373*
X019862Y023287*
X019948Y02322*
X020049Y023178*
X020157Y023164*
X020315*
X020423Y023178*
X020524Y02322*
X020611Y023287*
X020677Y023373*
X020719Y023474*
X020733Y023583*
X020719Y023691*
X020677Y023792*
X020611Y023879*
X020524Y023945*
X020423Y023987*
X020315Y024001*
G37*
G36*
X018346D02*
X018189D01*
X018081Y023987*
X01798Y023945*
X017893Y023879*
X017827Y023792*
X017785Y023691*
X01777Y023583*
X017785Y023474*
X017827Y023373*
X017893Y023287*
X01798Y02322*
X018081Y023178*
X018189Y023164*
X018346*
X018455Y023178*
X018556Y02322*
X018642Y023287*
X018709Y023373*
X018751Y023474*
X018765Y023583*
X018751Y023691*
X018709Y023792*
X018642Y023879*
X018556Y023945*
X018455Y023987*
X018346Y024001*
G37*
G36*
X016575D02*
X016417D01*
X016309Y023987*
X016208Y023945*
X016121Y023879*
X016055Y023792*
X016013Y023691*
X015999Y023583*
X016013Y023474*
X016055Y023373*
X016121Y023287*
X016208Y02322*
X016309Y023178*
X016417Y023164*
X016575*
X016683Y023178*
X016784Y02322*
X016871Y023287*
X016937Y023373*
X016979Y023474*
X016993Y023583*
X016979Y023691*
X016937Y023792*
X016871Y023879*
X016784Y023945*
X016683Y023987*
X016575Y024001*
G37*
G36*
X062681Y023806D02*
X06258Y023793D01*
X062487Y023754*
X062406Y023692*
X062344Y023612*
X062306Y023518*
X062292Y023417*
X062306Y023317*
X062344Y023223*
X062406Y023142*
X062487Y023081*
X06258Y023042*
X062681Y023029*
X062782Y023042*
X062875Y023081*
X062956Y023142*
X063018Y023223*
X063057Y023317*
X06307Y023417*
X063057Y023518*
X063018Y023612*
X062956Y023692*
X062875Y023754*
X062782Y023793*
X062681Y023806*
G37*
G36*
X059681D02*
X05958Y023793D01*
X059487Y023754*
X059406Y023692*
X059344Y023612*
X059306Y023518*
X059292Y023417*
X059306Y023317*
X059344Y023223*
X059406Y023142*
X059487Y023081*
X05958Y023042*
X059681Y023029*
X059782Y023042*
X059875Y023081*
X059956Y023142*
X060018Y023223*
X060057Y023317*
X06007Y023417*
X060057Y023518*
X060018Y023612*
X059956Y023692*
X059875Y023754*
X059782Y023793*
X059681Y023806*
G37*
G36*
X042577Y02368D02*
X042383D01*
X04228Y023666*
X042183Y023626*
X0421Y023563*
X042037Y02348*
X041997Y023383*
X041983Y02328*
X041997Y023176*
X042037Y023079*
X0421Y022996*
X042183Y022933*
X04228Y022893*
X042383Y022879*
X042577*
X042681Y022893*
X042777Y022933*
X04286Y022996*
X042924Y023079*
X042964Y023176*
X042977Y02328*
X042964Y023383*
X042924Y02348*
X04286Y023563*
X042777Y023626*
X042681Y023666*
X042577Y02368*
G37*
G36*
X038272Y023609D02*
X038171Y023596D01*
X038077Y023557*
X037997Y023495*
X037935Y023415*
X037896Y023321*
X037883Y02322*
X037896Y02312*
X037935Y023026*
X037997Y022946*
X038077Y022884*
X038171Y022845*
X038272Y022832*
X038372Y022845*
X038466Y022884*
X038547Y022946*
X038608Y023026*
X038647Y02312*
X03866Y02322*
X038647Y023321*
X038608Y023415*
X038547Y023495*
X038466Y023557*
X038372Y023596*
X038272Y023609*
G37*
G36*
X035272D02*
X035171Y023596D01*
X035077Y023557*
X034997Y023495*
X034935Y023415*
X034896Y023321*
X034883Y02322*
X034896Y02312*
X034935Y023026*
X034997Y022946*
X035077Y022884*
X035171Y022845*
X035272Y022832*
X035372Y022845*
X035466Y022884*
X035547Y022946*
X035608Y023026*
X035647Y02312*
X03566Y02322*
X035647Y023321*
X035608Y023415*
X035547Y023495*
X035466Y023557*
X035372Y023596*
X035272Y023609*
G37*
G36*
X050551Y023578D02*
X050451Y023564D01*
X050357Y023526*
X050276Y023464*
X050215Y023383*
X050176Y02329*
X050162Y023189*
X050176Y023088*
X050215Y022995*
X050276Y022914*
X050357Y022852*
X050451Y022813*
X050551Y0228*
X050652Y022813*
X050746Y022852*
X050826Y022914*
X050888Y022995*
X050927Y023088*
X05094Y023189*
X050927Y02329*
X050888Y023383*
X050826Y023464*
X050746Y023526*
X050652Y023564*
X050551Y023578*
G37*
G36*
X047551D02*
X047451Y023564D01*
X047357Y023526*
X047276Y023464*
X047215Y023383*
X047176Y02329*
X047162Y023189*
X047176Y023088*
X047215Y022995*
X047276Y022914*
X047357Y022852*
X047451Y022813*
X047551Y0228*
X047652Y022813*
X047746Y022852*
X047826Y022914*
X047888Y022995*
X047927Y023088*
X04794Y023189*
X047927Y02329*
X047888Y023383*
X047826Y023464*
X047746Y023526*
X047652Y023564*
X047551Y023578*
G37*
G36*
X027913Y023562D02*
X027813Y023549D01*
X027719Y02351*
X027638Y023448*
X027577Y023368*
X027538Y023274*
X027525Y023173*
X027538Y023073*
X027577Y022979*
X027638Y022898*
X027719Y022837*
X027813Y022798*
X027913Y022784*
X028014Y022798*
X028108Y022837*
X028188Y022898*
X02825Y022979*
X028289Y023073*
X028302Y023173*
X028289Y023274*
X02825Y023368*
X028188Y023448*
X028108Y02351*
X028014Y023549*
X027913Y023562*
G37*
G36*
X024913D02*
X024813Y023549D01*
X024719Y02351*
X024638Y023448*
X024577Y023368*
X024538Y023274*
X024525Y023173*
X024538Y023073*
X024577Y022979*
X024638Y022898*
X024719Y022837*
X024813Y022798*
X024913Y022784*
X025014Y022798*
X025108Y022837*
X025188Y022898*
X02525Y022979*
X025289Y023073*
X025302Y023173*
X025289Y023274*
X02525Y023368*
X025188Y023448*
X025108Y02351*
X025014Y023549*
X024913Y023562*
G37*
G36*
X02073Y022998D02*
X019743D01*
Y022168*
X02073*
Y022998*
G37*
G36*
X018761D02*
X017774D01*
Y022168*
X018761*
Y022998*
G37*
G36*
X01699D02*
X016002D01*
Y022168*
X01699*
Y022998*
G37*
G36*
X062681Y022806D02*
X06258Y022793D01*
X062487Y022754*
X062406Y022692*
X062344Y022612*
X062306Y022518*
X062292Y022417*
X062306Y022317*
X062344Y022223*
X062406Y022142*
X062487Y022081*
X06258Y022042*
X062681Y022029*
X062782Y022042*
X062875Y022081*
X062956Y022142*
X063018Y022223*
X063057Y022317*
X06307Y022417*
X063057Y022518*
X063018Y022612*
X062956Y022692*
X062875Y022754*
X062782Y022793*
X062681Y022806*
G37*
G36*
X059681D02*
X05958Y022793D01*
X059487Y022754*
X059406Y022692*
X059344Y022612*
X059306Y022518*
X059292Y022417*
X059306Y022317*
X059344Y022223*
X059406Y022142*
X059487Y022081*
X05958Y022042*
X059681Y022029*
X059782Y022042*
X059875Y022081*
X059956Y022142*
X060018Y022223*
X060057Y022317*
X06007Y022417*
X060057Y022518*
X060018Y022612*
X059956Y022692*
X059875Y022754*
X059782Y022793*
X059681Y022806*
G37*
G36*
X038272Y022609D02*
X038171Y022596D01*
X038077Y022557*
X037997Y022495*
X037935Y022415*
X037896Y022321*
X037883Y02222*
X037896Y02212*
X037935Y022026*
X037997Y021946*
X038077Y021884*
X038171Y021845*
X038272Y021832*
X038372Y021845*
X038466Y021884*
X038547Y021946*
X038608Y022026*
X038647Y02212*
X03866Y02222*
X038647Y022321*
X038608Y022415*
X038547Y022495*
X038466Y022557*
X038372Y022596*
X038272Y022609*
G37*
G36*
X035272D02*
X035171Y022596D01*
X035077Y022557*
X034997Y022495*
X034935Y022415*
X034896Y022321*
X034883Y02222*
X034896Y02212*
X034935Y022026*
X034997Y021946*
X035077Y021884*
X035171Y021845*
X035272Y021832*
X035372Y021845*
X035466Y021884*
X035547Y021946*
X035608Y022026*
X035647Y02212*
X03566Y02222*
X035647Y022321*
X035608Y022415*
X035547Y022495*
X035466Y022557*
X035372Y022596*
X035272Y022609*
G37*
G36*
X050551Y022578D02*
X050451Y022564D01*
X050357Y022526*
X050276Y022464*
X050215Y022383*
X050176Y02229*
X050162Y022189*
X050176Y022088*
X050215Y021995*
X050276Y021914*
X050357Y021852*
X050451Y021813*
X050551Y0218*
X050652Y021813*
X050746Y021852*
X050826Y021914*
X050888Y021995*
X050927Y022088*
X05094Y022189*
X050927Y02229*
X050888Y022383*
X050826Y022464*
X050746Y022526*
X050652Y022564*
X050551Y022578*
G37*
G36*
X047551D02*
X047451Y022564D01*
X047357Y022526*
X047276Y022464*
X047215Y022383*
X047176Y02229*
X047162Y022189*
X047176Y022088*
X047215Y021995*
X047276Y021914*
X047357Y021852*
X047451Y021813*
X047551Y0218*
X047652Y021813*
X047746Y021852*
X047826Y021914*
X047888Y021995*
X047927Y022088*
X04794Y022189*
X047927Y02229*
X047888Y022383*
X047826Y022464*
X047746Y022526*
X047652Y022564*
X047551Y022578*
G37*
G36*
X024913Y022562D02*
X024813Y022549D01*
X024719Y02251*
X024638Y022448*
X024577Y022368*
X024538Y022274*
X024525Y022173*
X024538Y022073*
X024577Y021979*
X024638Y021898*
X024719Y021837*
X024813Y021798*
X024913Y021784*
X025014Y021798*
X025108Y021837*
X025188Y021898*
X02525Y021979*
X025289Y022073*
X025302Y022173*
X025289Y022274*
X02525Y022368*
X025188Y022448*
X025108Y02251*
X025014Y022549*
X024913Y022562*
G37*
G36*
X034361Y022006D02*
Y021664D01*
X034703*
X034696Y021717*
X034656Y021814*
X034593Y021896*
X03451Y021959*
X034414Y021999*
X034361Y022006*
G37*
G36*
X034261D02*
X034208Y021999D01*
X034112Y021959*
X034029Y021896*
X033966Y021814*
X033926Y021717*
X033919Y021664*
X034261*
Y022006*
G37*
G36*
X057441Y02203D02*
X057337Y022017D01*
X057241Y021977*
X057158Y021913*
X057094Y02183*
X057054Y021734*
X057041Y02163*
X057054Y021526*
X057094Y02143*
X057158Y021347*
X057241Y021283*
X057337Y021243*
X057441Y02123*
X057545Y021243*
X057641Y021283*
X057724Y021347*
X057788Y02143*
X057828Y021526*
X057841Y02163*
X057828Y021734*
X057788Y02183*
X057724Y021913*
X057641Y021977*
X057545Y022017*
X057441Y02203*
G37*
G36*
X054488D02*
X054385Y022017D01*
X054288Y021977*
X054205Y021913*
X054142Y02183*
X054102Y021734*
X054088Y02163*
X054102Y021526*
X054142Y02143*
X054205Y021347*
X054288Y021283*
X054385Y021243*
X054488Y02123*
X054592Y021243*
X054688Y021283*
X054771Y021347*
X054835Y02143*
X054875Y021526*
X054888Y02163*
X054875Y021734*
X054835Y02183*
X054771Y021913*
X054688Y021977*
X054592Y022017*
X054488Y02203*
G37*
G36*
X034703Y021564D02*
X034361D01*
Y021222*
X034414Y021229*
X03451Y021269*
X034593Y021332*
X034656Y021415*
X034696Y021511*
X034703Y021564*
G37*
G36*
X034261D02*
X033919D01*
X033926Y021511*
X033966Y021415*
X034029Y021332*
X034112Y021269*
X034208Y021229*
X034261Y021222*
Y021564*
G37*
G36*
X062681Y021806D02*
X06258Y021793D01*
X062487Y021754*
X062406Y021692*
X062344Y021612*
X062306Y021518*
X062292Y021417*
X062306Y021317*
X062344Y021223*
X062406Y021142*
X062487Y021081*
X06258Y021042*
X062681Y021029*
X062782Y021042*
X062875Y021081*
X062956Y021142*
X063018Y021223*
X063057Y021317*
X06307Y021417*
X063057Y021518*
X063018Y021612*
X062956Y021692*
X062875Y021754*
X062782Y021793*
X062681Y021806*
G37*
G36*
X059681D02*
X05958Y021793D01*
X059487Y021754*
X059406Y021692*
X059344Y021612*
X059306Y021518*
X059292Y021417*
X059306Y021317*
X059344Y021223*
X059406Y021142*
X059487Y021081*
X05958Y021042*
X059681Y021029*
X059782Y021042*
X059875Y021081*
X059956Y021142*
X060018Y021223*
X060057Y021317*
X06007Y021417*
X060057Y021518*
X060018Y021612*
X059956Y021692*
X059875Y021754*
X059782Y021793*
X059681Y021806*
G37*
G36*
X057047Y031464D02*
X051929D01*
X051851Y031448*
X051785Y031404*
X050998Y030617*
X050951Y030633*
X050946Y030669*
X050905Y030767*
X05084Y030852*
X050755Y030917*
X050657Y030958*
X050551Y030972*
X050445Y030958*
X050347Y030917*
X050262Y030852*
X050197Y030767*
X050156Y030669*
X050143Y030563*
X050156Y030457*
X050197Y030359*
X050262Y030274*
X050347Y030209*
X050445Y030168*
X050481Y030164*
X050497Y030116*
X05027Y029889*
X049712*
X049652Y029967*
X049569Y03003*
X049473Y03007*
X04937Y030084*
X049267Y03007*
X049171Y03003*
X049088Y029967*
X049025Y029884*
X048985Y029788*
X048971Y029685*
X048985Y029582*
X049025Y029486*
X049088Y029403*
X049166Y029343*
Y027998*
X048695Y027527*
X040709*
X021811*
X021733Y027511*
X021667Y027467*
X020727Y026528*
X02063Y02654*
X020527Y026527*
X020431Y026487*
X020348Y026424*
X020285Y026341*
X020245Y026245*
X020231Y026142*
X020245Y026039*
X020285Y025942*
X020348Y02586*
X020431Y025796*
X020527Y025757*
X02063Y025743*
X020733Y025757*
X020829Y025796*
X020912Y02586*
X020975Y025942*
X021015Y026039*
X021029Y026142*
X021016Y026239*
X021895Y027119*
X027159*
X027178Y027073*
X026982Y026876*
X026938Y02681*
X026922Y026732*
Y022546*
X026844Y022487*
X026781Y022404*
X026741Y022308*
X026727Y022205*
X026741Y022102*
X026781Y022005*
X026844Y021923*
X026927Y021859*
X027023Y02182*
X027126Y021806*
X027229Y02182*
X027325Y021859*
X027408Y021923*
X027471Y022005*
X027492Y022055*
X027546Y022054*
X027577Y021979*
X027638Y021898*
X027719Y021837*
X027813Y021798*
X027913Y021784*
X028014Y021798*
X028108Y021837*
X028188Y021898*
X02825Y021979*
X028289Y022073*
X028302Y022173*
X028289Y022274*
X02825Y022368*
X028188Y022448*
X028108Y02251*
X028014Y022549*
X027913Y022562*
X027813Y022549*
X027719Y02251*
X027638Y022448*
X027577Y022368*
X027557Y022321*
X027504Y022324*
X027471Y022404*
X027408Y022487*
X02733Y022546*
Y026648*
X027373Y026691*
X02742Y026672*
Y026048*
X028407*
Y026842*
X027589*
X02757Y026888*
X027801Y027119*
X040151*
X04017Y027073*
X039974Y026876*
X03993Y02681*
X039914Y026732*
Y021562*
X039836Y021502*
X039773Y02142*
X039733Y021324*
X039719Y02122*
X039733Y021117*
X039773Y021021*
X039836Y020939*
X039919Y020875*
X040015Y020835*
X040118Y020822*
X040221Y020835*
X040317Y020875*
X0404Y020939*
X040463Y021021*
X040503Y021117*
X040517Y02122*
X040503Y021324*
X040463Y02142*
X0404Y021502*
X040322Y021562*
Y026648*
X040793Y027119*
X051057*
X051528Y026648*
Y021562*
X05145Y021502*
X051387Y02142*
X051347Y021324*
X051334Y02122*
X051347Y021117*
X051387Y021021*
X05145Y020939*
X051533Y020875*
X051629Y020835*
X051732Y020822*
X051835Y020835*
X051932Y020875*
X052014Y020939*
X052078Y021021*
X052117Y021117*
X052131Y02122*
X052117Y021324*
X052078Y02142*
X052014Y021502*
X051936Y021562*
Y026732*
X051921Y02681*
X051876Y026876*
X051286Y027467*
X05122Y027511*
X051142Y027527*
X049337*
X049318Y027573*
X049514Y027769*
X049558Y027835*
X049574Y027913*
Y029343*
X049652Y029403*
X049712Y029481*
X050354*
X050432Y029497*
X050499Y029541*
X052014Y031056*
X056963*
X063339Y024679*
Y021759*
X063261Y021699*
X063198Y021617*
X063158Y021521*
X063145Y021417*
X063158Y021314*
X063198Y021218*
X063261Y021135*
X063344Y021072*
X06344Y021032*
X063543Y021019*
X063646Y021032*
X063743Y021072*
X063825Y021135*
X063889Y021218*
X063928Y021314*
X063942Y021417*
X063928Y021521*
X063889Y021617*
X063825Y021699*
X063747Y021759*
Y024764*
X063732Y024842*
X063688Y024908*
X057191Y031404*
X057125Y031448*
X057047Y031464*
G37*
G36*
X042877Y021633D02*
X042083D01*
Y020839*
X042877*
Y021633*
G37*
G36*
X038272Y021609D02*
X038171Y021596D01*
X038077Y021557*
X037997Y021495*
X037935Y021415*
X037896Y021321*
X037883Y02122*
X037896Y02112*
X037935Y021026*
X037997Y020946*
X038077Y020884*
X038171Y020845*
X038272Y020832*
X038372Y020845*
X038466Y020884*
X038547Y020946*
X038608Y021026*
X038647Y02112*
X03866Y02122*
X038647Y021321*
X038608Y021415*
X038547Y021495*
X038466Y021557*
X038372Y021596*
X038272Y021609*
G37*
G36*
X050551Y021578D02*
X050451Y021564D01*
X050357Y021526*
X050276Y021464*
X050215Y021383*
X050176Y02129*
X050162Y021189*
X050176Y021088*
X050215Y020995*
X050276Y020914*
X050357Y020852*
X050451Y020813*
X050551Y0208*
X050652Y020813*
X050746Y020852*
X050826Y020914*
X050888Y020995*
X050927Y021088*
X05094Y021189*
X050927Y02129*
X050888Y021383*
X050826Y021464*
X050746Y021526*
X050652Y021564*
X050551Y021578*
G37*
G36*
X047551D02*
X047451Y021564D01*
X047357Y021526*
X047276Y021464*
X047215Y021383*
X047176Y02129*
X047162Y021189*
X047176Y021088*
X047215Y020995*
X047276Y020914*
X047357Y020852*
X047451Y020813*
X047551Y0208*
X047652Y020813*
X047746Y020852*
X047826Y020914*
X047888Y020995*
X047927Y021088*
X04794Y021189*
X047927Y02129*
X047888Y021383*
X047826Y021464*
X047746Y021526*
X047652Y021564*
X047551Y021578*
G37*
G36*
X027913Y021562D02*
X027813Y021549D01*
X027719Y02151*
X027638Y021448*
X027577Y021368*
X027538Y021274*
X027525Y021173*
X027538Y021073*
X027577Y020979*
X027638Y020898*
X027719Y020837*
X027813Y020798*
X027913Y020784*
X028014Y020798*
X028108Y020837*
X028188Y020898*
X02825Y020979*
X028289Y021073*
X028302Y021173*
X028289Y021274*
X02825Y021368*
X028188Y021448*
X028108Y02151*
X028014Y021549*
X027913Y021562*
G37*
G36*
X024913D02*
X024813Y021549D01*
X024719Y02151*
X024638Y021448*
X024577Y021368*
X024538Y021274*
X024525Y021173*
X024538Y021073*
X024577Y020979*
X024638Y020898*
X024719Y020837*
X024813Y020798*
X024913Y020784*
X025014Y020798*
X025108Y020837*
X025188Y020898*
X02525Y020979*
X025289Y021073*
X025302Y021173*
X025289Y021274*
X02525Y021368*
X025188Y021448*
X025108Y02151*
X025014Y021549*
X024913Y021562*
G37*
G36*
X032344Y021527D02*
X031357D01*
Y020733*
X032344*
Y021527*
G37*
G36*
X029191Y02153D02*
X028998D01*
X028894Y021517*
X028798Y021477*
X028715Y021413*
X028651Y02133*
X028611Y021234*
X028597Y02113*
X028611Y021026*
X028651Y02093*
X028715Y020847*
X028798Y020783*
X028894Y020743*
X028998Y02073*
X029191*
X029295Y020743*
X029391Y020783*
X029474Y020847*
X029538Y02093*
X029578Y021026*
X029592Y02113*
X029578Y021234*
X029538Y02133*
X029474Y021413*
X029391Y021477*
X029295Y021517*
X029191Y02153*
G37*
G36*
X057441Y02103D02*
X057337Y021017D01*
X057241Y020977*
X057158Y020913*
X057094Y02083*
X057054Y020734*
X057041Y02063*
X057054Y020526*
X057094Y02043*
X057158Y020347*
X057241Y020283*
X057337Y020243*
X057441Y02023*
X057545Y020243*
X057641Y020283*
X057724Y020347*
X057788Y02043*
X057828Y020526*
X057841Y02063*
X057828Y020734*
X057788Y02083*
X057724Y020913*
X057641Y020977*
X057545Y021017*
X057441Y02103*
G37*
G36*
X054488D02*
X054385Y021017D01*
X054288Y020977*
X054205Y020913*
X054142Y02083*
X054102Y020734*
X054088Y02063*
X054102Y020526*
X054142Y02043*
X054205Y020347*
X054288Y020283*
X054385Y020243*
X054488Y02023*
X054592Y020243*
X054688Y020283*
X054771Y020347*
X054835Y02043*
X054875Y020526*
X054888Y02063*
X054875Y020734*
X054835Y02083*
X054771Y020913*
X054688Y020977*
X054592Y021017*
X054488Y02103*
G37*
G36*
X062681Y020806D02*
X06258Y020793D01*
X062487Y020754*
X062406Y020692*
X062344Y020612*
X062306Y020518*
X062292Y020417*
X062306Y020317*
X062344Y020223*
X062406Y020142*
X062487Y020081*
X06258Y020042*
X062681Y020029*
X062782Y020042*
X062875Y020081*
X062956Y020142*
X063018Y020223*
X063057Y020317*
X06307Y020417*
X063057Y020518*
X063018Y020612*
X062956Y020692*
X062875Y020754*
X062782Y020793*
X062681Y020806*
G37*
G36*
X059681D02*
X05958Y020793D01*
X059487Y020754*
X059406Y020692*
X059344Y020612*
X059306Y020518*
X059292Y020417*
X059306Y020317*
X059344Y020223*
X059406Y020142*
X059487Y020081*
X05958Y020042*
X059681Y020029*
X059782Y020042*
X059875Y020081*
X059956Y020142*
X060018Y020223*
X060057Y020317*
X06007Y020417*
X060057Y020518*
X060018Y020612*
X059956Y020692*
X059875Y020754*
X059782Y020793*
X059681Y020806*
G37*
G36*
X027173Y020187D02*
Y019845D01*
X027515*
X027508Y019898*
X027468Y019994*
X027405Y020077*
X027323Y02014*
X027226Y02018*
X027173Y020187*
G37*
G36*
X027073D02*
X02702Y02018D01*
X026924Y02014*
X026841Y020077*
X026778Y019994*
X026738Y019898*
X026731Y019845*
X027073*
Y020187*
G37*
G36*
X04248Y020636D02*
X042377Y020623D01*
X04228Y020583*
X042197Y020519*
X042134Y020436*
X042094Y02034*
X04208Y020236*
X042094Y020133*
X042134Y020036*
X042197Y019953*
X04228Y01989*
X042377Y01985*
X04248Y019836*
X042584Y01985*
X04268Y01989*
X042763Y019953*
X042827Y020036*
X042867Y020133*
X042881Y020236*
X042867Y02034*
X042827Y020436*
X042763Y020519*
X04268Y020583*
X042584Y020623*
X04248Y020636*
G37*
G36*
X038272Y020609D02*
X038171Y020596D01*
X038077Y020557*
X037997Y020495*
X037935Y020415*
X037896Y020321*
X037883Y02022*
X037896Y02012*
X037935Y020026*
X037997Y019946*
X038077Y019884*
X038171Y019845*
X038272Y019832*
X038372Y019845*
X038466Y019884*
X038547Y019946*
X038608Y020026*
X038647Y02012*
X03866Y02022*
X038647Y020321*
X038608Y020415*
X038547Y020495*
X038466Y020557*
X038372Y020596*
X038272Y020609*
G37*
G36*
X035272D02*
X035171Y020596D01*
X035077Y020557*
X034997Y020495*
X034935Y020415*
X034896Y020321*
X034883Y02022*
X034896Y02012*
X034935Y020026*
X034997Y019946*
X035077Y019884*
X035171Y019845*
X035272Y019832*
X035372Y019845*
X035466Y019884*
X035547Y019946*
X035608Y020026*
X035647Y02012*
X03566Y02022*
X035647Y020321*
X035608Y020415*
X035547Y020495*
X035466Y020557*
X035372Y020596*
X035272Y020609*
G37*
G36*
X050551Y020578D02*
X050451Y020564D01*
X050357Y020526*
X050276Y020464*
X050215Y020383*
X050176Y02029*
X050162Y020189*
X050176Y020088*
X050215Y019995*
X050276Y019914*
X050357Y019852*
X050451Y019813*
X050551Y0198*
X050652Y019813*
X050746Y019852*
X050826Y019914*
X050888Y019995*
X050927Y020088*
X05094Y020189*
X050927Y02029*
X050888Y020383*
X050826Y020464*
X050746Y020526*
X050652Y020564*
X050551Y020578*
G37*
G36*
X047551D02*
X047451Y020564D01*
X047357Y020526*
X047276Y020464*
X047215Y020383*
X047176Y02029*
X047162Y020189*
X047176Y020088*
X047215Y019995*
X047276Y019914*
X047357Y019852*
X047451Y019813*
X047551Y0198*
X047652Y019813*
X047746Y019852*
X047826Y019914*
X047888Y019995*
X047927Y020088*
X04794Y020189*
X047927Y02029*
X047888Y020383*
X047826Y020464*
X047746Y020526*
X047652Y020564*
X047551Y020578*
G37*
G36*
X027913Y020562D02*
X027813Y020549D01*
X027719Y02051*
X027638Y020448*
X027577Y020368*
X027538Y020274*
X027525Y020173*
X027538Y020073*
X027577Y019979*
X027638Y019898*
X027719Y019837*
X027813Y019798*
X027913Y019784*
X028014Y019798*
X028108Y019837*
X028188Y019898*
X02825Y019979*
X028289Y020073*
X028302Y020173*
X028289Y020274*
X02825Y020368*
X028188Y020448*
X028108Y02051*
X028014Y020549*
X027913Y020562*
G37*
G36*
X024913D02*
X024813Y020549D01*
X024719Y02051*
X024638Y020448*
X024577Y020368*
X024538Y020274*
X024525Y020173*
X024538Y020073*
X024577Y019979*
X024638Y019898*
X024719Y019837*
X024813Y019798*
X024913Y019784*
X025014Y019798*
X025108Y019837*
X025188Y019898*
X02525Y019979*
X025289Y020073*
X025302Y020173*
X025289Y020274*
X02525Y020368*
X025188Y020448*
X025108Y02051*
X025014Y020549*
X024913Y020562*
G37*
G36*
X029588Y020527D02*
X028601D01*
Y019733*
X029588*
Y020527*
G37*
G36*
X031947Y02053D02*
X031754D01*
X03165Y020517*
X031553Y020477*
X031471Y020413*
X031407Y02033*
X031367Y020234*
X031353Y02013*
X031367Y020026*
X031407Y01993*
X031471Y019847*
X031553Y019783*
X03165Y019743*
X031754Y01973*
X031947*
X032051Y019743*
X032147Y019783*
X03223Y019847*
X032294Y01993*
X032334Y020026*
X032348Y02013*
X032334Y020234*
X032294Y02033*
X03223Y020413*
X032147Y020477*
X032051Y020517*
X031947Y02053*
G37*
G36*
X027515Y019745D02*
X027173D01*
Y019403*
X027226Y01941*
X027323Y01945*
X027405Y019513*
X027468Y019596*
X027508Y019692*
X027515Y019745*
G37*
G36*
X027073D02*
X026731D01*
X026738Y019692*
X026778Y019596*
X026841Y019513*
X026924Y01945*
X02702Y01941*
X027073Y019403*
Y019745*
G37*
G36*
X057838Y020027D02*
X057044D01*
Y019233*
X057838*
Y020027*
G37*
G36*
X054885D02*
X054091D01*
Y019233*
X054885*
Y020027*
G37*
G36*
X062681Y019806D02*
X06258Y019793D01*
X062487Y019754*
X062406Y019692*
X062344Y019612*
X062306Y019518*
X062292Y019417*
X062306Y019317*
X062344Y019223*
X062406Y019142*
X062487Y019081*
X06258Y019042*
X062681Y019029*
X062782Y019042*
X062875Y019081*
X062956Y019142*
X063018Y019223*
X063057Y019317*
X06307Y019417*
X063057Y019518*
X063018Y019612*
X062956Y019692*
X062875Y019754*
X062782Y019793*
X062681Y019806*
G37*
G36*
X059681D02*
X05958Y019793D01*
X059487Y019754*
X059406Y019692*
X059344Y019612*
X059306Y019518*
X059292Y019417*
X059306Y019317*
X059344Y019223*
X059406Y019142*
X059487Y019081*
X05958Y019042*
X059681Y019029*
X059782Y019042*
X059875Y019081*
X059956Y019142*
X060018Y019223*
X060057Y019317*
X06007Y019417*
X060057Y019518*
X060018Y019612*
X059956Y019692*
X059875Y019754*
X059782Y019793*
X059681Y019806*
G37*
G36*
X045333Y019759D02*
X045139D01*
X045036Y019745*
X044939Y019705*
X044856Y019641*
X044793Y019558*
X044753Y019462*
X044739Y019358*
X044753Y019255*
X044793Y019158*
X044856Y019075*
X044939Y019012*
X045036Y018972*
X045139Y018958*
X045333*
X045437Y018972*
X045533Y019012*
X045616Y019075*
X04568Y019158*
X04572Y019255*
X045733Y019358*
X04572Y019462*
X04568Y019558*
X045616Y019641*
X045533Y019705*
X045437Y019745*
X045333Y019759*
G37*
G36*
X04248Y019636D02*
X042377Y019623D01*
X04228Y019583*
X042197Y019519*
X042134Y019436*
X042094Y01934*
X04208Y019236*
X042094Y019133*
X042134Y019036*
X042197Y018953*
X04228Y01889*
X042377Y01885*
X04248Y018836*
X042584Y01885*
X04268Y01889*
X042763Y018953*
X042827Y019036*
X042867Y019133*
X042881Y019236*
X042867Y01934*
X042827Y019436*
X042763Y019519*
X04268Y019583*
X042584Y019623*
X04248Y019636*
G37*
G36*
X038272Y019609D02*
X038171Y019596D01*
X038077Y019557*
X037997Y019495*
X037935Y019415*
X037896Y019321*
X037883Y01922*
X037896Y01912*
X037935Y019026*
X037997Y018946*
X038077Y018884*
X038171Y018845*
X038272Y018832*
X038372Y018845*
X038466Y018884*
X038547Y018946*
X038608Y019026*
X038647Y01912*
X03866Y01922*
X038647Y019321*
X038608Y019415*
X038547Y019495*
X038466Y019557*
X038372Y019596*
X038272Y019609*
G37*
G36*
X035272D02*
X035171Y019596D01*
X035077Y019557*
X034997Y019495*
X034935Y019415*
X034896Y019321*
X034883Y01922*
X034896Y01912*
X034935Y019026*
X034997Y018946*
X035077Y018884*
X035171Y018845*
X035272Y018832*
X035372Y018845*
X035466Y018884*
X035547Y018946*
X035608Y019026*
X035647Y01912*
X03566Y01922*
X035647Y019321*
X035608Y019415*
X035547Y019495*
X035466Y019557*
X035372Y019596*
X035272Y019609*
G37*
G36*
X050551Y019578D02*
X050451Y019564D01*
X050357Y019526*
X050276Y019464*
X050215Y019383*
X050176Y01929*
X050162Y019189*
X050176Y019088*
X050215Y018995*
X050276Y018914*
X050357Y018852*
X050451Y018813*
X050551Y0188*
X050652Y018813*
X050746Y018852*
X050826Y018914*
X050888Y018995*
X050927Y019088*
X05094Y019189*
X050927Y01929*
X050888Y019383*
X050826Y019464*
X050746Y019526*
X050652Y019564*
X050551Y019578*
G37*
G36*
X047551D02*
X047451Y019564D01*
X047357Y019526*
X047276Y019464*
X047215Y019383*
X047176Y01929*
X047162Y019189*
X047176Y019088*
X047215Y018995*
X047276Y018914*
X047357Y018852*
X047451Y018813*
X047551Y0188*
X047652Y018813*
X047746Y018852*
X047826Y018914*
X047888Y018995*
X047927Y019088*
X04794Y019189*
X047927Y01929*
X047888Y019383*
X047826Y019464*
X047746Y019526*
X047652Y019564*
X047551Y019578*
G37*
G36*
X027913Y019562D02*
X027813Y019549D01*
X027719Y01951*
X027638Y019448*
X027577Y019368*
X027538Y019274*
X027525Y019173*
X027538Y019073*
X027577Y018979*
X027638Y018898*
X027719Y018837*
X027813Y018798*
X027913Y018784*
X028014Y018798*
X028108Y018837*
X028188Y018898*
X02825Y018979*
X028289Y019073*
X028302Y019173*
X028289Y019274*
X02825Y019368*
X028188Y019448*
X028108Y01951*
X028014Y019549*
X027913Y019562*
G37*
G36*
X024913D02*
X024813Y019549D01*
X024719Y01951*
X024638Y019448*
X024577Y019368*
X024538Y019274*
X024525Y019173*
X024538Y019073*
X024577Y018979*
X024638Y018898*
X024719Y018837*
X024813Y018798*
X024913Y018784*
X025014Y018798*
X025108Y018837*
X025188Y018898*
X02525Y018979*
X025289Y019073*
X025302Y019173*
X025289Y019274*
X02525Y019368*
X025188Y019448*
X025108Y01951*
X025014Y019549*
X024913Y019562*
G37*
G36*
X062681Y018806D02*
X06258Y018793D01*
X062487Y018754*
X062406Y018692*
X062344Y018612*
X062306Y018518*
X062292Y018417*
X062306Y018317*
X062344Y018223*
X062406Y018142*
X062487Y018081*
X06258Y018042*
X062681Y018029*
X062782Y018042*
X062875Y018081*
X062956Y018142*
X063018Y018223*
X063057Y018317*
X06307Y018417*
X063057Y018518*
X063018Y018612*
X062956Y018692*
X062875Y018754*
X062782Y018793*
X062681Y018806*
G37*
G36*
X059681D02*
X05958Y018793D01*
X059487Y018754*
X059406Y018692*
X059344Y018612*
X059306Y018518*
X059292Y018417*
X059306Y018317*
X059344Y018223*
X059406Y018142*
X059487Y018081*
X05958Y018042*
X059681Y018029*
X059782Y018042*
X059875Y018081*
X059956Y018142*
X060018Y018223*
X060057Y018317*
X06007Y018417*
X060057Y018518*
X060018Y018612*
X059956Y018692*
X059875Y018754*
X059782Y018793*
X059681Y018806*
G37*
G36*
X04573Y018755D02*
X044743D01*
Y017961*
X04573*
Y018755*
G37*
G36*
X054882Y030084D02*
X054779Y03007D01*
X054683Y03003*
X0546Y029967*
X054537Y029884*
X054497Y029788*
X054483Y029685*
X054497Y029582*
X054537Y029486*
X0546Y029403*
X054683Y02934*
X054779Y0293*
X054882Y029286*
X054979Y029299*
X058615Y025664*
Y021759*
X058537Y021699*
X058474Y021617*
X058434Y021521*
X05842Y021417*
X058434Y021314*
X058474Y021218*
X058537Y021135*
X058615Y021076*
Y018352*
X058144Y017881*
X050861*
X050839Y017931*
X050888Y017995*
X050927Y018088*
X05094Y018189*
X050927Y01829*
X050888Y018383*
X050826Y018464*
X050746Y018526*
X050652Y018564*
X050551Y018578*
X050451Y018564*
X050357Y018526*
X050276Y018464*
X050215Y018383*
X050176Y01829*
X050162Y018189*
X050176Y018088*
X050215Y017995*
X050263Y017931*
X050241Y017881*
X047861*
X047839Y017931*
X047888Y017995*
X047927Y018088*
X04794Y018189*
X047927Y01829*
X047888Y018383*
X047826Y018464*
X047746Y018526*
X047652Y018564*
X047551Y018578*
X047451Y018564*
X047357Y018526*
X047276Y018464*
X047215Y018383*
X047176Y01829*
X047162Y018189*
X047176Y018088*
X047215Y017995*
X047263Y017931*
X047241Y017881*
X047092*
X046621Y018352*
Y020039*
X046606Y020117*
X046562Y020184*
X045622Y021123*
X045635Y02122*
X045621Y021324*
X045581Y02142*
X045518Y021502*
X045436Y021566*
X045339Y021606*
X045236Y021619*
X045133Y021606*
X045037Y021566*
X044954Y021502*
X044891Y02142*
X044851Y021324*
X044838Y02122*
X044851Y021117*
X044891Y021021*
X044954Y020939*
X045037Y020875*
X045133Y020835*
X045236Y020822*
X045334Y020835*
X046213Y019955*
Y018268*
X046229Y01819*
X046273Y018124*
X046469Y017927*
X04645Y017881*
X038545*
X038528Y017931*
X038547Y017946*
X038608Y018026*
X038647Y01812*
X03866Y01822*
X038647Y018321*
X038608Y018415*
X038547Y018495*
X038466Y018557*
X038372Y018596*
X038272Y018609*
X038171Y018596*
X038077Y018557*
X037997Y018495*
X037935Y018415*
X037896Y018321*
X037883Y01822*
X037896Y01812*
X037935Y018026*
X037997Y017946*
X038016Y017931*
X037999Y017881*
X037644*
X037172Y018352*
Y020236*
X037157Y020314*
X037113Y02038*
X03637Y021123*
X036383Y02122*
X036369Y021324*
X03633Y02142*
X036266Y021502*
X036184Y021566*
X036087Y021606*
X035984Y021619*
X035881Y021606*
X035785Y021566*
X035702Y021502*
X035652Y021437*
X035649Y021435*
X035602Y021433*
X035592Y021436*
X035547Y021495*
X035466Y021557*
X035372Y021596*
X035272Y021609*
X035171Y021596*
X035077Y021557*
X034997Y021495*
X034935Y021415*
X034896Y021321*
X034883Y02122*
X034896Y02112*
X034935Y021026*
X034997Y020946*
X035077Y020884*
X035171Y020845*
X035272Y020832*
X035372Y020845*
X035466Y020884*
X035547Y020946*
X035592Y021004*
X035602Y021008*
X035649Y021006*
X035652Y021004*
X035702Y020939*
X035785Y020875*
X035881Y020835*
X035984Y020822*
X036082Y020835*
X036765Y020152*
Y018268*
X03678Y01819*
X036824Y018124*
X037021Y017927*
X037001Y017881*
X035545*
X035528Y017931*
X035547Y017946*
X035608Y018026*
X035647Y01812*
X03566Y01822*
X035647Y018321*
X035608Y018415*
X035547Y018495*
X035466Y018557*
X035372Y018596*
X035272Y018609*
X035171Y018596*
X035077Y018557*
X034997Y018495*
X034935Y018415*
X034896Y018321*
X034883Y01822*
X034896Y01812*
X034935Y018026*
X034997Y017946*
X035016Y017931*
X034999Y017881*
X028238*
X028213Y017931*
X02825Y017979*
X028289Y018073*
X028302Y018173*
X028289Y018274*
X02825Y018368*
X028188Y018448*
X028108Y01851*
X028014Y018549*
X027913Y018562*
X027813Y018549*
X027719Y01851*
X027638Y018448*
X027577Y018368*
X027538Y018274*
X027525Y018173*
X027538Y018073*
X027577Y017979*
X027613Y017931*
X027589Y017881*
X025238*
X025213Y017931*
X02525Y017979*
X025289Y018073*
X025302Y018173*
X025289Y018274*
X02525Y018368*
X025188Y018448*
X025108Y01851*
X025014Y018549*
X024913Y018562*
X024813Y018549*
X024719Y01851*
X024638Y018448*
X024577Y018368*
X024538Y018274*
X024525Y018173*
X024538Y018073*
X024577Y017979*
X024613Y017931*
X024589Y017881*
X024455*
X023787Y018549*
Y020933*
X023851Y020983*
X023915Y021066*
X023955Y021162*
X023968Y021265*
X023955Y021368*
X023915Y021464*
X023851Y021547*
X023769Y02161*
X023673Y02165*
X02357Y021664*
X023466Y02165*
X02337Y02161*
X023288Y021547*
X023224Y021464*
X023184Y021368*
X023171Y021265*
X023184Y021162*
X023224Y021066*
X023288Y020983*
X02337Y02092*
X023379Y020916*
Y018465*
X023394Y018387*
X023438Y01832*
X024226Y017533*
X024292Y017489*
X02437Y017473*
X037559*
X047008*
X054485*
Y01669*
X055279*
Y017473*
X05719*
X057207Y017423*
X057158Y017385*
X057094Y017303*
X057054Y017206*
X057041Y017102*
X057054Y016999*
X057094Y016902*
X057158Y016819*
X057241Y016756*
X057337Y016716*
X057441Y016702*
X057545Y016716*
X057641Y016756*
X057724Y016819*
X057788Y016902*
X057828Y016999*
X057841Y017102*
X057828Y017206*
X057788Y017303*
X057724Y017385*
X057675Y017423*
X057692Y017473*
X058228*
X058306Y017489*
X058373Y017533*
X058963Y018124*
X059007Y01819*
X059023Y018268*
Y021076*
X059101Y021135*
X059164Y021218*
X059204Y021314*
X059218Y021417*
X059204Y021521*
X059164Y021617*
X059101Y021699*
X059023Y021759*
Y025748*
X059007Y025826*
X058963Y025892*
X055268Y029588*
X055281Y029685*
X055267Y029788*
X055227Y029884*
X055164Y029967*
X055081Y03003*
X054985Y03007*
X054882Y030084*
G37*
G36*
X020533Y017714D02*
X019546D01*
Y016884*
X020533*
Y017714*
G37*
G36*
X018761D02*
X017774D01*
Y016884*
X018761*
Y017714*
G37*
G36*
X01699D02*
X016002D01*
Y016884*
X01699*
Y017714*
G37*
G36*
X023042Y017085D02*
Y016743D01*
X023384*
X023377Y016796*
X023337Y016892*
X023274Y016975*
X023191Y017038*
X023095Y017078*
X023042Y017085*
G37*
G36*
X022942D02*
X022889Y017078D01*
X022793Y017038*
X02271Y016975*
X022647Y016892*
X022607Y016796*
X0226Y016743*
X022942*
Y017085*
G37*
G36*
X062806Y016888D02*
Y016546D01*
X063148*
X063141Y016599*
X063101Y016695*
X063038Y016778*
X062955Y016841*
X062859Y016881*
X062806Y016888*
G37*
G36*
X062706D02*
X062653Y016881D01*
X062557Y016841*
X062474Y016778*
X062411Y016695*
X062371Y016599*
X062364Y016546*
X062706*
Y016888*
G37*
G36*
X023384Y016643D02*
X023042D01*
Y016301*
X023095Y016308*
X023191Y016348*
X023274Y016411*
X023337Y016494*
X023377Y01659*
X023384Y016643*
G37*
G36*
X022942D02*
X0226D01*
X022607Y01659*
X022647Y016494*
X02271Y016411*
X022793Y016348*
X022889Y016308*
X022942Y016301*
Y016643*
G37*
G36*
X063148Y016446D02*
X062806D01*
Y016104*
X062859Y016111*
X062955Y016151*
X063038Y016214*
X063101Y016297*
X063141Y016393*
X063148Y016446*
G37*
G36*
X062706D02*
X062364D01*
X062371Y016393*
X062411Y016297*
X062474Y016214*
X062557Y016151*
X062653Y016111*
X062706Y016104*
Y016446*
G37*
G36*
X020118Y016718D02*
X019961D01*
X019852Y016703*
X019751Y016662*
X019665Y016595*
X019598Y016508*
X019556Y016408*
X019542Y016299*
X019556Y016191*
X019598Y01609*
X019665Y016003*
X019751Y015937*
X019852Y015895*
X019961Y015881*
X020118*
X020226Y015895*
X020327Y015937*
X020414Y016003*
X020481Y01609*
X020522Y016191*
X020537Y016299*
X020522Y016408*
X020481Y016508*
X020414Y016595*
X020327Y016662*
X020226Y016703*
X020118Y016718*
G37*
G36*
X018346D02*
X018189D01*
X018081Y016703*
X01798Y016662*
X017893Y016595*
X017827Y016508*
X017785Y016408*
X01777Y016299*
X017785Y016191*
X017827Y01609*
X017893Y016003*
X01798Y015937*
X018081Y015895*
X018189Y015881*
X018346*
X018455Y015895*
X018556Y015937*
X018642Y016003*
X018709Y01609*
X018751Y016191*
X018765Y016299*
X018751Y016408*
X018709Y016508*
X018642Y016595*
X018556Y016662*
X018455Y016703*
X018346Y016718*
G37*
G36*
X016575D02*
X016417D01*
X016309Y016703*
X016208Y016662*
X016121Y016595*
X016055Y016508*
X016013Y016408*
X015999Y016299*
X016013Y016191*
X016055Y01609*
X016121Y016003*
X016208Y015937*
X016309Y015895*
X016417Y015881*
X016575*
X016683Y015895*
X016784Y015937*
X016871Y016003*
X016937Y01609*
X016979Y016191*
X016993Y016299*
X016979Y016408*
X016937Y016508*
X016871Y016595*
X016784Y016662*
X016683Y016703*
X016575Y016718*
G37*
G36*
X057441Y016503D02*
X057337Y016489D01*
X057241Y016449*
X057158Y016385*
X057094Y016302*
X057054Y016206*
X057041Y016102*
X057054Y015999*
X057094Y015902*
X057158Y015819*
X057241Y015756*
X057337Y015716*
X057441Y015702*
X057545Y015716*
X057641Y015756*
X057724Y015819*
X057788Y015902*
X057828Y015999*
X057841Y016102*
X057828Y016206*
X057788Y016302*
X057724Y016385*
X057641Y016449*
X057545Y016489*
X057441Y016503*
G37*
G36*
X054882Y016487D02*
X054778Y016473D01*
X054682Y016433*
X054599Y01637*
X054535Y016287*
X054495Y01619*
X054482Y016087*
X054495Y015983*
X054535Y015886*
X054599Y015804*
X054682Y01574*
X054778Y0157*
X054882Y015686*
X054985Y0157*
X055082Y01574*
X055165Y015804*
X055229Y015886*
X055269Y015983*
X055282Y016087*
X055269Y01619*
X055229Y016287*
X055165Y01637*
X055082Y016433*
X054985Y016473*
X054882Y016487*
G37*
G36*
X052026Y016018D02*
X051832D01*
X051729Y016005*
X051632Y015965*
X051549Y015901*
X051486Y015818*
X051446Y015722*
X051432Y015618*
X051446Y015515*
X051486Y015418*
X051549Y015335*
X051632Y015271*
X051729Y015231*
X051832Y015218*
X052026*
X05213Y015231*
X052226Y015271*
X052309Y015335*
X052373Y015418*
X052413Y015515*
X052426Y015618*
X052413Y015722*
X052373Y015818*
X052309Y015901*
X052226Y015965*
X05213Y016005*
X052026Y016018*
G37*
G36*
X020118Y015718D02*
X019961D01*
X019852Y015703*
X019751Y015662*
X019665Y015595*
X019598Y015508*
X019556Y015408*
X019542Y015299*
X019556Y015191*
X019598Y01509*
X019665Y015003*
X019751Y014937*
X019852Y014895*
X019961Y014881*
X020118*
X020226Y014895*
X020327Y014937*
X020414Y015003*
X020481Y01509*
X020522Y015191*
X020537Y015299*
X020522Y015408*
X020481Y015508*
X020414Y015595*
X020327Y015662*
X020226Y015703*
X020118Y015718*
G37*
G36*
X018346D02*
X018189D01*
X018081Y015703*
X01798Y015662*
X017893Y015595*
X017827Y015508*
X017785Y015408*
X01777Y015299*
X017785Y015191*
X017827Y01509*
X017893Y015003*
X01798Y014937*
X018081Y014895*
X018189Y014881*
X018346*
X018455Y014895*
X018556Y014937*
X018642Y015003*
X018709Y01509*
X018751Y015191*
X018765Y015299*
X018751Y015408*
X018709Y015508*
X018642Y015595*
X018556Y015662*
X018455Y015703*
X018346Y015718*
G37*
G36*
X016575D02*
X016417D01*
X016309Y015703*
X016208Y015662*
X016121Y015595*
X016055Y015508*
X016013Y015408*
X015999Y015299*
X016013Y015191*
X016055Y01509*
X016121Y015003*
X016208Y014937*
X016309Y014895*
X016417Y014881*
X016575*
X016683Y014895*
X016784Y014937*
X016871Y015003*
X016937Y01509*
X016979Y015191*
X016993Y015299*
X016979Y015408*
X016937Y015508*
X016871Y015595*
X016784Y015662*
X016683Y015703*
X016575Y015718*
G37*
G36*
X057838Y015499D02*
X057044D01*
Y014706*
X057838*
Y015499*
G37*
G36*
X054882Y015487D02*
X054778Y015473D01*
X054682Y015433*
X054599Y01537*
X054535Y015287*
X054495Y01519*
X054482Y015087*
X054495Y014983*
X054535Y014886*
X054599Y014804*
X054682Y01474*
X054778Y0147*
X054882Y014686*
X054985Y0147*
X055082Y01474*
X055165Y014804*
X055229Y014886*
X055269Y014983*
X055282Y015087*
X055269Y01519*
X055229Y015287*
X055165Y01537*
X055082Y015433*
X054985Y015473*
X054882Y015487*
G37*
G36*
X042087Y01514D02*
X041983Y015127D01*
X041886Y015087*
X041804Y015023*
X04174Y01494*
X0417Y014844*
X041686Y01474*
X0417Y014637*
X04174Y01454*
X041804Y014457*
X041886Y014394*
X041983Y014354*
X042087Y01434*
X04219Y014354*
X042287Y014394*
X04237Y014457*
X042433Y01454*
X042473Y014637*
X042487Y01474*
X042473Y014844*
X042433Y01494*
X04237Y015023*
X042287Y015087*
X04219Y015127*
X042087Y01514*
G37*
G36*
X038346D02*
X038243Y015127D01*
X038146Y015087*
X038063Y015023*
X038Y01494*
X03796Y014844*
X037946Y01474*
X03796Y014637*
X038Y01454*
X038063Y014457*
X038146Y014394*
X038243Y014354*
X038346Y01434*
X03845Y014354*
X038547Y014394*
X038629Y014457*
X038693Y01454*
X038733Y014637*
X038747Y01474*
X038733Y014844*
X038693Y01494*
X038629Y015023*
X038547Y015087*
X03845Y015127*
X038346Y01514*
G37*
G36*
X034409D02*
X034306Y015127D01*
X034209Y015087*
X034126Y015023*
X034063Y01494*
X034023Y014844*
X034009Y01474*
X034023Y014637*
X034063Y01454*
X034126Y014457*
X034209Y014394*
X034306Y014354*
X034409Y01434*
X034513Y014354*
X03461Y014394*
X034692Y014457*
X034756Y01454*
X034796Y014637*
X03481Y01474*
X034796Y014844*
X034756Y01494*
X034692Y015023*
X03461Y015087*
X034513Y015127*
X034409Y01514*
G37*
G36*
X030669D02*
X030566Y015127D01*
X030469Y015087*
X030386Y015023*
X030323Y01494*
X030283Y014844*
X030269Y01474*
X030283Y014637*
X030323Y01454*
X030386Y014457*
X030469Y014394*
X030566Y014354*
X030669Y01434*
X030773Y014354*
X030869Y014394*
X030952Y014457*
X031016Y01454*
X031056Y014637*
X03107Y01474*
X031056Y014844*
X031016Y01494*
X030952Y015023*
X030869Y015087*
X030773Y015127*
X030669Y01514*
G37*
G36*
X052423Y015015D02*
X051435D01*
Y014221*
X052423*
Y015015*
G37*
G36*
X042087Y01414D02*
X041983Y014127D01*
X041886Y014087*
X041804Y014023*
X04174Y01394*
X0417Y013844*
X041686Y01374*
X0417Y013637*
X04174Y01354*
X041804Y013457*
X041886Y013394*
X041983Y013354*
X042087Y01334*
X04219Y013354*
X042287Y013394*
X04237Y013457*
X042433Y01354*
X042473Y013637*
X042487Y01374*
X042473Y013844*
X042433Y01394*
X04237Y014023*
X042287Y014087*
X04219Y014127*
X042087Y01414*
G37*
G36*
X038346D02*
X038243Y014127D01*
X038146Y014087*
X038063Y014023*
X038Y01394*
X03796Y013844*
X037946Y01374*
X03796Y013637*
X038Y01354*
X038063Y013457*
X038146Y013394*
X038243Y013354*
X038346Y01334*
X03845Y013354*
X038547Y013394*
X038629Y013457*
X038693Y01354*
X038733Y013637*
X038747Y01374*
X038733Y013844*
X038693Y01394*
X038629Y014023*
X038547Y014087*
X03845Y014127*
X038346Y01414*
G37*
G36*
X034409D02*
X034306Y014127D01*
X034209Y014087*
X034126Y014023*
X034063Y01394*
X034023Y013844*
X034009Y01374*
X034023Y013637*
X034063Y01354*
X034126Y013457*
X034209Y013394*
X034306Y013354*
X034409Y01334*
X034513Y013354*
X03461Y013394*
X034692Y013457*
X034756Y01354*
X034796Y013637*
X03481Y01374*
X034796Y013844*
X034756Y01394*
X034692Y014023*
X03461Y014087*
X034513Y014127*
X034409Y01414*
G37*
G36*
X030669D02*
X030566Y014127D01*
X030469Y014087*
X030386Y014023*
X030323Y01394*
X030283Y013844*
X030269Y01374*
X030283Y013637*
X030323Y01354*
X030386Y013457*
X030469Y013394*
X030566Y013354*
X030669Y01334*
X030773Y013354*
X030869Y013394*
X030952Y013457*
X031016Y01354*
X031056Y013637*
X03107Y01374*
X031056Y013844*
X031016Y01394*
X030952Y014023*
X030869Y014087*
X030773Y014127*
X030669Y01414*
G37*
G36*
X042483Y013137D02*
X04169D01*
Y012343*
X042483*
Y013137*
G37*
G36*
X038743D02*
X03795D01*
Y012343*
X038743*
Y013137*
G37*
G36*
X034806D02*
X034013D01*
Y012343*
X034806*
Y013137*
G37*
G36*
X031066D02*
X030272D01*
Y012343*
X031066*
Y013137*
G37*
%LNmikrofonvorverstärker-3*%
%LPD*%
G54D10*
X04937Y029685D02*
X050354D01*
X051929Y03126D02*
X057047D01*
X050354Y029685D02*
X051929Y03126D01*
X051142Y027323D02*
X051732Y026732D01*
X04878Y027323D02*
X051142D01*
X051732Y02122D02*
Y026732D01*
X040709Y027323D02*
X04878D01*
X04937Y027913*
Y029685*
X040118Y026732D02*
X040709Y027323D01*
X057047Y03126D02*
X063543Y024764D01*
Y021614D02*
Y024764D01*
X027717Y027323D02*
X040709D01*
X021811D02*
X027717D01*
X027126Y026732D02*
X027717Y027323D01*
X027126Y022205D02*
Y026732D01*
X040118Y02122D02*
Y026732D01*
X02063Y026142D02*
X021811Y027323D01*
X054882Y029685D02*
X058819Y025748D01*
X047008Y017677D02*
X058228D01*
X058819Y018268*
X023583Y018465D02*
Y021252D01*
X02437Y017677D02*
X037559D01*
X023583Y018465D02*
X02437Y017677D01*
X02357Y021265D02*
X023583Y021252D01*
X035984Y02122D02*
D01*
X036969Y018268D02*
Y020236D01*
X035984Y02122D02*
X036969Y020236D01*
X045236Y02122D02*
X046417Y020039D01*
Y018268D02*
Y020039D01*
X037559Y017677D02*
X047008D01*
X036969Y018268D02*
X037559Y017677D01*
X058819Y018268D02*
Y025748D01*
X046417Y018268D02*
X047008Y017677D01*
G54D11*
X01Y01D02*
Y010197D01*
Y01D02*
X069055D01*
Y039528*
X01D02*
X069055D01*
X01Y010197D02*
Y039528D01*
G54D12*
X057441Y015102D03*
X054882Y017087D03*
X057441Y01963D03*
Y023961D03*
X054488Y01963D03*
Y023961D03*
X030669Y01274D03*
X04248Y021236D03*
X042087Y01274D03*
X029094Y030488D03*
X038346Y01274D03*
X032835Y030488D03*
X034409Y01274D03*
X025157Y030488D03*
G54D13*
X057441Y016102D03*
Y017102D03*
X054882Y016087D03*
Y015087D03*
X057441Y02063D03*
Y02163D03*
Y024961D03*
Y025961D03*
X054488Y02063D03*
Y02163D03*
Y024961D03*
Y025961D03*
X030669Y01474D03*
Y01374D03*
X04248Y019236D03*
Y020236D03*
X042087Y01474D03*
Y01374D03*
X029094Y028488D03*
Y029488D03*
X038346Y01474D03*
Y01374D03*
X032835Y028488D03*
Y029488D03*
X034409Y01474D03*
Y01374D03*
X025157Y028488D03*
Y029488D03*
G54D14*
X062681Y023417D03*
Y024417D03*
Y021417D03*
Y022417D03*
X059681Y023417D03*
X062681Y020417D03*
Y019417D03*
X059681D03*
X062681Y018417D03*
X059681Y022417D03*
Y021417D03*
Y018417D03*
Y020417D03*
X047551Y023189D03*
Y022189D03*
Y021189D03*
Y020189D03*
Y019189D03*
Y018189D03*
X050551Y024189D03*
Y023189D03*
Y022189D03*
Y021189D03*
Y020189D03*
Y019189D03*
Y018189D03*
X035272Y02322D03*
Y02222D03*
Y02122D03*
Y02022D03*
Y01922D03*
Y01822D03*
X038272Y02422D03*
Y02322D03*
Y02222D03*
Y02122D03*
Y02022D03*
Y01922D03*
Y01822D03*
X024913Y023173D03*
Y022173D03*
Y021173D03*
Y020173D03*
Y019173D03*
Y018173D03*
X027913Y024173D03*
Y023173D03*
Y022173D03*
Y021173D03*
Y020173D03*
Y019173D03*
Y018173D03*
G54D15*
X059681Y024417D03*
X047551Y024189D03*
X035272Y02422D03*
X024913Y024173D03*
G54D16*
X04837Y035984D03*
X04937D03*
X053882D03*
X054882D03*
G54D17*
X05037Y035984D03*
X055882D03*
G54D18*
X016496Y022583D03*
X018268D03*
X020236D03*
X020039Y017299D03*
X018268D03*
X016496D03*
G54D19*
X016496Y023583D03*
Y024583D03*
X018268Y023583D03*
Y024583D03*
X020236Y023583D03*
Y024583D03*
X020039Y016299D03*
Y015299D03*
X018268Y016299D03*
Y015299D03*
X016496Y016299D03*
Y015299D03*
G54D20*
X039528Y035197D03*
X038528D03*
X037528D03*
X036528D03*
X040528D03*
X041528D03*
X042528D03*
X039528Y036197D03*
X038528D03*
X037528D03*
X040528D03*
X041528D03*
X042528D03*
G54D21*
X036528Y036197D03*
G54D22*
X051929Y015618D03*
X029094Y02113D03*
X045236Y019358D03*
X04248Y02328D03*
X03185Y02013D03*
X027913Y025445D03*
G54D23*
X051929Y014618D03*
X029094Y02013D03*
X045236Y018358D03*
X04248Y02428D03*
X03185Y02113D03*
X027913Y026445D03*
G54D24*
X04937Y034319D03*
Y030563D03*
X054882D03*
Y034319D03*
X050551Y030563D03*
Y034319D03*
X056063D03*
Y030563D03*
G54D25*
X062756Y016496D03*
X059705Y026993D03*
X027123Y019795D03*
X034311Y021614D03*
X036083Y024173D03*
X022992Y016693D03*
X018071Y032244D03*
X041496Y037362D03*
X063543Y021417D03*
X058819D03*
X051732Y02122D03*
X045236D03*
X040118D03*
X035984D03*
X027126Y022205D03*
X02357Y021265D03*
X02063Y026142D03*
X054882Y029685D03*
X04937D03*
=======
X0644Y036199D02*
X064297Y036185D01*
X064201Y036145*
X064118Y036082*
X064055Y035999*
X064027Y035933*
X063973*
X063945Y035999*
X063882Y036082*
X063799Y036145*
X063703Y036185*
X0636Y036199*
X063497Y036185*
X063401Y036145*
X063318Y036082*
X063255Y035999*
X063236Y035953*
X0533*
X053241Y035941*
X053192Y035908*
X049937Y032653*
X041695*
Y032898*
Y03365*
X041575*
X041558Y0337*
X041582Y033718*
X041645Y033801*
X041685Y033897*
X041699Y034*
X041685Y034103*
X041645Y034199*
X041582Y034282*
X041499Y034345*
X04144Y03437*
Y034424*
X041502Y03445*
X041586Y034514*
X04165Y034598*
X041691Y034695*
X041705Y0348*
X041691Y034905*
X04165Y035002*
X041586Y035086*
X041502Y03515*
X041405Y035191*
X0413Y035205*
X041195Y035191*
X041098Y03515*
X041014Y035086*
X04095Y035002*
X040909Y034905*
X040895Y0348*
X040909Y034695*
X04095Y034598*
X041014Y034514*
X041098Y03445*
X04116Y034424*
Y03437*
X041101Y034345*
X041018Y034282*
X040955Y034199*
X040915Y034103*
X040901Y034*
X040915Y033897*
X040955Y033801*
X041018Y033718*
X041042Y0337*
X041025Y03365*
X040905*
Y032898*
Y032282*
X040859Y032262*
X040695Y032426*
Y032898*
Y03365*
X040575*
X040558Y0337*
X040582Y033718*
X040645Y033801*
X040685Y033897*
X040699Y034*
X040685Y034103*
X040645Y034199*
X040582Y034282*
X040499Y034345*
X04044Y03437*
Y034424*
X040502Y03445*
X040586Y034514*
X04065Y034598*
X040691Y034695*
X040705Y0348*
X040691Y034905*
X04065Y035002*
X040586Y035086*
X040502Y03515*
X040405Y035191*
X0403Y035205*
X040195Y035191*
X040098Y03515*
X040014Y035086*
X03995Y035002*
X039909Y034905*
X039895Y0348*
X039909Y034695*
X03995Y034598*
X040014Y034514*
X040098Y03445*
X04016Y034424*
Y03437*
X040101Y034345*
X040018Y034282*
X039955Y034199*
X039915Y034103*
X039901Y034*
X039915Y033897*
X039955Y033801*
X040018Y033718*
X040042Y0337*
X040025Y03365*
X039905*
Y032898*
Y032187*
Y032182*
X039899Y03218*
X039855Y032162*
X039808Y032208*
X039695Y032321*
Y032898*
Y03365*
X039575*
X039558Y0337*
X039582Y033718*
X039645Y033801*
X039685Y033897*
X039699Y034*
X039685Y034103*
X039645Y034199*
X039582Y034282*
X039499Y034345*
X03944Y03437*
Y034424*
X039502Y03445*
X039586Y034514*
X03965Y034598*
X039691Y034695*
X039705Y0348*
X039691Y034905*
X03965Y035002*
X039586Y035086*
X039502Y03515*
X039405Y035191*
X0393Y035205*
X039195Y035191*
X039098Y03515*
X039014Y035086*
X03895Y035002*
X038909Y034905*
X038895Y0348*
X038909Y034695*
X03895Y034598*
X039014Y034514*
X039098Y03445*
X03916Y034424*
Y03437*
X039101Y034345*
X039018Y034282*
X038955Y034199*
X038915Y034103*
X038901Y034*
X038915Y033897*
X038955Y033801*
X039018Y033718*
X039042Y0337*
X039025Y03365*
X038905*
Y032898*
Y03215*
X039433*
X039592Y031992*
X039992Y031592*
X040192Y031392*
X040392Y031192*
X040441Y031159*
X0405Y031147*
X040643*
X040691Y031144*
Y031097*
Y030853*
X039939*
Y031144*
X039613*
Y030749*
X039513*
Y031144*
X038439*
Y030904*
X038142*
X038082Y030982*
X037999Y031045*
X037903Y031085*
X0378Y031099*
X037697Y031085*
X037601Y031045*
X037518Y030982*
X037455Y030899*
X037415Y030803*
X037401Y0307*
X037415Y030597*
X037455Y030501*
X037518Y030418*
X037601Y030355*
X037697Y030315*
X0378Y030301*
X037903Y030315*
X037999Y030355*
X038082Y030418*
X038142Y030496*
X038439*
Y030354*
X03941*
Y029662*
X03936Y029645*
X03931Y02971*
X039219Y02978*
X039113Y029823*
X039Y029838*
X038887Y029823*
X038781Y02978*
X03869Y02971*
X03862Y029619*
X038577Y029513*
X038562Y0294*
X038577Y029287*
X03862Y029181*
X03869Y02909*
X038781Y02902*
X038887Y028977*
X039Y028962*
X039113Y028977*
X039219Y02902*
X03931Y02909*
X03936Y029155*
X03941Y029138*
Y027937*
X039422Y027878*
X039455Y027829*
X039585Y027699*
X039565Y027653*
X029395*
Y027854*
X02905*
Y027479*
X029*
Y027429*
X028605*
Y027103*
Y026355*
X028847*
Y025845*
X028605*
Y025094*
Y024346*
X028847*
Y023095*
X02865*
Y022305*
X028947*
Y02183*
X028918Y021808*
X028855Y021725*
X028815Y021629*
X028801Y021526*
X028815Y021423*
X028855Y021327*
X028918Y021244*
X029001Y021181*
X029097Y021141*
X0292Y021127*
X029303Y021141*
X029399Y021181*
X029482Y021244*
X029545Y021327*
X029585Y021423*
X029599Y021526*
X029585Y021629*
X029545Y021725*
X029482Y021808*
X029399Y021871*
X029303Y021911*
X029253Y021918*
Y022305*
X03015*
Y022547*
X030737*
X031443Y021841*
X031421Y021796*
X0314Y021799*
X031297Y021785*
X031201Y021745*
X031118Y021682*
X031055Y021599*
X031015Y021503*
X031001Y0214*
X031015Y021297*
X031055Y021201*
X031118Y021118*
X031201Y021055*
X031297Y021015*
X0314Y021001*
X031473Y021011*
X03215Y020333*
Y019705*
X033179*
X034769Y018114*
Y016132*
X033791Y015153*
X033364*
Y015426*
X032573*
Y014674*
Y01409*
X032137Y013653*
X030864*
X030845Y013699*
X030782Y013782*
X030699Y013845*
X030603Y013885*
X0305Y013899*
X030397Y013885*
X030301Y013845*
X030218Y013782*
X030155Y013699*
X030115Y013603*
X030101Y0135*
X030115Y013397*
X030134Y01335*
X028137Y011353*
X022963*
X022695Y011621*
Y012298*
Y012647*
X022905*
Y012298*
Y01155*
X023695*
Y011773*
X024026*
X024085Y011785*
X024134Y011818*
X02465Y012334*
X024697Y012315*
X0248Y012301*
X024903Y012315*
X024999Y012355*
X025082Y012418*
X025145Y012501*
X025185Y012597*
X025199Y0127*
X025185Y012803*
X025145Y012899*
X025082Y012982*
X024999Y013045*
X024903Y013085*
X0248Y013099*
X024697Y013085*
X024601Y013045*
X024518Y012982*
X024455Y012899*
X024415Y012803*
X024401Y0127*
X024415Y012597*
X024434Y01255*
X023963Y012079*
X023695*
Y012298*
Y012973*
X023745Y012997*
X023801Y012955*
X023897Y012915*
X024Y012901*
X024103Y012915*
X024199Y012955*
X024282Y013018*
X024345Y013101*
X024385Y013197*
X024399Y0133*
X024385Y013403*
X024345Y013499*
X024282Y013582*
X024199Y013645*
X024103Y013685*
X024Y013699*
X023897Y013685*
X023801Y013645*
X023718Y013582*
X023655Y013499*
X023636Y013453*
X021626*
X021567Y013441*
X021518Y013408*
X021159Y01305*
X020605*
Y012753*
X020364*
Y01305*
X019573*
Y012298*
Y012158*
X019364*
Y012298*
Y012624*
X018968*
Y012674*
X018918*
Y01305*
X018573*
Y012808*
X01811Y012345*
X018064Y012364*
Y01305*
X017821*
Y013122*
X017899Y013155*
X017982Y013218*
X018045Y013301*
X018085Y013397*
X018099Y0135*
X018085Y013603*
X018045Y013699*
X017982Y013782*
X017899Y013845*
X017897Y013846*
X017907Y013896*
X0241*
X024178Y013912*
X024244Y013956*
X024644Y014356*
X024688Y014422*
X024704Y0145*
Y017158*
X024782Y017218*
X024842Y017296*
X024905*
Y017098*
Y016776*
X0253*
X025695*
Y017098*
Y01785*
X024905*
Y017704*
X024842*
X024782Y017782*
X024699Y017845*
X024603Y017885*
X0245Y017899*
X024397Y017885*
X024301Y017845*
X024218Y017782*
X024155Y017699*
X024115Y017603*
X024101Y0175*
X024115Y017397*
X024155Y017301*
X024218Y017218*
X024296Y017158*
Y014584*
X024016Y014304*
X023395*
Y014543*
X0234Y014547*
X023459Y014559*
X023508Y014592*
X023908Y014992*
X023941Y015041*
X023953Y0151*
Y017837*
X024263Y018147*
X0251*
X025159Y018159*
X025208Y018192*
X025608Y018592*
X025641Y018641*
X025653Y0187*
Y019236*
X025699Y019255*
X025782Y019318*
X025845Y019401*
X025885Y019497*
X025899Y0196*
X025885Y019703*
X025845Y019799*
X025782Y019882*
X025699Y019945*
X025603Y019985*
X0255Y019999*
X025397Y019985*
X025301Y019945*
X025218Y019882*
X025155Y019799*
X025115Y019703*
X025101Y0196*
X025115Y019497*
X025155Y019401*
X025218Y019318*
X025301Y019255*
X025347Y019236*
Y018763*
X025037Y018453*
X0242*
X024141Y018441*
X024092Y018408*
X023692Y018008*
X023659Y017959*
X023647Y0179*
Y015163*
X023441Y014958*
X023395Y014977*
Y01575*
X023153*
Y016426*
X023364*
Y017174*
Y017926*
X023105*
Y018858*
X023149Y01888*
X023177Y018859*
X023277Y018817*
X023386Y018803*
X023494Y018817*
X023595Y018859*
X023682Y018925*
X023748Y019012*
X02379Y019113*
X023804Y019221*
Y019379*
X02379Y019487*
X023748Y019588*
X023682Y019675*
X023595Y019741*
X023494Y019783*
X023386Y019797*
X023277Y019783*
X023177Y019741*
X023152Y019722*
X023109Y019743*
X023105Y019789*
X023327Y020011*
X0234Y020001*
X023503Y020015*
X023599Y020055*
X023682Y020118*
X023745Y020201*
X023785Y020297*
X023799Y0204*
X023785Y020503*
X023745Y020599*
X023682Y020682*
X023599Y020745*
X023503Y020785*
X0234Y020799*
X023297Y020785*
X023201Y020745*
X023118Y020682*
X023055Y020599*
X023015Y020503*
X023001Y0204*
X023015Y020297*
X023055Y020201*
X023068Y020184*
X022843Y01996*
X02281Y01991*
X022799Y019852*
Y019794*
X021971*
Y018806*
X022799*
Y017926*
X022627*
X022594Y017963*
X022599Y018*
X022585Y018103*
X022545Y018199*
X022482Y018282*
X022399Y018345*
X022303Y018385*
X0222Y018399*
X022097Y018385*
X022001Y018345*
X021918Y018282*
X021855Y018199*
X021815Y018103*
X021801Y018*
X021815Y017897*
X021855Y017801*
X021918Y017718*
X022001Y017655*
X022047Y017636*
Y0171*
X022059Y017041*
X022092Y016992*
X022421Y016662*
X022471Y016629*
X02253Y016618*
X022573*
Y016426*
X022847*
Y01575*
X022605*
Y014998*
Y014304*
X020886*
X020866Y01435*
X021179Y014663*
X021212Y014712*
X021224Y014771*
Y015885*
X02186*
Y016715*
X02122*
Y017205*
X021208Y017264*
X021175Y017313*
X020453Y018035*
Y01865*
X020695*
Y019398*
Y019547*
X021*
X021059Y019559*
X021108Y019592*
X021763Y020247*
X022036*
X022055Y020201*
X022118Y020118*
X022201Y020055*
X022297Y020015*
X0224Y020001*
X022503Y020015*
X022599Y020055*
X022682Y020118*
X022745Y020201*
X022785Y020297*
X022799Y0204*
X022785Y020503*
X022745Y020599*
X022682Y020682*
X022599Y020745*
X022503Y020785*
X0224Y020799*
X022297Y020785*
X022201Y020745*
X022118Y020682*
X022055Y020599*
X022036Y020553*
X0217*
X021641Y020541*
X021592Y020508*
X020937Y019853*
X020695*
Y02015*
X019905*
Y019398*
Y019267*
X019855Y019262*
X019629Y019488*
Y021385*
X019755Y021511*
X019805Y02149*
Y021398*
Y02065*
X020595*
Y020947*
X0219*
X021959Y020959*
X022008Y020992*
X02225Y021234*
X022297Y021215*
X0224Y021201*
X022503Y021215*
X022599Y021255*
X022682Y021318*
X022745Y021401*
X022785Y021497*
X022799Y0216*
X022785Y021703*
X022745Y021799*
X022682Y021882*
X022599Y021945*
X022503Y021985*
X0224Y021999*
X022297Y021985*
X022201Y021945*
X022118Y021882*
X022055Y021799*
X022015Y021703*
X022001Y0216*
X022015Y021497*
X022034Y02145*
X021837Y021253*
X020595*
Y021398*
Y02215*
X020353*
Y02255*
X020631*
Y023298*
Y023447*
X0216*
X021659Y023459*
X021708Y023492*
X02225Y024034*
X022297Y024015*
X0224Y024001*
X022503Y024015*
X022599Y024055*
X022682Y024118*
X022745Y024201*
X022785Y024297*
X022799Y0244*
X022785Y024503*
X022745Y024599*
X022682Y024682*
X022645Y02471*
X022662Y02476*
X023005*
X023024Y024714*
X023087Y024631*
X02317Y024568*
X023266Y024528*
X023369Y024514*
X023472Y024528*
X023569Y024568*
X023651Y024631*
X023714Y024714*
X023754Y02481*
X023768Y024913*
X023754Y025016*
X023714Y025112*
X023651Y025195*
X023569Y025258*
X023472Y025298*
X023369Y025312*
X023266Y025298*
X02317Y025258*
X023087Y025195*
X023024Y025112*
X023005Y025066*
X020595*
Y025385*
X025039*
X025099Y025307*
X025181Y025244*
X025278Y025204*
X025381Y02519*
X025484Y025204*
X02558Y025244*
X025663Y025307*
X025726Y02539*
X025766Y025486*
X02578Y025589*
X025766Y025692*
X025726Y025788*
X025663Y025871*
X02558Y025934*
X025484Y025974*
X025381Y025988*
X025278Y025974*
X025181Y025934*
X025099Y025871*
X025039Y025793*
X020595*
Y02595*
X020198*
X020193Y025973*
X020149Y026039*
X017244Y028944*
X017178Y028988*
X0171Y029004*
X0159*
X015822Y028988*
X015756Y028944*
X014661Y02785*
X013905*
Y027098*
Y02635*
X014695*
Y026779*
X016163Y028247*
X016837*
X017111Y027973*
X017055Y027899*
X017015Y027803*
X017001Y0277*
X017015Y027597*
X017055Y027501*
X017118Y027418*
X017201Y027355*
X017297Y027315*
X0174Y027301*
X017503Y027315*
X017599Y027355*
X017682Y027418*
X017745Y027501*
X017785Y027597*
X017799Y0277*
X017792Y027749*
X01784Y027772*
X019801Y025811*
Y02575*
X019805Y02573*
Y025198*
Y02445*
X020595*
Y02476*
X022138*
X022155Y02471*
X022118Y024682*
X022055Y024599*
X022015Y024503*
X022001Y0244*
X022015Y024297*
X022034Y02425*
X021537Y023753*
X020631*
Y02405*
X019841*
Y023298*
Y02255*
X020047*
Y02215*
X019805*
Y021848*
X019723*
X019664Y021837*
X019615Y021803*
X019367Y021556*
X019334Y021506*
X019323Y021448*
Y019424*
X019334Y019366*
X019367Y019316*
X019692Y018992*
X019741Y018959*
X0198Y018947*
X019824Y018952*
X019905*
Y01865*
X020147*
Y017972*
X020159Y017913*
X020192Y017864*
X020914Y017142*
Y016715*
X020282*
Y015885*
X020918*
Y014834*
X020637Y014553*
X0159*
X015841Y014541*
X015792Y014508*
X014792Y013508*
X014759Y013459*
X014747Y0134*
Y01305*
X014505*
Y012298*
Y012204*
X014295*
Y012298*
Y01305*
X014053*
Y015861*
X014072Y015903*
X014103*
X014865*
Y016697*
X014103*
X014072*
X014053Y016739*
Y017521*
X014103Y017538*
X014118Y017518*
X014201Y017455*
X014297Y017415*
X0144Y017401*
X014503Y017415*
X014599Y017455*
X014682Y017518*
X014745Y017601*
X014785Y017697*
X014799Y0178*
X014789Y017873*
X014908Y017992*
X014941Y018041*
X014953Y0181*
Y0194*
X014941Y019459*
X014908Y019508*
X014726Y01969*
Y020113*
X013935*
Y019546*
X013889Y019527*
X013853Y019563*
Y020937*
X013889Y020973*
X013935Y020954*
Y020385*
X014726*
Y020621*
X015674*
X015732Y020632*
X015782Y020666*
X01625Y021134*
X016297Y021115*
X0164Y021101*
X016503Y021115*
X016599Y021155*
X016682Y021218*
X016745Y021301*
X016785Y021397*
X016799Y0215*
X016785Y021603*
X016745Y021699*
X016682Y021782*
X016599Y021845*
X016503Y021885*
X0164Y021899*
X016297Y021885*
X016201Y021845*
X016118Y021782*
X016055Y021699*
X016015Y021603*
X016001Y0215*
X016015Y021397*
X016034Y02135*
X01561Y020927*
X014726*
Y021133*
Y021884*
X014484*
Y02225*
X014695*
Y022998*
Y023179*
X01635Y024834*
X016397Y024815*
X0165Y024801*
X016603Y024815*
X016699Y024855*
X016782Y024918*
X016845Y025001*
X016885Y025097*
X016899Y0252*
X016885Y025303*
X016845Y025399*
X016782Y025482*
X016699Y025545*
X016603Y025585*
X0165Y025599*
X016397Y025585*
X016301Y025545*
X016218Y025482*
X016155Y025399*
X016115Y025303*
X016101Y0252*
X016115Y025097*
X016134Y02505*
X014741Y023658*
X014695Y023677*
Y02375*
X013953*
Y024437*
X013967Y02445*
X014695*
Y025198*
Y025674*
X016354Y027333*
X016397Y027315*
X0165Y027301*
X016603Y027315*
X016699Y027355*
X016782Y027418*
X016845Y027501*
X016885Y027597*
X016899Y0277*
X016885Y027803*
X016845Y027899*
X016782Y027982*
X016699Y028045*
X016603Y028085*
X0165Y028099*
X016397Y028085*
X016301Y028045*
X016218Y027982*
X016155Y027899*
X016115Y027803*
X016101Y0277*
X016115Y027597*
X016135Y027547*
X014538Y02595*
X013905*
Y025198*
Y024821*
X013692Y024608*
X013659Y024559*
X013647Y0245*
Y023*
X013659Y022941*
X013692Y022892*
X013905Y022679*
Y02225*
X014178*
Y021884*
X013935*
Y021452*
X013592Y021108*
X013559Y021059*
X013547Y021*
Y0195*
X013559Y019441*
X013592Y019392*
X013935Y019048*
Y018613*
X014032*
X014051Y018567*
X013792Y018308*
X013759Y018259*
X013747Y0182*
Y01305*
X013505*
Y012298*
Y01155*
X014295*
Y011796*
X014505*
Y01155*
X015295*
Y011937*
X015325Y011957*
X015655Y012287*
X015705Y012266*
Y01155*
X016495*
Y011847*
X016569*
X016627Y011859*
X016677Y011892*
X017223Y012438*
X017273Y012432*
Y012298*
Y011976*
X017668*
Y011926*
X017718*
Y01155*
X018064*
Y011866*
X018527Y012329*
X018573Y01231*
Y01155*
X019364*
Y011852*
X019573*
Y01155*
X020364*
Y012298*
Y012447*
X020605*
Y012298*
Y01155*
X021395*
Y011863*
X021708Y012176*
X021859Y012326*
X021905Y012307*
Y01155*
X022333*
X022792Y011092*
X022841Y011059*
X0229Y011047*
X0282*
X028259Y011059*
X028308Y011092*
X03035Y013134*
X030397Y013115*
X0305Y013101*
X030603Y013115*
X030699Y013155*
X030782Y013218*
X030845Y013301*
X030864Y013347*
X0322*
X032259Y013359*
X032308Y013392*
X032843Y013926*
X033364*
Y014674*
Y014847*
X033854*
X033913Y014859*
X033962Y014892*
X035031Y01596*
X035064Y01601*
X035075Y016068*
Y018178*
X035064Y018236*
X035031Y018286*
X033662Y019655*
X033682Y019705*
X0337*
X03515*
Y020233*
X035787Y020871*
X035833Y020851*
Y020165*
X036604*
Y020935*
X035917*
X035898Y020982*
X038863Y023947*
X039936*
X039955Y023901*
X040018Y023818*
X040101Y023755*
X040197Y023715*
X0403Y023701*
X040403Y023715*
X040499Y023755*
X040582Y023818*
X040645Y023901*
X040664Y023947*
X041101*
Y023732*
X041891*
Y02448*
Y025231*
X041653*
Y025736*
X041699Y025755*
X041782Y025818*
X041845Y025901*
X041885Y025997*
X041899Y0261*
X041885Y026203*
X041845Y026299*
X041782Y026382*
X041699Y026445*
X041603Y026485*
X041546Y026493*
X041534Y026519*
X041532Y026545*
X041534Y026547*
X041837*
X042947Y025437*
Y025231*
X042676*
Y024905*
X043466*
Y025231*
X043253*
Y0255*
X043241Y025559*
X043208Y025608*
X042008Y026808*
X041959Y026841*
X0419Y026853*
X040863*
X040366Y02735*
X040385Y027397*
X040392Y02745*
X04005*
Y027108*
X040103Y027115*
X04015Y027134*
X040692Y026592*
X040741Y026559*
X0408Y026547*
X041466*
X041468Y026545*
X041466Y026519*
X041454Y026493*
X041397Y026485*
X041301Y026445*
X041218Y026382*
X041155Y026299*
X041115Y026203*
X041101Y0261*
X041115Y025997*
X041155Y025901*
X041218Y025818*
X041301Y025755*
X041347Y025736*
Y025231*
X041101*
Y024929*
X040674*
X040645Y024999*
X040582Y025082*
X040499Y025145*
X040403Y025185*
X0403Y025199*
X040197Y025185*
X040101Y025145*
X040018Y025082*
X039955Y024999*
X039915Y024903*
X039901Y0248*
X039915Y024697*
X039955Y024601*
X040018Y024518*
X040066Y024482*
Y024418*
X040018Y024382*
X039955Y024299*
X039936Y024253*
X0388*
X038741Y024241*
X038692Y024208*
X034979Y020495*
X034577*
X034558Y020541*
X035108Y021092*
X035141Y021141*
X035153Y0212*
Y023936*
X035199Y023955*
X035282Y024018*
X035345Y024101*
X035385Y024197*
X035399Y0243*
X035385Y024403*
X035345Y024499*
X035282Y024582*
X035199Y024645*
X035103Y024685*
X035Y024699*
X034897Y024685*
X034801Y024645*
X034718Y024582*
X034655Y024499*
X034615Y024403*
X034601Y0243*
X034615Y024197*
X034655Y024101*
X034718Y024018*
X034801Y023955*
X034847Y023936*
Y021263*
X034079Y020495*
X0337*
X03365*
X0336*
X033221*
X030908Y022808*
X030859Y022841*
X0308Y022853*
X03015*
Y023095*
X029153*
Y024346*
X029395*
Y025094*
Y025845*
X029153*
Y026355*
X029395*
Y027103*
Y027347*
X039636*
X039655Y027301*
X039718Y027218*
X039801Y027155*
X039897Y027115*
X03995Y027108*
Y0275*
Y027892*
X039897Y027885*
X03985Y027866*
X039716Y028*
Y029014*
X039761Y029036*
X039781Y02902*
X039887Y028977*
X03995Y028968*
Y0294*
Y029832*
X039887Y029823*
X039781Y02978*
X039761Y029764*
X039716Y029786*
Y030354*
X039939*
Y030547*
X040691*
Y030354*
X041017*
Y030749*
X041117*
Y030354*
X041596*
Y028384*
X041097Y027886*
X041Y027899*
X040897Y027885*
X040801Y027845*
X040718Y027782*
X040655Y027699*
X040615Y027603*
X040601Y0275*
X040615Y027397*
X040655Y027301*
X040718Y027218*
X040801Y027155*
X040897Y027115*
X041Y027101*
X041103Y027115*
X041199Y027155*
X041282Y027218*
X041345Y027301*
X041385Y027397*
X041399Y0275*
X041386Y027597*
X041944Y028156*
X041988Y028222*
X042004Y0283*
Y030354*
X042191*
Y031144*
X042239Y031147*
X045391*
X045439Y031144*
Y031097*
Y030902*
X04475*
Y030995*
X044424*
Y0306*
Y030205*
X04475*
Y030596*
X045439*
Y030354*
X045765*
Y030749*
X045865*
Y030354*
X046396*
Y029835*
X045565*
Y028965*
X046396*
Y028184*
X046097Y027886*
X046Y027899*
X045897Y027885*
X045801Y027845*
X045718Y027782*
X045655Y027699*
X045615Y027603*
X045601Y0275*
X045615Y027397*
X045655Y027301*
X045718Y027218*
X045801Y027155*
X045897Y027115*
X046Y027101*
X046103Y027115*
X046199Y027155*
X046282Y027218*
X046345Y027301*
X046385Y027397*
X046399Y0275*
X046386Y027597*
X046744Y027956*
X046788Y028022*
X046804Y0281*
Y030354*
X046939*
Y031144*
X046987Y031147*
X047036*
X047055Y031101*
X047118Y031018*
X047201Y030955*
X047297Y030915*
X0474Y030901*
X047503Y030915*
X047599Y030955*
X047682Y031018*
X047745Y031101*
X047785Y031197*
X047799Y0313*
X047785Y031403*
X047745Y031499*
X047682Y031582*
X047662Y031597*
X047679Y031647*
X056237*
X059292Y028592*
X059341Y028559*
X0594Y028547*
X061521*
X061531Y028497*
X061506Y028487*
X061425Y028425*
X061363Y028344*
X061324Y028251*
X061311Y02815*
X061324Y028049*
X061363Y027956*
X061425Y027875*
X061506Y027813*
X061599Y027774*
X0617Y027761*
X061801Y027774*
X061894Y027813*
X061975Y027875*
X062037Y027956*
X062076Y028049*
X062089Y02815*
X062076Y028251*
X062037Y028344*
X061975Y028425*
X061894Y028487*
X061869Y028497*
X061879Y028547*
X064521*
X064531Y028497*
X064506Y028487*
X064425Y028425*
X064363Y028344*
X064324Y028251*
X064311Y02815*
X064324Y028049*
X064363Y027956*
X064425Y027875*
X064506Y027813*
X064599Y027774*
X0647Y027761*
X064801Y027774*
X064894Y027813*
X064975Y027875*
X065037Y027956*
X065076Y028049*
X065089Y02815*
X065076Y028251*
X065037Y028344*
X064975Y028425*
X064894Y028487*
X064869Y028497*
X064879Y028547*
X064937*
X065234Y02825*
X065215Y028203*
X065201Y0281*
X065215Y027997*
X065255Y027901*
X065318Y027818*
X065401Y027755*
X065497Y027715*
X0656Y027701*
X065703Y027715*
X065799Y027755*
X065882Y027818*
X065945Y027901*
X065985Y027997*
X065999Y0281*
X065985Y028203*
X065945Y028299*
X065882Y028382*
X065799Y028445*
X065703Y028485*
X0656Y028499*
X065497Y028485*
X06545Y028466*
X065108Y028808*
X065059Y028841*
X065018Y028849*
X064997Y02889*
X064996Y028903*
X065037Y028956*
X065076Y029049*
X065089Y02915*
X065076Y029251*
X065037Y029344*
X064996Y029397*
X065021Y029447*
X065321*
X065338Y029397*
X065318Y029382*
X065255Y029299*
X065215Y029203*
X065201Y0291*
X065215Y028997*
X065255Y028901*
X065318Y028818*
X065401Y028755*
X065497Y028715*
X0656Y028701*
X065703Y028715*
X06575Y028734*
X066805Y027679*
Y027421*
X065737Y026353*
X061463*
X060095Y027721*
Y02815*
X059305*
Y027398*
Y027253*
X058395*
Y027398*
Y02815*
X058153*
Y028336*
X058199Y028355*
X058282Y028418*
X058345Y028501*
X058385Y028597*
X058399Y0287*
X058385Y028803*
X058345Y028899*
X058282Y028982*
X058199Y029045*
X058103Y029085*
X058Y029099*
X057897Y029085*
X057801Y029045*
X057718Y028982*
X057655Y028899*
X057615Y028803*
X057601Y0287*
X057615Y028597*
X057655Y028501*
X057718Y028418*
X057801Y028355*
X057847Y028336*
Y02815*
X057605*
Y027577*
X057559Y027558*
X057089Y028027*
X057099Y0281*
X057085Y028203*
X057045Y028299*
X056982Y028382*
X056899Y028445*
X056803Y028485*
X0567Y028499*
X056597Y028485*
X056501Y028445*
X056418Y028382*
X056355Y028299*
X056315Y028203*
X056301Y0281*
X056315Y027997*
X056355Y027901*
X056418Y027818*
X056501Y027755*
X056597Y027715*
X0567Y027701*
X056803Y027715*
X056899Y027755*
X056916Y027768*
X057605Y027079*
Y02665*
X058395*
Y026947*
X059305*
Y02665*
X059547*
Y0247*
X059559Y024641*
X059592Y024592*
X061892Y022292*
X061941Y022259*
X062Y022247*
X064336*
X064355Y022201*
X064418Y022118*
X064501Y022055*
X064597Y022015*
X0647Y022001*
X064803Y022015*
X064899Y022055*
X064982Y022118*
X065045Y022201*
X065085Y022297*
X065099Y0224*
X065085Y022503*
X065068Y022545*
X06511Y022574*
X067047Y020637*
Y020254*
X066805*
Y019527*
X066755Y019503*
X066699Y019545*
X066603Y019585*
X0665Y019599*
X066397Y019585*
X066301Y019545*
X066218Y019482*
X066155Y019399*
X066115Y019303*
X066101Y0192*
X066115Y019097*
X066155Y019001*
X066218Y018918*
X066301Y018855*
X066397Y018815*
X0665Y018801*
X066603Y018815*
X066699Y018855*
X066755Y018897*
X066805Y018873*
Y018755*
X067595*
Y018993*
X067639Y019023*
X068108Y019492*
X068141Y019541*
X068153Y0196*
Y023236*
X068199Y023255*
X068282Y023318*
X068345Y023401*
X068364Y023447*
X069*
X069059Y023459*
X069108Y023492*
X069208Y023592*
X069808Y024192*
X069841Y024241*
X069853Y0243*
Y025932*
Y02635*
X070095*
Y027098*
Y02785*
X069305*
Y027553*
X068845*
Y027774*
X068143*
X066912Y029004*
X066931Y02905*
X06715*
Y029376*
X066805*
Y029177*
X066759Y029158*
X066208Y029708*
X066159Y029741*
X0661Y029753*
X065879*
X065862Y029803*
X065882Y029818*
X065942Y029896*
X066805*
Y029476*
X0672*
X067595*
Y029798*
Y03055*
X066805*
Y030304*
X065942*
X065882Y030382*
X065799Y030445*
X065703Y030485*
X0656Y030499*
X065497Y030485*
X065401Y030445*
X065318Y030382*
X065255Y030299*
X065215Y030203*
X065201Y0301*
X065215Y029997*
X065255Y029901*
X065318Y029818*
X065338Y029803*
X065321Y029753*
X064879*
X064869Y029803*
X064894Y029813*
X064975Y029875*
X065037Y029956*
X065076Y030049*
X065089Y03015*
X065076Y030251*
X065037Y030344*
X064975Y030425*
X064894Y030487*
X064801Y030526*
X0647Y030539*
X064599Y030526*
X064506Y030487*
X064425Y030425*
X064363Y030344*
X064324Y030251*
X064311Y03015*
X064324Y030049*
X064363Y029956*
X064425Y029875*
X064506Y029813*
X064531Y029803*
X064521Y029753*
X061879*
X061869Y029803*
X061894Y029813*
X061975Y029875*
X062037Y029956*
X062076Y030049*
X062089Y03015*
X062076Y030251*
X062037Y030344*
X061975Y030425*
X061894Y030487*
X061801Y030526*
X0617Y030539*
X061599Y030526*
X061506Y030487*
X061425Y030425*
X061363Y030344*
X061324Y030251*
X061311Y03015*
X061324Y030049*
X061363Y029956*
X061425Y029875*
X061506Y029813*
X061531Y029803*
X061521Y029753*
X061*
X060941Y029741*
X060892Y029708*
X06075Y029566*
X060703Y029585*
X0606Y029599*
X060497Y029585*
X060401Y029545*
X060318Y029482*
X060255Y029399*
X060215Y029303*
X060201Y0292*
X060215Y029097*
X060255Y029001*
X060318Y028918*
X060338Y028903*
X060321Y028853*
X059463*
X059412Y028904*
X059431Y02895*
X05965*
Y029276*
X059305*
Y029077*
X059259Y029058*
X056408Y031908*
X056359Y031941*
X0563Y031953*
X041168*
X041017Y032104*
X041036Y03215*
X041695*
Y032347*
X05*
X050059Y032359*
X050108Y032392*
X053363Y035647*
X054951*
X054975Y035607*
X054976Y035597*
X054928Y035591*
X054896Y035587*
X0548Y035547*
X054717Y035483*
X054653Y0354*
X054613Y035304*
X054606Y03525*
X055*
X055394*
X055387Y035304*
X055347Y0354*
X055283Y035483*
X0552Y035547*
X055104Y035587*
X055072Y035591*
X055024Y035597*
X055025Y035607*
X055049Y035647*
X063236*
X063255Y035601*
X063318Y035518*
X063401Y035455*
X063497Y035415*
X0636Y035401*
X063703Y035415*
X063799Y035455*
X063882Y035518*
X063945Y035601*
X063973Y035667*
X064027*
X064055Y035601*
X064118Y035518*
X064201Y035455*
X064247Y035436*
Y035095*
X06385*
Y034803*
X062495*
Y035045*
X060996*
Y034753*
X0609*
X060841Y034741*
X060792Y034708*
X060392Y034308*
X060359Y034259*
X060347Y0342*
Y033564*
X060301Y033545*
X060218Y033482*
X060155Y033399*
X060115Y033303*
X060101Y0332*
X060115Y033097*
X060155Y033001*
X060218Y032918*
X060301Y032855*
X060347Y032836*
Y032263*
X060141Y032058*
X060095Y032077*
Y03265*
X059462*
X058803Y033308*
X058754Y033341*
X058695Y033353*
X057564*
X057545Y033399*
X057482Y033482*
X057399Y033545*
X057303Y033585*
X0572Y033599*
X057097Y033585*
X057001Y033545*
X056918Y033482*
X056855Y033399*
X056815Y033303*
X056801Y0332*
X056815Y033097*
X056855Y033001*
X056918Y032918*
X057001Y032855*
X057097Y032815*
X0572Y032801*
X057303Y032815*
X057399Y032855*
X057482Y032918*
X057545Y033001*
X057564Y033047*
X058632*
X059305Y032374*
Y031898*
Y03115*
X060095*
Y031579*
X060608Y032092*
X060641Y032141*
X060653Y0322*
Y032836*
X060699Y032855*
X060782Y032918*
X060845Y033001*
X060885Y033097*
X060899Y0332*
X060885Y033303*
X060845Y033399*
X060782Y033482*
X060699Y033545*
X060653Y033564*
Y034137*
X060946Y034429*
X060996Y034409*
Y034255*
X061429*
X061892Y033792*
X061941Y033759*
X062Y033747*
X066136*
X066155Y033701*
X066218Y033618*
X066301Y033555*
X066397Y033515*
X0665Y033501*
X066603Y033515*
X066699Y033555*
X066782Y033618*
X066845Y033701*
X066885Y033797*
X066899Y0339*
X066885Y034003*
X066845Y034099*
X066782Y034182*
X066699Y034245*
X066603Y034285*
X0665Y034299*
X066397Y034285*
X066301Y034245*
X066218Y034182*
X066155Y034099*
X066136Y034053*
X062063*
X061908Y034209*
X061927Y034255*
X062495*
Y034497*
X06385*
Y034305*
X064924*
Y0347*
Y035095*
X064553*
Y035436*
X064599Y035455*
X064682Y035518*
X064745Y035601*
X064785Y035697*
X064799Y0358*
X064785Y035903*
X064745Y035999*
X064682Y036082*
X064599Y036145*
X064503Y036185*
X0644Y036199*
G37*
G36*
X04335Y036198D02*
Y03585D01*
X043698*
X043691Y035905*
X04365Y036002*
X043586Y036086*
X043502Y03615*
X043405Y036191*
X04335Y036198*
G37*
G36*
X04435D02*
Y03585D01*
X044698*
X044691Y035905*
X04465Y036002*
X044586Y036086*
X044502Y03615*
X044405Y036191*
X04435Y036198*
G37*
G36*
X04425D02*
X044195Y036191D01*
X044098Y03615*
X044014Y036086*
X04395Y036002*
X043909Y035905*
X043902Y03585*
X04425*
Y036198*
G37*
G36*
X04325D02*
X043195Y036191D01*
X043098Y03615*
X043014Y036086*
X04295Y036002*
X042909Y035905*
X042902Y03585*
X04325*
Y036198*
G37*
G36*
X044698Y03575D02*
X04435D01*
Y035402*
X044405Y035409*
X044502Y03545*
X044586Y035514*
X04465Y035598*
X044691Y035695*
X044698Y03575*
G37*
G36*
X043698D02*
X04335D01*
Y035402*
X043405Y035409*
X043502Y03545*
X043586Y035514*
X04365Y035598*
X043691Y035695*
X043698Y03575*
G37*
G36*
X04425D02*
X043902D01*
X043909Y035695*
X04395Y035598*
X044014Y035514*
X044098Y03545*
X044195Y035409*
X04425Y035402*
Y03575*
G37*
G36*
X04325D02*
X042902D01*
X042909Y035695*
X04295Y035598*
X043014Y035514*
X043098Y03545*
X043195Y035409*
X04325Y035402*
Y03575*
G37*
G36*
X039701Y036201D02*
X038899D01*
Y035399*
X039701*
Y036201*
G37*
G36*
X0453Y036205D02*
X045195Y036191D01*
X045098Y03615*
X045014Y036086*
X04495Y036002*
X044909Y035905*
X044895Y0358*
X044909Y035695*
X04495Y035598*
X045014Y035514*
X045098Y03545*
X045195Y035409*
X0453Y035395*
X045405Y035409*
X045502Y03545*
X045586Y035514*
X04565Y035598*
X045691Y035695*
X045705Y0358*
X045691Y035905*
X04565Y036002*
X045586Y036086*
X045502Y03615*
X045405Y036191*
X0453Y036205*
G37*
G36*
X0423D02*
X042195Y036191D01*
X042098Y03615*
X042014Y036086*
X04195Y036002*
X041909Y035905*
X041895Y0358*
X041909Y035695*
X04195Y035598*
X042014Y035514*
X042098Y03545*
X042195Y035409*
X0423Y035395*
X042405Y035409*
X042502Y03545*
X042586Y035514*
X04265Y035598*
X042691Y035695*
X042705Y0358*
X042691Y035905*
X04265Y036002*
X042586Y036086*
X042502Y03615*
X042405Y036191*
X0423Y036205*
G37*
G36*
X0413D02*
X041195Y036191D01*
X041098Y03615*
X041014Y036086*
X04095Y036002*
X040909Y035905*
X040895Y0358*
X040909Y035695*
X04095Y035598*
X041014Y035514*
X041098Y03545*
X041195Y035409*
X0413Y035395*
X041405Y035409*
X041502Y03545*
X041586Y035514*
X04165Y035598*
X041691Y035695*
X041705Y0358*
X041691Y035905*
X04165Y036002*
X041586Y036086*
X041502Y03615*
X041405Y036191*
X0413Y036205*
G37*
G36*
X0403D02*
X040195Y036191D01*
X040098Y03615*
X040014Y036086*
X03995Y036002*
X039909Y035905*
X039895Y0358*
X039909Y035695*
X03995Y035598*
X040014Y035514*
X040098Y03545*
X040195Y035409*
X0403Y035395*
X040405Y035409*
X040502Y03545*
X040586Y035514*
X04065Y035598*
X040691Y035695*
X040705Y0358*
X040691Y035905*
X04065Y036002*
X040586Y036086*
X040502Y03615*
X040405Y036191*
X0403Y036205*
G37*
G36*
X0255Y035299D02*
X025397Y035285D01*
X025301Y035245*
X025218Y035182*
X025155Y035099*
X025136Y035053*
X021895*
Y035211*
X021065*
Y033633*
X021895*
Y034747*
X025136*
X025155Y034701*
X025218Y034618*
X025301Y034555*
X025367Y034527*
Y034473*
X025301Y034445*
X025218Y034382*
X025155Y034299*
X025136Y034253*
X023245*
X023186Y034241*
X023136Y034208*
X022381Y033453*
X020855*
X019778Y03453*
X019728Y034563*
X01967Y034575*
X017895*
Y035211*
X017065*
Y033633*
X017895*
Y034269*
X019606*
X020683Y033192*
X020733Y033159*
X020792Y033147*
X022445*
X022503Y033159*
X022553Y033192*
X0233Y03394*
X02335Y033929*
Y033205*
X023547*
Y032695*
X023376*
Y03237*
X021895*
Y033006*
X021065*
Y031428*
X021327*
Y03055*
X021105*
Y030248*
X018895*
Y03055*
X018653*
Y030736*
X018699Y030755*
X018782Y030818*
X018845Y030901*
X018885Y030997*
X018899Y0311*
X018885Y031203*
X018845Y031299*
X018782Y031382*
X018699Y031445*
X018603Y031485*
X0185Y031499*
X018397Y031485*
X018301Y031445*
X018218Y031382*
X018155Y031299*
X018115Y031203*
X018101Y0311*
X018115Y030997*
X018155Y030901*
X018218Y030818*
X018301Y030755*
X018347Y030736*
Y03055*
X018105*
Y029877*
X018059Y029858*
X017653Y030263*
Y031428*
X017895*
Y033006*
X017065*
Y032075*
X015356*
Y032317*
X015133*
Y034405*
X01535*
Y035195*
X014276*
Y0348*
X014176*
Y035195*
X01385*
Y034953*
X013664*
X013645Y034999*
X013582Y035082*
X013499Y035145*
X013403Y035185*
X01335Y035192*
Y0348*
Y034408*
X013403Y034415*
X013499Y034455*
X013582Y034518*
X013645Y034601*
X013664Y034647*
X01385*
Y034405*
X014247*
Y032317*
X013857*
Y031972*
X014232*
Y031922*
X014282*
Y031527*
X015356*
Y031769*
X017065*
Y031428*
X017347*
Y0302*
X017359Y030141*
X017392Y030092*
X018105Y029379*
Y02905*
X018895*
Y029273*
X021105*
Y02905*
X021895*
Y029352*
X023032*
X024034Y02835*
X024015Y028303*
X024001Y0282*
X024015Y028097*
X024055Y028001*
X024118Y027918*
X024201Y027855*
X024297Y027815*
X0244Y027801*
X024503Y027815*
X024599Y027855*
X024682Y027918*
X024745Y028001*
X024785Y028097*
X024799Y0282*
X024785Y028303*
X024745Y028399*
X024682Y028482*
X024599Y028545*
X024503Y028585*
X0244Y028599*
X024297Y028585*
X02425Y028566*
X023203Y029613*
X023154Y029646*
X023095Y029658*
X021895*
Y029798*
Y03055*
X021633*
Y031428*
X021895*
Y032064*
X023376*
Y031905*
X02445*
Y0323*
X02455*
Y031905*
X024876*
Y032147*
X025136*
X025155Y032101*
X025218Y032018*
X025301Y031955*
X025347Y031936*
Y0311*
X025359Y031041*
X025392Y030992*
X027534Y028849*
Y028594*
X027194*
Y02815*
X027687*
Y0281*
X027737*
Y027606*
X028181*
Y027947*
X028315*
X028605Y027658*
Y027529*
X02895*
Y027854*
X028841*
X028487Y028208*
X028437Y028241*
X028379Y028253*
X028181*
Y028594*
X02784*
Y028913*
X027829Y028971*
X027796Y029021*
X025653Y031163*
Y031936*
X025699Y031955*
X025782Y032018*
X025845Y032101*
X025885Y032197*
X025892Y03225*
X0255*
Y0323*
X02545*
Y032692*
X025397Y032685*
X025301Y032645*
X025218Y032582*
X025155Y032499*
X025136Y032453*
X024876*
Y032695*
X024653*
Y033205*
X02485*
Y033421*
X025063*
X025134Y03335*
X025115Y033303*
X025108Y03325*
X02545*
Y033592*
X025397Y033585*
X02535Y033566*
X025234Y033682*
X025185Y033715*
X025126Y033727*
X02485*
Y033947*
X025136*
X025155Y033901*
X025218Y033818*
X025301Y033755*
X025397Y033715*
X0255Y033701*
X025603Y033715*
X025699Y033755*
X025782Y033818*
X025845Y033901*
X025885Y033997*
X025899Y0341*
X025885Y034203*
X025845Y034299*
X025782Y034382*
X025699Y034445*
X025633Y034473*
Y034527*
X025699Y034555*
X025782Y034618*
X025845Y034701*
X025885Y034797*
X025899Y0349*
X025885Y035003*
X025845Y035099*
X025782Y035182*
X025699Y035245*
X025603Y035285*
X0255Y035299*
G37*
G36*
X068597Y035397D02*
X06825D01*
Y03505*
X068597*
Y035397*
G37*
G36*
X06815D02*
X067803D01*
Y03505*
X06815*
Y035397*
G37*
G36*
X06645Y035292D02*
X066397Y035285D01*
X066301Y035245*
X066218Y035182*
X066155Y035099*
X066115Y035003*
X066108Y034953*
X06535*
Y035095*
X065024*
Y0347*
Y034305*
X06535*
Y034647*
X066196*
X066218Y034618*
X066301Y034555*
X066397Y034515*
X06645Y034508*
Y0349*
Y035292*
G37*
G36*
X06655D02*
Y03495D01*
X066892*
X066885Y035003*
X066845Y035099*
X066782Y035182*
X066699Y035245*
X066603Y035285*
X06655Y035292*
G37*
G36*
X04335Y035198D02*
Y03485D01*
X043698*
X043691Y034905*
X04365Y035002*
X043586Y035086*
X043502Y03515*
X043405Y035191*
X04335Y035198*
G37*
G36*
X04435D02*
Y03485D01*
X044698*
X044691Y034905*
X04465Y035002*
X044586Y035086*
X044502Y03515*
X044405Y035191*
X04435Y035198*
G37*
G36*
X01325Y035192D02*
X013197Y035185D01*
X013101Y035145*
X013018Y035082*
X012955Y034999*
X012915Y034903*
X012908Y03485*
X01325*
Y035192*
G37*
G36*
X04425Y035198D02*
X044195Y035191D01*
X044098Y03515*
X044014Y035086*
X04395Y035002*
X043909Y034905*
X043902Y03485*
X04425*
Y035198*
G37*
G36*
X04325D02*
X043195Y035191D01*
X043098Y03515*
X043014Y035086*
X04295Y035002*
X042909Y034905*
X042902Y03485*
X04325*
Y035198*
G37*
G36*
X055394Y03515D02*
X05505D01*
Y034806*
X055104Y034813*
X0552Y034853*
X055283Y034917*
X055347Y035*
X055387Y035096*
X055394Y03515*
G37*
G36*
X05495D02*
X054606D01*
X054613Y035096*
X054653Y035*
X054717Y034917*
X0548Y034853*
X054896Y034813*
X05495Y034806*
Y03515*
G37*
G36*
X0443Y0348D02*
D01*
G37*
G36*
X068597Y03495D02*
X06825D01*
Y034603*
X068597*
Y03495*
G37*
G36*
X06815D02*
X067803D01*
Y034603*
X06815*
Y03495*
G37*
G36*
X066892Y03485D02*
X06655D01*
Y034508*
X066603Y034515*
X066699Y034555*
X066782Y034618*
X066845Y034701*
X066885Y034797*
X066892Y03485*
G37*
G36*
X01325Y03475D02*
X012908D01*
X012915Y034697*
X012955Y034601*
X013018Y034518*
X013101Y034455*
X013197Y034415*
X01325Y034408*
Y03475*
G37*
G36*
X044698D02*
X04435D01*
Y034402*
X044405Y034409*
X044502Y03445*
X044586Y034514*
X04465Y034598*
X044691Y034695*
X044698Y03475*
G37*
G36*
X043698D02*
X04335D01*
Y034402*
X043405Y034409*
X043502Y03445*
X043586Y034514*
X04365Y034598*
X043691Y034695*
X043698Y03475*
G37*
G36*
X04425D02*
X043902D01*
X043909Y034695*
X04395Y034598*
X044014Y034514*
X044098Y03445*
X044195Y034409*
X04425Y034402*
Y03475*
G37*
G36*
X04325D02*
X042902D01*
X042909Y034695*
X04295Y034598*
X043014Y034514*
X043098Y03445*
X043195Y034409*
X04325Y034402*
Y03475*
G37*
G36*
X0453Y035205D02*
X045195Y035191D01*
X045098Y03515*
X045014Y035086*
X04495Y035002*
X044909Y034905*
X044895Y0348*
X044909Y034695*
X04495Y034598*
X045014Y034514*
X045098Y03445*
X045195Y034409*
X0453Y034395*
X045405Y034409*
X045502Y03445*
X045586Y034514*
X04565Y034598*
X045691Y034695*
X045705Y0348*
X045691Y034905*
X04565Y035002*
X045586Y035086*
X045502Y03515*
X045405Y035191*
X0453Y035205*
G37*
G36*
X0423D02*
X042195Y035191D01*
X042098Y03515*
X042014Y035086*
X04195Y035002*
X041909Y034905*
X041895Y0348*
X041909Y034695*
X04195Y034598*
X042014Y034514*
X042098Y03445*
X042195Y034409*
X0423Y034395*
X042405Y034409*
X042502Y03445*
X042586Y034514*
X04265Y034598*
X042691Y034695*
X042705Y0348*
X042691Y034905*
X04265Y035002*
X042586Y035086*
X042502Y03515*
X042405Y035191*
X0423Y035205*
G37*
G36*
X027968Y0347D02*
X027865Y034687D01*
X027768Y034647*
X027685Y034583*
X027622Y0345*
X027582Y034404*
X027568Y0343*
X027582Y034196*
X027622Y0341*
X027685Y034017*
X027768Y033953*
X027865Y033913*
X027968Y0339*
X028072Y033913*
X028169Y033953*
X028252Y034017*
X028315Y0341*
X028355Y034196*
X028369Y0343*
X028355Y034404*
X028315Y0345*
X028252Y034583*
X028169Y034647*
X028072Y034687*
X027968Y0347*
G37*
G36*
X055Y0346D02*
X054896Y034587D01*
X0548Y034547*
X054717Y034483*
X054653Y0344*
X054613Y034304*
X0546Y0342*
X054613Y034096*
X054653Y034*
X054717Y033917*
X0548Y033853*
X054896Y033813*
X055Y0338*
X055104Y033813*
X0552Y033853*
X055283Y033917*
X055347Y034*
X055387Y034096*
X0554Y0342*
X055387Y034304*
X055347Y0344*
X055283Y034483*
X0552Y034547*
X055104Y034587*
X055Y0346*
G37*
G36*
X0682Y0344D02*
X068096Y034387D01*
X068Y034347*
X067917Y034283*
X067853Y0342*
X067813Y034104*
X0678Y034*
X067813Y033896*
X067853Y0338*
X067917Y033717*
X068Y033653*
X068096Y033613*
X0682Y0336*
X068304Y033613*
X0684Y033653*
X068483Y033717*
X068547Y0338*
X068587Y033896*
X0686Y034*
X068587Y034104*
X068547Y0342*
X068483Y034283*
X0684Y034347*
X068304Y034387*
X0682Y0344*
G37*
G36*
X02555Y033592D02*
Y03325D01*
X025892*
X025885Y033303*
X025845Y033399*
X025782Y033482*
X025699Y033545*
X025603Y033585*
X02555Y033592*
G37*
G36*
X027968Y0337D02*
X027865Y033687D01*
X027768Y033647*
X027685Y033583*
X027622Y0335*
X027582Y033404*
X027568Y0333*
X027582Y033196*
X027622Y0331*
X027685Y033017*
X027768Y032953*
X027865Y032913*
X027968Y0329*
X028072Y032913*
X028169Y032953*
X028252Y033017*
X028315Y0331*
X028355Y033196*
X028369Y0333*
X028355Y033404*
X028315Y0335*
X028252Y033583*
X028169Y033647*
X028072Y033687*
X027968Y0337*
G37*
G36*
X025892Y03315D02*
X02555D01*
Y032808*
X025603Y032815*
X025699Y032855*
X025782Y032918*
X025845Y033001*
X025885Y033097*
X025892Y03315*
G37*
G36*
X02545D02*
X025108D01*
X025115Y033097*
X025155Y033001*
X025218Y032918*
X025301Y032855*
X025397Y032815*
X02545Y032808*
Y03315*
G37*
G36*
X055397Y033597D02*
X054603D01*
Y032803*
X055397*
Y033597*
G37*
G36*
X062085Y033535D02*
X061315D01*
Y032765*
X062085*
Y033535*
G37*
G36*
X0647Y033539D02*
X064599Y033526D01*
X064506Y033487*
X064425Y033425*
X064363Y033344*
X064324Y033251*
X064311Y03315*
X064324Y033049*
X064363Y032956*
X064425Y032875*
X064506Y032813*
X064599Y032774*
X0647Y032761*
X064801Y032774*
X064894Y032813*
X064975Y032875*
X065037Y032956*
X065076Y033049*
X065089Y03315*
X065076Y033251*
X065037Y033344*
X064975Y033425*
X064894Y033487*
X064801Y033526*
X0647Y033539*
G37*
G36*
X0682Y0334D02*
X068096Y033387D01*
X068Y033347*
X067917Y033283*
X067853Y0332*
X067813Y033104*
X0678Y033*
X067813Y032896*
X067853Y0328*
X067917Y032717*
X068Y032653*
X068096Y032613*
X0682Y0326*
X068304Y032613*
X0684Y032653*
X068483Y032717*
X068547Y0328*
X068587Y032896*
X0686Y033*
X068587Y033104*
X068547Y0332*
X068483Y033283*
X0684Y033347*
X068304Y033387*
X0682Y0334*
G37*
G36*
X028365Y032697D02*
X028019D01*
Y03235*
X028365*
Y032697*
G37*
G36*
X02555Y032692D02*
Y03235D01*
X025892*
X025885Y032403*
X025845Y032499*
X025782Y032582*
X025699Y032645*
X025603Y032685*
X02555Y032692*
G37*
G36*
X027919Y032697D02*
X027572D01*
Y03235*
X027919*
Y032697*
G37*
G36*
X028365Y03225D02*
X028019D01*
Y031903*
X028365*
Y03225*
G37*
G36*
X027919D02*
X027572D01*
Y031903*
X027919*
Y03225*
G37*
G36*
X0647Y032539D02*
X064599Y032526D01*
X064506Y032487*
X064425Y032425*
X064363Y032344*
X064324Y032251*
X064311Y03215*
X064324Y032049*
X064363Y031956*
X064425Y031875*
X064506Y031813*
X064599Y031774*
X0647Y031761*
X064801Y031774*
X064894Y031813*
X064975Y031875*
X065037Y031956*
X065076Y032049*
X065089Y03215*
X065076Y032251*
X065037Y032344*
X064975Y032425*
X064894Y032487*
X064801Y032526*
X0647Y032539*
G37*
G36*
X0617D02*
X061599Y032526D01*
X061506Y032487*
X061425Y032425*
X061363Y032344*
X061324Y032251*
X061311Y03215*
X061324Y032049*
X061363Y031956*
X061425Y031875*
X061506Y031813*
X061599Y031774*
X0617Y031761*
X061801Y031774*
X061894Y031813*
X061975Y031875*
X062037Y031956*
X062076Y032049*
X062089Y03215*
X062076Y032251*
X062037Y032344*
X061975Y032425*
X061894Y032487*
X061801Y032526*
X0617Y032539*
G37*
G36*
X014182Y031872D02*
X013857D01*
Y031527*
X014182*
Y031872*
G37*
G36*
X0647Y031539D02*
X064599Y031526D01*
X064506Y031487*
X064425Y031425*
X064363Y031344*
X064324Y031251*
X064311Y03115*
X064324Y031049*
X064363Y030956*
X064425Y030875*
X064506Y030813*
X064599Y030774*
X0647Y030761*
X064801Y030774*
X064894Y030813*
X064975Y030875*
X065037Y030956*
X065076Y031049*
X065089Y03115*
X065076Y031251*
X065037Y031344*
X064975Y031425*
X064894Y031487*
X064801Y031526*
X0647Y031539*
G37*
G36*
X0617D02*
X061599Y031526D01*
X061506Y031487*
X061425Y031425*
X061363Y031344*
X061324Y031251*
X061311Y03115*
X061324Y031049*
X061363Y030956*
X061425Y030875*
X061506Y030813*
X061599Y030774*
X0617Y030761*
X061801Y030774*
X061894Y030813*
X061975Y030875*
X062037Y030956*
X062076Y031049*
X062089Y03115*
X062076Y031251*
X062037Y031344*
X061975Y031425*
X061894Y031487*
X061801Y031526*
X0617Y031539*
G37*
G36*
X0606Y030499D02*
X060497Y030485D01*
X060401Y030445*
X060318Y030382*
X060258Y030304*
X060095*
Y03045*
X059305*
Y029698*
Y029376*
X0597*
X060095*
Y029698*
Y029896*
X060258*
X060318Y029818*
X060401Y029755*
X060497Y029715*
X0606Y029701*
X060703Y029715*
X060799Y029755*
X060882Y029818*
X060945Y029901*
X060985Y029997*
X060999Y0301*
X060985Y030203*
X060945Y030299*
X060882Y030382*
X060799Y030445*
X060703Y030485*
X0606Y030499*
G37*
G36*
X04005Y029832D02*
Y02945D01*
X040432*
X040423Y029513*
X04038Y029619*
X04031Y02971*
X040219Y02978*
X040113Y029823*
X04005Y029832*
G37*
G36*
X04505D02*
Y02945D01*
X045432*
X045423Y029513*
X04538Y029619*
X04531Y02971*
X045219Y02978*
X045113Y029823*
X04505Y029832*
G37*
G36*
X04495D02*
X044887Y029823D01*
X044781Y02978*
X04469Y02971*
X04462Y029619*
X044577Y029513*
X044568Y02945*
X04495*
Y029832*
G37*
G36*
X055797Y029597D02*
X05545D01*
Y02925*
X055797*
Y029597*
G37*
G36*
X05455Y029592D02*
Y02925D01*
X054892*
X054885Y029303*
X054845Y029399*
X054782Y029482*
X054699Y029545*
X054603Y029585*
X05455Y029592*
G37*
G36*
X05445D02*
X054397Y029585D01*
X054301Y029545*
X054218Y029482*
X054155Y029399*
X054115Y029303*
X054108Y02925*
X05445*
Y029592*
G37*
G36*
X05535Y029597D02*
X055003D01*
Y02925*
X05535*
Y029597*
G37*
G36*
X067595Y029376D02*
X06725D01*
Y02905*
X067595*
Y029376*
G37*
G36*
X040432Y02935D02*
X04005D01*
Y028968*
X040113Y028977*
X040219Y02902*
X04031Y02909*
X04038Y029181*
X040423Y029287*
X040432Y02935*
G37*
G36*
X045432D02*
X04505D01*
Y028968*
X045113Y028977*
X045219Y02902*
X04531Y02909*
X04538Y029181*
X045423Y029287*
X045432Y02935*
G37*
G36*
X04495D02*
X044568D01*
X044577Y029287*
X04462Y029181*
X04469Y02909*
X044781Y02902*
X044887Y028977*
X04495Y028968*
Y02935*
G37*
G36*
X041435Y029835D02*
X040565D01*
Y028965*
X041435*
Y029835*
G37*
G36*
X044324Y030995D02*
X04325D01*
Y030205*
X043296*
Y028*
X043312Y027922*
X043356Y027856*
X043703Y027509*
X043701Y0275*
X043715Y027397*
X043755Y027301*
X043818Y027218*
X043896Y027158*
Y020234*
X04293Y019268*
X039551*
X039527Y019318*
X039555Y019356*
X039594Y019449*
X039607Y01955*
X039594Y019651*
X039555Y019744*
X039493Y019825*
X039413Y019887*
X039319Y019926*
X039218Y019939*
X039118Y019926*
X039024Y019887*
X038944Y019825*
X038882Y019744*
X038843Y019651*
X03883Y01955*
X038843Y019449*
X038882Y019356*
X03891Y019318*
X038886Y019268*
X037615*
X037537Y019253*
X03747Y019209*
X037253Y018992*
X0372Y018999*
X037097Y018985*
X037001Y018945*
X036918Y018882*
X036855Y018799*
X036815Y018703*
X036801Y0186*
X036815Y018497*
X036855Y018401*
X036918Y018318*
X037001Y018255*
X037097Y018215*
X0372Y018201*
X037303Y018215*
X037399Y018255*
X037482Y018318*
X037545Y018401*
X037585Y018497*
X037599Y0186*
X037585Y018703*
X037572Y018734*
X037699Y018861*
X038913*
X038933Y018811*
X038882Y018744*
X038843Y018651*
X03883Y01855*
X038843Y018449*
X038882Y018356*
X038944Y018275*
X039024Y018213*
X039118Y018174*
X039218Y018161*
X039319Y018174*
X039413Y018213*
X039493Y018275*
X039555Y018356*
X039594Y018449*
X039607Y01855*
X039594Y018651*
X039555Y018744*
X039504Y018811*
X039524Y018861*
X043015*
X043093Y018876*
X043159Y01892*
X044125Y019887*
X046405Y017607*
Y017198*
Y016876*
X0468*
Y016826*
Y016876*
X047195*
Y017198*
Y01737*
X047526*
X047555Y017301*
X047618Y017218*
X047701Y017155*
X047797Y017115*
X0479Y017101*
X048003Y017115*
X048099Y017155*
X048182Y017218*
X048245Y017301*
X048285Y017397*
X048299Y0175*
X048286Y017597*
X048534Y017846*
X048647*
X048671Y017796*
X048632Y017744*
X048593Y017651*
X04858Y01755*
X048593Y017449*
X048632Y017356*
X048694Y017275*
X048774Y017213*
X048868Y017174*
X048969Y017161*
X049069Y017174*
X049163Y017213*
X049243Y017275*
X049305Y017356*
X049344Y017449*
X049357Y01755*
X049344Y017651*
X049305Y017744*
X049266Y017796*
X04929Y017846*
X051647*
X051672Y017796*
X051632Y017744*
X051593Y017651*
X05158Y01755*
X051591Y017461*
X049434Y015304*
X049322*
X0493Y015349*
X049305Y015356*
X049344Y015449*
X049357Y01555*
X049344Y015651*
X049305Y015744*
X049243Y015825*
X049163Y015887*
X049069Y015926*
X048969Y015939*
X048868Y015926*
X048774Y015887*
X048694Y015825*
X048632Y015744*
X048593Y015651*
X04858Y01555*
X048593Y015449*
X048632Y015356*
X048637Y015349*
X048615Y015304*
X043584*
X043239Y015649*
X043238Y01565*
X04295Y015938*
X042949Y015939*
X042775Y016114*
Y016423*
X042823Y016426*
X042825*
X043614*
Y016647*
X043836*
X043855Y016601*
X043918Y016518*
X044001Y016455*
X044097Y016415*
X0442Y016401*
X044303Y016415*
X044399Y016455*
X044482Y016518*
X044545Y016601*
X044585Y016697*
X044599Y0168*
X044585Y016903*
X044545Y016999*
X044482Y017082*
X044399Y017145*
X044303Y017185*
X044253Y017192*
Y018636*
X044299Y018655*
X044382Y018718*
X044445Y018801*
X044485Y018897*
X044499Y019*
X044485Y019103*
X044445Y019199*
X044382Y019282*
X044299Y019345*
X044203Y019385*
X0441Y019399*
X043997Y019385*
X043901Y019345*
X043818Y019282*
X043755Y019199*
X043715Y019103*
X043701Y019*
X043715Y018897*
X043755Y018801*
X043818Y018718*
X043901Y018655*
X043947Y018636*
Y017104*
X043918Y017082*
X043855Y016999*
X043836Y016953*
X043614*
Y017174*
Y0175*
X042823*
Y017156*
X042773Y017151*
X042759Y017221*
X042715Y017287*
X042358Y017644*
X042292Y017688*
X042214Y017704*
X042114*
Y017926*
X041323*
Y017704*
X040842*
X040782Y017782*
X040699Y017845*
X040603Y017885*
X0405Y017899*
X040397Y017885*
X040301Y017845*
X040218Y017782*
X040155Y017699*
X040115Y017603*
X040101Y0175*
X040115Y017397*
X040155Y017301*
X040218Y017218*
X040301Y017155*
X040397Y017115*
X0405Y017101*
X040603Y017115*
X040699Y017155*
X040782Y017218*
X040842Y017296*
X041323*
Y017174*
Y016852*
X041719*
X042114*
Y017241*
X042164Y017262*
X042367Y017058*
Y016029*
X042382Y015951*
X042427Y015885*
X042661Y015651*
X042662Y01565*
X04295Y015362*
X042951Y015361*
X043069Y015243*
X043049Y015197*
X042322*
Y014403*
X043115*
Y015131*
X043162Y01515*
X043356Y014956*
X043422Y014912*
X0435Y014896*
X048704*
X048721Y014846*
X048694Y014825*
X048632Y014744*
X048593Y014651*
X04858Y01455*
X048593Y014449*
X048632Y014356*
X048694Y014275*
X048774Y014213*
X048868Y014174*
X048969Y014161*
X049069Y014174*
X049163Y014213*
X049243Y014275*
X049305Y014356*
X049344Y014449*
X049357Y01455*
X049344Y014651*
X049305Y014744*
X049243Y014825*
X049216Y014846*
X049233Y014896*
X049518*
X049597Y014912*
X049663Y014956*
X05188Y017173*
X051968Y017161*
X052069Y017174*
X052163Y017213*
X052243Y017275*
X052305Y017356*
X052344Y017449*
X052357Y01755*
X052344Y017651*
X052305Y017744*
X052266Y017796*
X05229Y017846*
X052666*
X052691Y017796*
X052655Y017749*
X052615Y017653*
X052601Y01755*
X052615Y017447*
X052655Y017351*
X052718Y017268*
X052801Y017205*
X052897Y017165*
X053Y017151*
X053103Y017165*
X053199Y017205*
X053282Y017268*
X053342Y017346*
X053605*
Y017174*
Y016852*
X054*
X054395*
Y017174*
Y017846*
X055573*
Y0176*
X055968*
X056364*
Y017777*
X05641Y017796*
X05775Y016456*
X057816Y016412*
X057894Y016396*
X059158*
X059218Y016318*
X059301Y016255*
X059397Y016215*
X0595Y016201*
X059603Y016215*
X059699Y016255*
X059782Y016318*
X059845Y016401*
X059885Y016497*
X059899Y0166*
X059885Y016703*
X059845Y016799*
X059782Y016882*
X059704Y016942*
Y01705*
X059895*
Y017798*
Y018124*
X059105*
Y017798*
Y01705*
X059296*
Y016942*
X059218Y016882*
X059158Y016804*
X057979*
X057779Y017004*
X057798Y01705*
X05795*
Y017376*
X057605*
Y017243*
X057559Y017224*
X056882Y017901*
X056901Y017947*
X057605*
Y017798*
Y017476*
X058*
X058395*
Y017798*
Y018547*
X058911*
X059105Y018353*
Y018224*
X05945*
Y01855*
X059341*
X059082Y018808*
X059033Y018841*
X058974Y018853*
X057364*
X057345Y018899*
X057282Y018982*
X057199Y019045*
X057133Y019073*
Y019127*
X057199Y019155*
X057282Y019218*
X057345Y019301*
X057348Y019307*
X057573*
Y019005*
X058364*
Y019753*
Y019847*
X058537*
X059032Y019351*
X059073Y019324*
Y019005*
X059779*
X060047Y018737*
Y016095*
X059628Y015676*
X059073*
Y015453*
X058364*
Y015676*
X057573*
Y014924*
Y014176*
X058364*
Y014399*
X059073*
Y014176*
X059864*
Y014347*
X060637*
X061647Y013337*
Y01315*
X061405*
Y012398*
Y01165*
X062195*
Y011947*
X062905*
Y01165*
X063695*
Y011973*
X064405*
Y01165*
X065195*
Y011847*
X066805*
Y01165*
X067595*
Y012398*
Y01315*
X067353*
Y013926*
X067614*
Y014674*
Y015*
X066823*
Y014674*
Y014455*
X066361*
X065708Y015108*
X065659Y015141*
X0656Y015153*
X064898*
X064888Y015203*
X064913Y015213*
X064993Y015275*
X065055Y015356*
X065094Y015449*
X065107Y01555*
X065094Y015651*
X065055Y015744*
X064993Y015825*
X064913Y015887*
X064819Y015926*
X064718Y015939*
X064618Y015926*
X064524Y015887*
X064471Y015846*
X063353Y016963*
Y017236*
X063399Y017255*
X063482Y017318*
X063545Y017401*
X063585Y017497*
X063599Y0176*
X063585Y017703*
X063545Y017799*
X063482Y017882*
X063399Y017945*
X063303Y017985*
X0632Y017999*
X063097Y017985*
X063001Y017945*
X062918Y017882*
X062855Y017799*
X062815Y017703*
X062801Y0176*
X062815Y017497*
X062855Y017401*
X062918Y017318*
X063001Y017255*
X063047Y017236*
Y0169*
X063059Y016841*
X063092Y016792*
X06433Y015554*
Y01555*
X064343Y015449*
X064382Y015356*
X064444Y015275*
X064524Y015213*
X064549Y015203*
X064539Y015153*
X064063*
X062866Y01635*
X062885Y016397*
X062899Y0165*
X062885Y016603*
X062845Y016699*
X062782Y016782*
X062699Y016845*
X062603Y016885*
X0625Y016899*
X062397Y016885*
X062301Y016845*
X062218Y016782*
X062155Y016699*
X06214Y016664*
X062087Y016667*
X062055Y016744*
X061993Y016825*
X061913Y016887*
X061819Y016926*
X061719Y016939*
X061618Y016926*
X061524Y016887*
X061444Y016825*
X061382Y016744*
X061343Y016651*
X06133Y01655*
X061343Y016449*
X061382Y016356*
X061444Y016275*
X061524Y016213*
X061618Y016174*
X061719Y016161*
X061819Y016174*
X061913Y016213*
X061993Y016275*
X062055Y016356*
X062068Y016386*
X062075Y016388*
X062121Y016383*
X062155Y016301*
X062218Y016218*
X062301Y016155*
X062397Y016115*
X0625Y016101*
X062603Y016115*
X06265Y016134*
X063892Y014892*
X063941Y014859*
X064Y014847*
X064398*
X064422Y014797*
X064382Y014744*
X064343Y014651*
X06433Y01455*
X064343Y014449*
X064382Y014356*
X064444Y014275*
X064524Y014213*
X064618Y014174*
X064718Y014161*
X064819Y014174*
X064913Y014213*
X064993Y014275*
X065055Y014356*
X065094Y014449*
X065107Y01455*
X065094Y014651*
X065055Y014744*
X065015Y014797*
X065039Y014847*
X065537*
X06619Y014194*
X06624Y014161*
X066298Y014149*
X066823*
Y013926*
X067047*
Y01315*
X066805*
Y012398*
Y012153*
X065195*
Y012398*
Y01315*
X064405*
Y013027*
X063695*
Y01315*
X063453*
Y0137*
X063441Y013759*
X063408Y013808*
X062866Y01435*
X062885Y014397*
X062899Y0145*
X062885Y014603*
X062845Y014699*
X062782Y014782*
X062699Y014845*
X062603Y014885*
X0625Y014899*
X062397Y014885*
X062301Y014845*
X062218Y014782*
X062155Y014699*
X06214Y014664*
X062087Y014667*
X062055Y014744*
X061993Y014825*
X061913Y014887*
X061819Y014926*
X061719Y014939*
X061618Y014926*
X061524Y014887*
X061444Y014825*
X061382Y014744*
X061343Y014651*
X06133Y01455*
X061343Y014449*
X061382Y014356*
X061444Y014275*
X061524Y014213*
X061618Y014174*
X061719Y014161*
X061819Y014174*
X061913Y014213*
X061993Y014275*
X062055Y014356*
X062068Y014386*
X062075Y014388*
X062121Y014383*
X062155Y014301*
X062218Y014218*
X062301Y014155*
X062397Y014115*
X0625Y014101*
X062603Y014115*
X06265Y014134*
X063147Y013637*
Y01315*
X062905*
Y012398*
Y012253*
X062195*
Y012398*
Y01315*
X061953*
Y0134*
X061941Y013459*
X061908Y013508*
X060853Y014563*
Y018468*
X061576Y019192*
X061618Y019174*
X061719Y019161*
X061819Y019174*
X061913Y019213*
X061993Y019275*
X062055Y019356*
X062094Y019449*
X062107Y01955*
X062094Y019651*
X062055Y019744*
X061993Y019825*
X061913Y019887*
X061819Y019926*
X061719Y019939*
X061618Y019926*
X061524Y019887*
X061444Y019825*
X061382Y019744*
X061343Y019651*
X06133Y01955*
X061343Y019449*
X06136Y019408*
X060592Y01864*
X060559Y01859*
X060547Y018532*
Y014653*
X059864*
Y014924*
Y015479*
X060308Y015923*
X060341Y015973*
X060353Y016032*
Y0188*
X060341Y018859*
X060308Y018908*
X059864Y019353*
Y019753*
Y020229*
X060308Y020673*
X060341Y020723*
X060353Y020782*
Y021436*
X060399Y021455*
X060482Y021518*
X060545Y021601*
X060585Y021697*
X060599Y0218*
X060585Y021903*
X060545Y021999*
X060482Y022082*
X060399Y022145*
X060303Y022185*
X0602Y022199*
X060097Y022185*
X060001Y022145*
X059918Y022082*
X059855Y021999*
X059815Y021903*
X059801Y0218*
X059815Y021697*
X059855Y021601*
X059918Y021518*
X060001Y021455*
X060047Y021436*
Y020845*
X059707Y020504*
X059073*
Y019814*
X059023Y019793*
X058708Y020108*
X058659Y020141*
X0586Y020153*
X058364*
Y020504*
X057573*
Y019753*
Y019612*
X057381*
X057345Y019699*
X057282Y019782*
X057199Y019845*
X057103Y019885*
X057Y019899*
X056897Y019885*
X056801Y019845*
X056718Y019782*
X056655Y019699*
X056615Y019603*
X056604Y01952*
X056392Y019308*
X056359Y019259*
X056347Y0192*
Y0184*
X056359Y018341*
X056384Y018304*
X056365Y018254*
X05229*
X052266Y018304*
X052305Y018356*
X052344Y018449*
X052357Y01855*
X052344Y018651*
X052305Y018744*
X052243Y018825*
X052163Y018887*
X052069Y018926*
X051968Y018939*
X051868Y018926*
X051774Y018887*
X051694Y018825*
X051632Y018744*
X051593Y018651*
X05158Y01855*
X051593Y018449*
X051632Y018356*
X051672Y018304*
X051647Y018254*
X04929*
X049266Y018304*
X049305Y018356*
X049344Y018449*
X049357Y01855*
X049344Y018651*
X049305Y018744*
X049243Y018825*
X049163Y018887*
X049126Y018902*
X049136Y018952*
X050705*
X050763Y018963*
X050813Y018997*
X05095Y019134*
X050997Y019115*
X0511Y019101*
X051203Y019115*
X051299Y019155*
X051382Y019218*
X051445Y019301*
X051485Y019397*
X051499Y0195*
X051485Y019603*
X051445Y019699*
X051382Y019782*
X051299Y019845*
X051203Y019885*
X0511Y019899*
X050997Y019885*
X050901Y019845*
X050818Y019782*
X050755Y019699*
X050715Y019603*
X050701Y0195*
X050715Y019397*
X050734Y01935*
X050641Y019258*
X049293*
X049268Y019308*
X049305Y019356*
X049344Y019449*
X049357Y01955*
X049344Y019651*
X049305Y019744*
X049243Y019825*
X049163Y019887*
X049069Y019926*
X048969Y019939*
X048868Y019926*
X048774Y019887*
X048694Y019825*
X048632Y019744*
X048593Y019651*
X04858Y01955*
X048593Y019449*
X048632Y019356*
X048669Y019308*
X048644Y019258*
X047195*
Y019398*
Y02015*
X046953*
Y024207*
X047032Y024268*
X047095Y024351*
X047135Y024447*
X047149Y02455*
X047135Y024653*
X047095Y024749*
X047032Y024832*
X046949Y024895*
X046853Y024935*
X04675Y024949*
X046647Y024935*
X046551Y024895*
X046468Y024832*
X046405Y024749*
X046365Y024653*
X046351Y02455*
X046365Y024447*
X046405Y024351*
X046468Y024268*
X046551Y024205*
X046647Y024165*
Y02015*
X046405*
Y019398*
Y01865*
X047195*
Y018952*
X048801*
X048811Y018902*
X048774Y018887*
X048694Y018825*
X048632Y018744*
X048593Y018651*
X04858Y01855*
X048593Y018449*
X048632Y018356*
X048671Y018304*
X048647Y018254*
X04845*
X048372Y018238*
X048306Y018194*
X047997Y017886*
X0479Y017899*
X047797Y017885*
X047701Y017845*
X047618Y017782*
X047615Y017778*
X047195*
Y01795*
X046644*
X046637Y017951*
X044304Y020284*
Y027158*
X044382Y027218*
X044445Y027301*
X044485Y027397*
X044499Y0275*
X044485Y027603*
X044445Y027699*
X044382Y027782*
X044299Y027845*
X044203Y027885*
X0441Y027899*
X043997Y027885*
X043931Y027858*
X043704Y028084*
Y029023*
X043749Y029045*
X043781Y02902*
X043887Y028977*
X044Y028962*
X044113Y028977*
X044219Y02902*
X04431Y02909*
X04438Y029181*
X044423Y029287*
X044438Y0294*
X044423Y029513*
X04438Y029619*
X04431Y02971*
X044219Y02978*
X044113Y029823*
X044Y029838*
X043887Y029823*
X043781Y02978*
X043749Y029755*
X043704Y029777*
Y030205*
X044324*
Y0306*
Y030995*
G37*
G36*
X060095Y029276D02*
X05975D01*
Y02895*
X060095*
Y029276*
G37*
G36*
X04925Y029194D02*
Y02885D01*
X049594*
X049587Y028904*
X049547Y029*
X049483Y029083*
X0494Y029147*
X049304Y029187*
X04925Y029194*
G37*
G36*
X04915D02*
X049096Y029187D01*
X049Y029147*
X048917Y029083*
X048853Y029*
X048813Y028904*
X048806Y02885*
X04915*
Y029194*
G37*
G36*
X054892Y02915D02*
X05455D01*
Y028808*
X054603Y028815*
X054699Y028855*
X054782Y028918*
X054845Y029001*
X054885Y029097*
X054892Y02915*
G37*
G36*
X05445D02*
X054108D01*
X054115Y029097*
X054155Y029001*
X054218Y028918*
X054301Y028855*
X054397Y028815*
X05445Y028808*
Y02915*
G37*
G36*
X055797D02*
X05545D01*
Y028803*
X055797*
Y02915*
G37*
G36*
X05535D02*
X055003D01*
Y028803*
X05535*
Y02915*
G37*
G36*
X049594Y02875D02*
X04925D01*
Y028406*
X049304Y028413*
X0494Y028453*
X049483Y028517*
X049547Y0286*
X049587Y028696*
X049594Y02875*
G37*
G36*
X04915D02*
X048806D01*
X048813Y028696*
X048853Y0286*
X048917Y028517*
X049Y028453*
X049096Y028413*
X04915Y028406*
Y02875*
G37*
G36*
X051597Y029197D02*
X050803D01*
Y028403*
X051597*
Y029197*
G37*
G36*
X0502Y0292D02*
X050096Y029187D01*
X05Y029147*
X049917Y029083*
X049853Y029*
X049813Y028904*
X0498Y0288*
X049813Y028696*
X049853Y0286*
X049917Y028517*
X05Y028453*
X050096Y028413*
X0502Y0284*
X050304Y028413*
X0504Y028453*
X050483Y028517*
X050547Y0286*
X050587Y028696*
X0506Y0288*
X050587Y028904*
X050547Y029*
X050483Y029083*
X0504Y029147*
X050304Y029187*
X0502Y0292*
G37*
G36*
X0554Y0286D02*
X055296Y028587D01*
X0552Y028547*
X055117Y028483*
X055053Y0284*
X055013Y028304*
X055Y0282*
X055013Y028096*
X055053Y028*
X055117Y027917*
X0552Y027853*
X055296Y027813*
X0554Y0278*
X055504Y027813*
X0556Y027853*
X055683Y027917*
X055747Y028*
X055787Y028096*
X0558Y0282*
X055787Y028304*
X055747Y0284*
X055683Y028483*
X0556Y028547*
X055504Y028587*
X0554Y0286*
G37*
G36*
X027637Y02805D02*
X027194D01*
Y027606*
X027637*
Y02805*
G37*
G36*
X04005Y027892D02*
Y02755D01*
X040392*
X040385Y027603*
X040345Y027699*
X040282Y027782*
X040199Y027845*
X040103Y027885*
X04005Y027892*
G37*
G36*
X0554Y0276D02*
X055296Y027587D01*
X0552Y027547*
X055117Y027483*
X055053Y0274*
X055013Y027304*
X055Y0272*
X055013Y027096*
X055053Y027*
X055117Y026917*
X0552Y026853*
X055296Y026813*
X0554Y0268*
X055504Y026813*
X0556Y026853*
X055683Y026917*
X055747Y027*
X055787Y027096*
X0558Y0272*
X055787Y027304*
X055747Y0274*
X055683Y027483*
X0556Y027547*
X055504Y027587*
X0554Y0276*
G37*
G36*
X0647Y027539D02*
X064599Y027526D01*
X064506Y027487*
X064425Y027425*
X064363Y027344*
X064324Y027251*
X064311Y02715*
X064324Y027049*
X064363Y026956*
X064425Y026875*
X064506Y026813*
X064599Y026774*
X0647Y026761*
X064801Y026774*
X064894Y026813*
X064975Y026875*
X065037Y026956*
X065076Y027049*
X065089Y02715*
X065076Y027251*
X065037Y027344*
X064975Y027425*
X064894Y027487*
X064801Y027526*
X0647Y027539*
G37*
G36*
X0617D02*
X061599Y027526D01*
X061506Y027487*
X061425Y027425*
X061363Y027344*
X061324Y027251*
X061311Y02715*
X061324Y027049*
X061363Y026956*
X061425Y026875*
X061506Y026813*
X061599Y026774*
X0617Y026761*
X061801Y026774*
X061894Y026813*
X061975Y026875*
X062037Y026956*
X062076Y027049*
X062089Y02715*
X062076Y027251*
X062037Y027344*
X061975Y027425*
X061894Y027487*
X061801Y027526*
X0617Y027539*
G37*
G36*
X022801Y026994D02*
X021971D01*
Y026006*
X022801*
Y026994*
G37*
G36*
X026606Y028594D02*
X025619D01*
Y027606*
X025947*
Y026994*
X025719*
Y026006*
X026706*
Y026994*
X026253*
Y027606*
X026606*
Y028594*
G37*
G36*
X024386Y026997D02*
X024278Y026983D01*
X024177Y026941*
X02409Y026875*
X024023Y026788*
X023982Y026687*
X023967Y026579*
Y026421*
X023982Y026313*
X024023Y026212*
X02409Y026125*
X024177Y026059*
X024278Y026017*
X024386Y026003*
X024494Y026017*
X024595Y026059*
X024682Y026125*
X024748Y026212*
X02479Y026313*
X024804Y026421*
Y026579*
X02479Y026687*
X024748Y026788*
X024682Y026875*
X024595Y026941*
X024494Y026983*
X024386Y026997*
G37*
G36*
X023386D02*
X023277Y026983D01*
X023177Y026941*
X02309Y026875*
X023023Y026788*
X022982Y026687*
X022967Y026579*
Y026421*
X022982Y026313*
X023023Y026212*
X02309Y026125*
X023177Y026059*
X023277Y026017*
X023386Y026003*
X023494Y026017*
X023595Y026059*
X023682Y026125*
X023748Y026212*
X02379Y026313*
X023804Y026421*
Y026579*
X02379Y026687*
X023748Y026788*
X023682Y026875*
X023595Y026941*
X023494Y026983*
X023386Y026997*
G37*
G36*
X016915Y026794D02*
X016085D01*
Y025806*
X016915*
Y026794*
G37*
G36*
X0185Y026797D02*
X018392Y026783D01*
X018291Y026741*
X018204Y026675*
X018138Y026588*
X018096Y026487*
X018081Y026379*
Y026221*
X018096Y026113*
X018138Y026012*
X018204Y025925*
X018291Y025859*
X018392Y025817*
X0185Y025803*
X018608Y025817*
X018709Y025859*
X018796Y025925*
X018862Y026012*
X018904Y026113*
X018919Y026221*
Y026379*
X018904Y026487*
X018862Y026588*
X018796Y026675*
X018709Y026741*
X018608Y026783*
X0185Y026797*
G37*
G36*
X0175D02*
X017392Y026783D01*
X017291Y026741*
X017204Y026675*
X017138Y026588*
X017096Y026487*
X017081Y026379*
Y026221*
X017096Y026113*
X017138Y026012*
X017204Y025925*
X017291Y025859*
X017392Y025817*
X0175Y025803*
X017608Y025817*
X017709Y025859*
X017796Y025925*
X017862Y026012*
X017904Y026113*
X017919Y026221*
Y026379*
X017904Y026487*
X017862Y026588*
X017796Y026675*
X017709Y026741*
X017608Y026783*
X0175Y026797*
G37*
G36*
X046135Y025935D02*
X045365D01*
Y025165*
X046135*
Y025935*
G37*
G36*
X04675Y025939D02*
X046649Y025926D01*
X046556Y025887*
X046475Y025825*
X046413Y025744*
X046374Y025651*
X046361Y02555*
X046374Y025449*
X046413Y025356*
X046475Y025275*
X046556Y025213*
X046649Y025174*
X04675Y025161*
X046851Y025174*
X046944Y025213*
X047025Y025275*
X047087Y025356*
X047126Y025449*
X047139Y02555*
X047126Y025651*
X047087Y025744*
X047025Y025825*
X046944Y025887*
X046851Y025926*
X04675Y025939*
G37*
G36*
X033401Y025752D02*
X03263D01*
Y024982*
X033401*
Y025752*
G37*
G36*
X034016Y025756D02*
X033915Y025742D01*
X033821Y025704*
X033741Y025642*
X033679Y025561*
X03364Y025468*
X033627Y025367*
X03364Y025266*
X033679Y025173*
X033741Y025092*
X033821Y02503*
X033915Y024991*
X034016Y024978*
X034116Y024991*
X03421Y02503*
X034291Y025092*
X034352Y025173*
X034391Y025266*
X034405Y025367*
X034391Y025468*
X034352Y025561*
X034291Y025642*
X03421Y025704*
X034116Y025742*
X034016Y025756*
G37*
G36*
X054262Y025914D02*
X054159Y025901D01*
X054062Y025861*
X05398Y025798*
X053917Y025715*
X053877Y025619*
X053863Y025516*
X053877Y025413*
X053917Y025316*
X05398Y025234*
X054062Y02517*
X054109Y025151*
Y02505*
X053855*
Y024869*
X05339*
X053385Y024903*
X053345Y024999*
X053282Y025082*
X053199Y025145*
X053103Y025185*
X053Y025199*
X052897Y025185*
X052801Y025145*
X052718Y025082*
X052655Y024999*
X052615Y024903*
X052601Y0248*
X052615Y024697*
X052655Y024601*
X052718Y024518*
X052801Y024455*
X052812Y02445*
Y0244*
X052801Y024395*
X052718Y024332*
X052655Y024249*
X052615Y024153*
X052601Y02405*
X052615Y023947*
X052655Y023851*
X052718Y023768*
X052801Y023705*
X052897Y023665*
X053Y023651*
X053103Y023665*
X053199Y023705*
X053282Y023768*
X053345Y023851*
X053346Y023852*
X053855*
Y02355*
X054645*
Y024298*
Y02505*
X054415*
Y025151*
X054461Y02517*
X054544Y025234*
X054607Y025316*
X054647Y025413*
X054661Y025516*
X054647Y025619*
X054607Y025715*
X054544Y025798*
X054461Y025861*
X054365Y025901*
X054262Y025914*
G37*
G36*
X049597Y025197D02*
X048803D01*
Y024403*
X049597*
Y025197*
G37*
G36*
X037197D02*
X036403D01*
Y024403*
X037197*
Y025197*
G37*
G36*
X0512Y0252D02*
X051096Y025187D01*
X051Y025147*
X050917Y025083*
X050853Y025*
X050813Y024904*
X0508Y0248*
X050813Y024696*
X050853Y0246*
X050917Y024517*
X051Y024453*
X051096Y024413*
X0512Y0244*
X051304Y024413*
X0514Y024453*
X051483Y024517*
X051547Y0246*
X051587Y024696*
X0516Y0248*
X051587Y024904*
X051547Y025*
X051483Y025083*
X0514Y025147*
X051304Y025187*
X0512Y0252*
G37*
G36*
X0502D02*
X050096Y025187D01*
X05Y025147*
X049917Y025083*
X049853Y025*
X049813Y024904*
X0498Y0248*
X049813Y024696*
X049853Y0246*
X049917Y024517*
X05Y024453*
X050096Y024413*
X0502Y0244*
X050304Y024413*
X0504Y024453*
X050483Y024517*
X050547Y0246*
X050587Y024696*
X0506Y0248*
X050587Y024904*
X050547Y025*
X050483Y025083*
X0504Y025147*
X050304Y025187*
X0502Y0252*
G37*
G36*
X0388D02*
X038696Y025187D01*
X0386Y025147*
X038517Y025083*
X038453Y025*
X038413Y024904*
X0384Y0248*
X038413Y024696*
X038453Y0246*
X038517Y024517*
X0386Y024453*
X038696Y024413*
X0388Y0244*
X038904Y024413*
X039Y024453*
X039083Y024517*
X039147Y0246*
X039187Y024696*
X0392Y0248*
X039187Y024904*
X039147Y025*
X039083Y025083*
X039Y025147*
X038904Y025187*
X0388Y0252*
G37*
G36*
X0378D02*
X037696Y025187D01*
X0376Y025147*
X037517Y025083*
X037453Y025*
X037413Y024904*
X0374Y0248*
X037413Y024696*
X037453Y0246*
X037517Y024517*
X0376Y024453*
X037696Y024413*
X0378Y0244*
X037904Y024413*
X038Y024453*
X038083Y024517*
X038147Y0246*
X038187Y024696*
X0382Y0248*
X038187Y024904*
X038147Y025*
X038083Y025083*
X038Y025147*
X037904Y025187*
X0378Y0252*
G37*
G36*
X0578Y024192D02*
Y02385D01*
X058142*
X058135Y023903*
X058095Y023999*
X058032Y024082*
X057949Y024145*
X057853Y024185*
X0578Y024192*
G37*
G36*
X055198Y025186D02*
X055095Y025173D01*
X054998Y025133*
X054916Y02507*
X054852Y024987*
X054813Y024891*
X054799Y024788*
X054813Y024685*
X054852Y024588*
X054916Y024506*
X054998Y024443*
X055095Y024403*
X055198Y024389*
X055301Y024403*
X055397Y024443*
X05548Y024506*
X055543Y024588*
X055562Y024635*
X055855*
Y024424*
Y024102*
X05625*
Y024052*
X0563*
Y023676*
X056645*
Y023897*
X057326*
X057359Y023859*
X057358Y02385*
X0577*
Y024192*
X057647Y024185*
X057598Y024165*
X057559Y024191*
X0575Y024203*
X056645*
Y024424*
Y025176*
X055855*
Y024941*
X055562*
X055543Y024987*
X05548Y02507*
X055397Y025133*
X055301Y025173*
X055198Y025186*
G37*
G36*
X0562Y024002D02*
X055855D01*
Y023676*
X0562*
Y024002*
G37*
G36*
X058142Y02375D02*
X0578D01*
Y023408*
X057853Y023415*
X057949Y023455*
X058032Y023518*
X058095Y023601*
X058135Y023697*
X058142Y02375*
G37*
G36*
X0577D02*
X057358D01*
X057365Y023697*
X057405Y023601*
X057468Y023518*
X057551Y023455*
X057647Y023415*
X0577Y023408*
Y02375*
G37*
G36*
X043466Y024805D02*
X042676D01*
Y02448*
Y023732*
X042947*
Y023564*
X042901Y023545*
X042818Y023482*
X042755Y023399*
X042715Y023303*
X042701Y0232*
X042715Y023097*
X042755Y023001*
X042818Y022918*
X042901Y022855*
X042997Y022815*
X0431Y022801*
X043203Y022815*
X043299Y022855*
X043382Y022918*
X043445Y023001*
X043485Y023097*
X043499Y0232*
X043485Y023303*
X043445Y023399*
X043382Y023482*
X043299Y023545*
X043253Y023564*
Y023732*
X043466*
Y02448*
Y024805*
G37*
G36*
X022801Y023498D02*
X021971D01*
Y022511*
X022801*
Y023498*
G37*
G36*
X016895D02*
X016065D01*
Y022511*
X016895*
Y023498*
G37*
G36*
X024386Y023502D02*
X024278Y023488D01*
X024177Y023446*
X02409Y023379*
X024023Y023293*
X023982Y023192*
X023967Y023083*
Y022926*
X023982Y022818*
X024023Y022717*
X02409Y02263*
X024177Y022564*
X024278Y022522*
X024386Y022507*
X024494Y022522*
X024595Y022564*
X024682Y02263*
X024748Y022717*
X02479Y022818*
X024804Y022926*
Y023083*
X02479Y023192*
X024748Y023293*
X024682Y023379*
X024595Y023446*
X024494Y023488*
X024386Y023502*
G37*
G36*
X023386D02*
X023277Y023488D01*
X023177Y023446*
X02309Y023379*
X023023Y023293*
X022982Y023192*
X022967Y023083*
Y022926*
X022982Y022818*
X023023Y022717*
X02309Y02263*
X023177Y022564*
X023277Y022522*
X023386Y022507*
X023494Y022522*
X023595Y022564*
X023682Y02263*
X023748Y022717*
X02379Y022818*
X023804Y022926*
Y023083*
X02379Y023192*
X023748Y023293*
X023682Y023379*
X023595Y023446*
X023494Y023488*
X023386Y023502*
G37*
G36*
X01848D02*
X018372Y023488D01*
X018271Y023446*
X018184Y023379*
X018118Y023293*
X018076Y023192*
X018062Y023083*
Y022926*
X018076Y022818*
X018118Y022717*
X018184Y02263*
X018271Y022564*
X018372Y022522*
X01848Y022507*
X018589Y022522*
X01869Y022564*
X018776Y02263*
X018843Y022717*
X018885Y022818*
X018899Y022926*
Y023083*
X018885Y023192*
X018843Y023293*
X018776Y023379*
X01869Y023446*
X018589Y023488*
X01848Y023502*
G37*
G36*
X01748D02*
X017372Y023488D01*
X017271Y023446*
X017184Y023379*
X017118Y023293*
X017076Y023192*
X017062Y023083*
Y022926*
X017076Y022818*
X017118Y022717*
X017184Y02263*
X017271Y022564*
X017372Y022522*
X01748Y022507*
X017589Y022522*
X01769Y022564*
X017776Y02263*
X017843Y022717*
X017885Y022818*
X017899Y022926*
Y023083*
X017885Y023192*
X017843Y023293*
X017776Y023379*
X01769Y023446*
X017589Y023488*
X01748Y023502*
G37*
G36*
X045685Y022885D02*
X044915D01*
Y022115*
X045685*
Y022885*
G37*
G36*
X0551Y0229D02*
X054996Y022887D01*
X0549Y022847*
X054817Y022783*
X054753Y0227*
X054713Y022604*
X0547Y0225*
X054713Y022396*
X054753Y0223*
X054817Y022217*
X0549Y022153*
X054996Y022113*
X0551Y0221*
X055204Y022113*
X0553Y022153*
X055383Y022217*
X055447Y0223*
X055487Y022396*
X0555Y0225*
X055487Y022604*
X055447Y0227*
X055383Y022783*
X0553Y022847*
X055204Y022887*
X0551Y0229*
G37*
G36*
X033085Y022685D02*
X032315D01*
Y021915*
X033085*
Y022685*
G37*
G36*
X0337Y022689D02*
X033599Y022676D01*
X033506Y022637*
X033425Y022575*
X033363Y022494*
X033324Y022401*
X033311Y0223*
X033324Y022199*
X033363Y022106*
X033425Y022025*
X033506Y021963*
X033599Y021924*
X0337Y021911*
X033801Y021924*
X033894Y021963*
X033975Y022025*
X034037Y022106*
X034076Y022199*
X034089Y0223*
X034076Y022401*
X034037Y022494*
X033975Y022575*
X033894Y022637*
X033801Y022676*
X0337Y022689*
G37*
G36*
X058604Y022185D02*
X057833D01*
Y021415*
X058604*
Y022185*
G37*
G36*
X059219Y022189D02*
X059118Y022176D01*
X059024Y022137*
X058944Y022075*
X058882Y021994*
X058843Y021901*
X05883Y0218*
X058843Y021699*
X058882Y021606*
X058944Y021525*
X059024Y021463*
X059118Y021424*
X059219Y021411*
X059319Y021424*
X059413Y021463*
X059493Y021525*
X059555Y021606*
X059594Y021699*
X059607Y0218*
X059594Y021901*
X059555Y021994*
X059493Y022075*
X059413Y022137*
X059319Y022176*
X059219Y022189*
G37*
G36*
X042218Y0222D02*
X042115Y022187D01*
X042018Y022147*
X041935Y022083*
X041872Y022*
X041832Y021904*
X041818Y0218*
X041832Y021696*
X041872Y0216*
X041935Y021517*
X042018Y021453*
X042115Y021413*
X042218Y0214*
X042322Y021413*
X042419Y021453*
X042502Y021517*
X042565Y0216*
X042605Y021696*
X042619Y0218*
X042605Y021904*
X042565Y022*
X042502Y022083*
X042419Y022147*
X042322Y022187*
X042218Y0222*
G37*
G36*
X0453Y021889D02*
X045199Y021876D01*
X045106Y021837*
X045025Y021775*
X044963Y021694*
X044924Y021601*
X044911Y0215*
X044924Y021399*
X044963Y021306*
X045025Y021225*
X045106Y021163*
X045199Y021124*
X0453Y021111*
X045401Y021124*
X045494Y021163*
X045575Y021225*
X045637Y021306*
X045676Y021399*
X045689Y0215*
X045676Y021601*
X045637Y021694*
X045575Y021775*
X045494Y021837*
X045401Y021876*
X0453Y021889*
G37*
G36*
X028281Y026994D02*
X027294D01*
Y026006*
X027747*
Y023195*
X02695*
Y022405*
X027252*
Y021866*
X027201Y021845*
X027118Y021782*
X027055Y021699*
X027015Y021603*
X027001Y0215*
X027015Y021397*
X027055Y021301*
X027118Y021218*
X027201Y021155*
X027297Y021115*
X0274Y021101*
X027503Y021115*
X027599Y021155*
X027682Y021218*
X027718Y021266*
X027782*
X027818Y021218*
X027901Y021155*
X027997Y021115*
X0281Y021101*
X028203Y021115*
X028299Y021155*
X028382Y021218*
X028445Y021301*
X028485Y021397*
X028499Y0215*
X028485Y021603*
X028445Y021699*
X028382Y021782*
X028299Y021845*
X028253Y021864*
Y022405*
X02845*
Y023195*
X028053*
Y026006*
X028281*
Y026994*
G37*
G36*
X0551Y0219D02*
X054996Y021887D01*
X0549Y021847*
X054817Y021783*
X054753Y0217*
X054713Y021604*
X0547Y0215*
X054713Y021396*
X054753Y0213*
X054817Y021217*
X0549Y021153*
X054996Y021113*
X0551Y0211*
X055204Y021113*
X0553Y021153*
X055383Y021217*
X055447Y0213*
X055487Y021396*
X0555Y0215*
X055487Y021604*
X055447Y0217*
X055383Y021783*
X0553Y021847*
X055204Y021887*
X0551Y0219*
G37*
G36*
X042218Y0212D02*
X042115Y021187D01*
X042018Y021147*
X041935Y021083*
X041872Y021*
X041832Y020904*
X041818Y0208*
X041832Y020696*
X041872Y0206*
X041935Y020517*
X042018Y020453*
X042115Y020413*
X042218Y0204*
X042322Y020413*
X042419Y020453*
X042502Y020517*
X042565Y0206*
X042605Y020696*
X042619Y0208*
X042605Y020904*
X042565Y021*
X042502Y021083*
X042419Y021147*
X042322Y021187*
X042218Y0212*
G37*
G36*
X062104Y020935D02*
X061333D01*
Y020165*
X062104*
Y020935*
G37*
G36*
X049354D02*
X048583D01*
Y020165*
X049354*
Y020935*
G37*
G36*
X027854D02*
X027083D01*
Y020165*
X027854*
Y020935*
G37*
G36*
X064718Y020939D02*
X064618Y020926D01*
X064524Y020887*
X064444Y020825*
X064382Y020744*
X064343Y020651*
X06433Y02055*
X064343Y020449*
X064382Y020356*
X064444Y020275*
X064524Y020213*
X064618Y020174*
X064718Y020161*
X064819Y020174*
X064913Y020213*
X064993Y020275*
X065055Y020356*
X065094Y020449*
X065107Y02055*
X065094Y020651*
X065055Y020744*
X064993Y020825*
X064913Y020887*
X064819Y020926*
X064718Y020939*
G37*
G36*
X051968D02*
X051868Y020926D01*
X051774Y020887*
X051694Y020825*
X051632Y020744*
X051593Y020651*
X05158Y02055*
X051593Y020449*
X051632Y020356*
X051694Y020275*
X051774Y020213*
X051868Y020174*
X051968Y020161*
X052069Y020174*
X052163Y020213*
X052243Y020275*
X052305Y020356*
X052344Y020449*
X052357Y02055*
X052344Y020651*
X052305Y020744*
X052243Y020825*
X052163Y020887*
X052069Y020926*
X051968Y020939*
G37*
G36*
X039218D02*
X039118Y020926D01*
X039024Y020887*
X038944Y020825*
X038882Y020744*
X038843Y020651*
X03883Y02055*
X038843Y020449*
X038882Y020356*
X038944Y020275*
X039024Y020213*
X039118Y020174*
X039218Y020161*
X039319Y020174*
X039413Y020213*
X039493Y020275*
X039555Y020356*
X039594Y020449*
X039607Y02055*
X039594Y020651*
X039555Y020744*
X039493Y020825*
X039413Y020887*
X039319Y020926*
X039218Y020939*
G37*
G36*
X030468D02*
X030368Y020926D01*
X030274Y020887*
X030194Y020825*
X030132Y020744*
X030093Y020651*
X03008Y02055*
X030093Y020449*
X030132Y020356*
X030194Y020275*
X030274Y020213*
X030368Y020174*
X030468Y020161*
X030569Y020174*
X030663Y020213*
X030743Y020275*
X030805Y020356*
X030844Y020449*
X030857Y02055*
X030844Y020651*
X030805Y020744*
X030743Y020825*
X030663Y020887*
X030569Y020926*
X030468Y020939*
G37*
G36*
X055497Y020897D02*
X054703D01*
Y020103*
X055497*
Y020897*
G37*
G36*
X042615Y020197D02*
X041822D01*
Y019403*
X042615*
Y020197*
G37*
G36*
X064718Y019939D02*
X064618Y019926D01*
X064524Y019887*
X064444Y019825*
X064382Y019744*
X064343Y019651*
X06433Y01955*
X064343Y019449*
X064382Y019356*
X064444Y019275*
X064524Y019213*
X064618Y019174*
X064718Y019161*
X064819Y019174*
X064913Y019213*
X064993Y019275*
X065055Y019356*
X065094Y019449*
X065107Y01955*
X065094Y019651*
X065055Y019744*
X064993Y019825*
X064913Y019887*
X064819Y019926*
X064718Y019939*
G37*
G36*
X051968D02*
X051868Y019926D01*
X051774Y019887*
X051694Y019825*
X051632Y019744*
X051593Y019651*
X05158Y01955*
X051593Y019449*
X051632Y019356*
X051694Y019275*
X051774Y019213*
X051868Y019174*
X051968Y019161*
X052069Y019174*
X052163Y019213*
X052243Y019275*
X052305Y019356*
X052344Y019449*
X052357Y01955*
X052344Y019651*
X052305Y019744*
X052243Y019825*
X052163Y019887*
X052069Y019926*
X051968Y019939*
G37*
G36*
X036219D02*
X036118Y019926D01*
X036024Y019887*
X035944Y019825*
X035882Y019744*
X035843Y019651*
X03583Y01955*
X035843Y019449*
X035882Y019356*
X035944Y019275*
X036024Y019213*
X036118Y019174*
X036219Y019161*
X036319Y019174*
X036413Y019213*
X036493Y019275*
X036555Y019356*
X036594Y019449*
X036607Y01955*
X036594Y019651*
X036555Y019744*
X036493Y019825*
X036413Y019887*
X036319Y019926*
X036219Y019939*
G37*
G36*
X030468D02*
X030368Y019926D01*
X030274Y019887*
X030194Y019825*
X030132Y019744*
X030093Y019651*
X03008Y01955*
X030093Y019449*
X030132Y019356*
X030194Y019275*
X030274Y019213*
X030368Y019174*
X030468Y019161*
X030569Y019174*
X030663Y019213*
X030743Y019275*
X030805Y019356*
X030844Y019449*
X030857Y01955*
X030844Y019651*
X030805Y019744*
X030743Y019825*
X030663Y019887*
X030569Y019926*
X030468Y019939*
G37*
G36*
X027469D02*
X027368Y019926D01*
X027274Y019887*
X027194Y019825*
X027132Y019744*
X027093Y019651*
X02708Y01955*
X027093Y019449*
X027132Y019356*
X027194Y019275*
X027274Y019213*
X027368Y019174*
X027469Y019161*
X027569Y019174*
X027663Y019213*
X027743Y019275*
X027805Y019356*
X027844Y019449*
X027857Y01955*
X027844Y019651*
X027805Y019744*
X027743Y019825*
X027663Y019887*
X027569Y019926*
X027469Y019939*
G37*
G36*
X0567Y026599D02*
X056597Y026585D01*
X056501Y026545*
X056418Y026482*
X056355Y026399*
X056315Y026303*
X056301Y0262*
X056315Y026097*
X056355Y026001*
X056418Y025918*
X056501Y025855*
X056597Y025815*
X0567Y025801*
X056803Y025815*
X056899Y025855*
X056916Y025868*
X061392Y021392*
X061441Y021359*
X0615Y021347*
X064837*
X065447Y020737*
Y019864*
X065401Y019845*
X065318Y019782*
X065255Y019699*
X065215Y019603*
X065201Y0195*
X065215Y019397*
X065255Y019301*
X065318Y019218*
X065401Y019155*
X065497Y019115*
X0656Y019101*
X065703Y019115*
X065799Y019155*
X065882Y019218*
X065945Y019301*
X065985Y019397*
X065999Y0195*
X065985Y019603*
X065945Y019699*
X065882Y019782*
X065799Y019845*
X065753Y019864*
Y0208*
X065741Y020859*
X065708Y020908*
X065008Y021608*
X064959Y021641*
X0649Y021653*
X061563*
X057089Y026127*
X057099Y0262*
X057085Y026303*
X057045Y026399*
X056982Y026482*
X056899Y026545*
X056803Y026585*
X0567Y026599*
G37*
G36*
X033Y019099D02*
X032897Y019085D01*
X032801Y019045*
X032718Y018982*
X032658Y018904*
X0322*
X032122Y018888*
X032056Y018844*
X031463Y018251*
X030788*
X030764Y018301*
X030805Y018356*
X030844Y018449*
X030857Y01855*
X030844Y018651*
X030805Y018744*
X030743Y018825*
X030663Y018887*
X030569Y018926*
X030468Y018939*
X030368Y018926*
X030274Y018887*
X030194Y018825*
X030132Y018744*
X030093Y018651*
X03008Y01855*
X030093Y018449*
X030132Y018356*
X030188Y018282*
X030189Y018278*
X030188Y018251*
X030181Y018222*
X030135Y018192*
X029698Y017754*
X027798*
X027743Y017825*
X027663Y017887*
X027569Y017926*
X027469Y017939*
X027368Y017926*
X027274Y017887*
X027194Y017825*
X027132Y017744*
X027093Y017651*
X02708Y01755*
X027093Y017449*
X027132Y017356*
X027194Y017275*
X027274Y017213*
X027368Y017174*
X027469Y017161*
X027569Y017174*
X027663Y017213*
X027743Y017275*
X027798Y017346*
X029782*
X02986Y017362*
X029926Y017406*
X030034Y017514*
X030087Y017496*
X030093Y017449*
X030132Y017356*
X030194Y017275*
X030274Y017213*
X030368Y017174*
X030468Y017161*
X030569Y017174*
X030663Y017213*
X030743Y017275*
X030805Y017356*
X030844Y017449*
X030857Y01755*
X030844Y017651*
X030805Y017744*
X030767Y017794*
X030792Y017844*
X031221*
X031237Y017796*
X031218Y017782*
X031155Y017699*
X031115Y017603*
X031101Y0175*
X031115Y017397*
X031155Y017301*
X031218Y017218*
X031301Y017155*
X031397Y017115*
X0315Y017101*
X031603Y017115*
X031699Y017155*
X031782Y017218*
X031842Y017296*
X032573*
Y017174*
Y016852*
X032968*
Y016802*
X033019*
Y016426*
X033364*
Y016647*
X033823*
Y016424*
X034169*
Y0168*
X034218*
Y01685*
X034614*
Y017172*
Y017924*
X034131*
X033394Y018661*
X033399Y0187*
X033385Y018803*
X033345Y018899*
X033282Y018982*
X033199Y019045*
X033103Y019085*
X033Y019099*
G37*
G36*
X016883Y019794D02*
X016054D01*
Y018806*
X016883*
Y019794*
G37*
G36*
X024386Y019797D02*
X024278Y019783D01*
X024177Y019741*
X02409Y019675*
X024023Y019588*
X023982Y019487*
X023967Y019379*
Y019221*
X023982Y019113*
X024023Y019012*
X02409Y018925*
X024177Y018859*
X024278Y018817*
X024386Y018803*
X024494Y018817*
X024595Y018859*
X024682Y018925*
X024748Y019012*
X02479Y019113*
X024804Y019221*
Y019379*
X02479Y019487*
X024748Y019588*
X024682Y019675*
X024595Y019741*
X024494Y019783*
X024386Y019797*
G37*
G36*
X018469D02*
X01836Y019783D01*
X018259Y019741*
X018173Y019675*
X018106Y019588*
X018064Y019487*
X01805Y019379*
Y019221*
X018064Y019113*
X018106Y019012*
X018173Y018925*
X018259Y018859*
X01836Y018817*
X018469Y018803*
X018577Y018817*
X018678Y018859*
X018764Y018925*
X018831Y019012*
X018873Y019113*
X018887Y019221*
Y019379*
X018873Y019487*
X018831Y019588*
X018764Y019675*
X018678Y019741*
X018577Y019783*
X018469Y019797*
G37*
G36*
X017469D02*
X01736Y019783D01*
X017259Y019741*
X017173Y019675*
X017106Y019588*
X017064Y019487*
X01705Y019379*
Y019221*
X017064Y019113*
X017106Y019012*
X017173Y018925*
X017259Y018859*
X01736Y018817*
X017469Y018803*
X017577Y018817*
X017678Y018859*
X017764Y018925*
X017831Y019012*
X017873Y019113*
X017887Y019221*
Y019379*
X017873Y019487*
X017831Y019588*
X017764Y019675*
X017678Y019741*
X017577Y019783*
X017469Y019797*
G37*
G36*
X059895Y01855D02*
X05955D01*
Y018224*
X059895*
Y01855*
G37*
G36*
X064718Y018939D02*
X064618Y018926D01*
X064524Y018887*
X064444Y018825*
X064382Y018744*
X064343Y018651*
X06433Y01855*
X064343Y018449*
X064382Y018356*
X064444Y018275*
X064524Y018213*
X064618Y018174*
X064718Y018161*
X064819Y018174*
X064913Y018213*
X064993Y018275*
X065055Y018356*
X065094Y018449*
X065107Y01855*
X065094Y018651*
X065055Y018744*
X064993Y018825*
X064913Y018887*
X064819Y018926*
X064718Y018939*
G37*
G36*
X061719D02*
X061618Y018926D01*
X061524Y018887*
X061444Y018825*
X061382Y018744*
X061343Y018651*
X06133Y01855*
X061343Y018449*
X061382Y018356*
X061444Y018275*
X061524Y018213*
X061618Y018174*
X061719Y018161*
X061819Y018174*
X061913Y018213*
X061993Y018275*
X062055Y018356*
X062094Y018449*
X062107Y01855*
X062094Y018651*
X062055Y018744*
X061993Y018825*
X061913Y018887*
X061819Y018926*
X061719Y018939*
G37*
G36*
X036219D02*
X036118Y018926D01*
X036024Y018887*
X035944Y018825*
X035882Y018744*
X035843Y018651*
X03583Y01855*
X035843Y018449*
X035882Y018356*
X035944Y018275*
X036024Y018213*
X036118Y018174*
X036219Y018161*
X036319Y018174*
X036413Y018213*
X036493Y018275*
X036555Y018356*
X036594Y018449*
X036607Y01855*
X036594Y018651*
X036555Y018744*
X036493Y018825*
X036413Y018887*
X036319Y018926*
X036219Y018939*
G37*
G36*
X027469D02*
X027368Y018926D01*
X027274Y018887*
X027194Y018825*
X027132Y018744*
X027093Y018651*
X02708Y01855*
X027093Y018449*
X027132Y018356*
X027194Y018275*
X027274Y018213*
X027368Y018174*
X027469Y018161*
X027569Y018174*
X027663Y018213*
X027743Y018275*
X027805Y018356*
X027844Y018449*
X027857Y01855*
X027844Y018651*
X027805Y018744*
X027743Y018825*
X027663Y018887*
X027569Y018926*
X027469Y018939*
G37*
G36*
X043614Y017926D02*
X043268D01*
Y0176*
X043614*
Y017926*
G37*
G36*
X043169D02*
X042823D01*
Y0176*
X043169*
Y017926*
G37*
G36*
X064718Y017939D02*
X064618Y017926D01*
X064524Y017887*
X064444Y017825*
X064382Y017744*
X064343Y017651*
X06433Y01755*
X064343Y017449*
X064382Y017356*
X064444Y017275*
X064524Y017213*
X064618Y017174*
X064718Y017161*
X064819Y017174*
X064913Y017213*
X064993Y017275*
X065055Y017356*
X065094Y017449*
X065107Y01755*
X065094Y017651*
X065055Y017744*
X064993Y017825*
X064913Y017887*
X064819Y017926*
X064718Y017939*
G37*
G36*
X061719D02*
X061618Y017926D01*
X061524Y017887*
X061444Y017825*
X061382Y017744*
X061343Y017651*
X06133Y01755*
X061343Y017449*
X061382Y017356*
X061444Y017275*
X061524Y017213*
X061618Y017174*
X061719Y017161*
X061819Y017174*
X061913Y017213*
X061993Y017275*
X062055Y017356*
X062094Y017449*
X062107Y01755*
X062094Y017651*
X062055Y017744*
X061993Y017825*
X061913Y017887*
X061819Y017926*
X061719Y017939*
G37*
G36*
X039218D02*
X039118Y017926D01*
X039024Y017887*
X038944Y017825*
X038882Y017744*
X038843Y017651*
X03883Y01755*
X038843Y017449*
X038882Y017356*
X038944Y017275*
X039024Y017213*
X039118Y017174*
X039218Y017161*
X039319Y017174*
X039413Y017213*
X039493Y017275*
X039555Y017356*
X039594Y017449*
X039607Y01755*
X039594Y017651*
X039555Y017744*
X039493Y017825*
X039413Y017887*
X039319Y017926*
X039218Y017939*
G37*
G36*
X036219D02*
X036118Y017926D01*
X036024Y017887*
X035944Y017825*
X035882Y017744*
X035843Y017651*
X03583Y01755*
X035843Y017449*
X035882Y017356*
X035944Y017275*
X036024Y017213*
X036118Y017174*
X036219Y017161*
X036319Y017174*
X036413Y017213*
X036493Y017275*
X036555Y017356*
X036594Y017449*
X036607Y01755*
X036594Y017651*
X036555Y017744*
X036493Y017825*
X036413Y017887*
X036319Y017926*
X036219Y017939*
G37*
G36*
X058395Y017376D02*
X05805D01*
Y01705*
X058395*
Y017376*
G37*
G36*
X056364Y0175D02*
X055968D01*
X055573*
Y017174*
Y016953*
X055364*
X055345Y016999*
X055282Y017082*
X055199Y017145*
X055103Y017185*
X055Y017199*
X054897Y017185*
X054801Y017145*
X054718Y017082*
X054655Y016999*
X054615Y016903*
X054601Y0168*
X054615Y016697*
X054655Y016601*
X054718Y016518*
X054801Y016455*
X054847Y016436*
Y016063*
X05395Y015166*
X053903Y015185*
X0538Y015199*
X053697Y015185*
X053601Y015145*
X053518Y015082*
X053455Y014999*
X053415Y014903*
X053401Y0148*
X053415Y014697*
X053455Y014601*
X053518Y014518*
X053601Y014455*
X053697Y014415*
X0538Y014401*
X053903Y014415*
X053999Y014455*
X054082Y014518*
X054145Y014601*
X054185Y014697*
X054199Y0148*
X054185Y014903*
X054166Y01495*
X055108Y015892*
X055141Y015941*
X055153Y016*
Y016436*
X055199Y016455*
X055282Y016518*
X055345Y016601*
X055364Y016647*
X055573*
Y016426*
X056364*
Y017174*
Y0175*
G37*
G36*
X0657Y017999D02*
X065597Y017985D01*
X065501Y017945*
X065418Y017882*
X065355Y017799*
X065315Y017703*
X065301Y0176*
X065315Y017497*
X065355Y017401*
X065418Y017318*
X065501Y017255*
X065597Y017215*
X0657Y017201*
X065803Y017215*
X065899Y017255*
X065982Y017318*
X066042Y017396*
X066805*
Y017172*
Y01685*
X0672*
X067595*
Y017172*
Y017924*
X066805*
Y017804*
X066042*
X065982Y017882*
X065899Y017945*
X065803Y017985*
X0657Y017999*
G37*
G36*
X047195Y016776D02*
X04685D01*
Y01645*
X047195*
Y016776*
G37*
G36*
X04675D02*
X046405D01*
Y01645*
X04675*
Y016776*
G37*
G36*
X054395Y016752D02*
X05405D01*
Y016426*
X054395*
Y016752*
G37*
G36*
X05395D02*
X053605D01*
Y016426*
X05395*
Y016752*
G37*
G36*
X042114D02*
X041768D01*
Y016426*
X042114*
Y016752*
G37*
G36*
X041669D02*
X041323D01*
Y016426*
X041669*
Y016752*
G37*
G36*
X032919D02*
X032573D01*
Y016426*
X032919*
Y016752*
G37*
G36*
X067595Y01675D02*
X06725D01*
Y016424*
X067595*
Y01675*
G37*
G36*
X06715D02*
X066805D01*
Y016424*
X06715*
Y01675*
G37*
G36*
X034614D02*
X034269D01*
Y016424*
X034614*
Y01675*
G37*
G36*
X025695Y016676D02*
X02535D01*
Y01635*
X025695*
Y016676*
G37*
G36*
X02525D02*
X024905D01*
Y01635*
X02525*
Y016676*
G37*
G36*
X064718Y016939D02*
X064618Y016926D01*
X064524Y016887*
X064444Y016825*
X064382Y016744*
X064343Y016651*
X06433Y01655*
X064343Y016449*
X064382Y016356*
X064444Y016275*
X064524Y016213*
X064618Y016174*
X064718Y016161*
X064819Y016174*
X064913Y016213*
X064993Y016275*
X065055Y016356*
X065094Y016449*
X065107Y01655*
X065094Y016651*
X065055Y016744*
X064993Y016825*
X064913Y016887*
X064819Y016926*
X064718Y016939*
G37*
G36*
X051968D02*
X051868Y016926D01*
X051774Y016887*
X051694Y016825*
X051632Y016744*
X051593Y016651*
X05158Y01655*
X051593Y016449*
X051632Y016356*
X051694Y016275*
X051774Y016213*
X051868Y016174*
X051968Y016161*
X052069Y016174*
X052163Y016213*
X052243Y016275*
X052305Y016356*
X052344Y016449*
X052357Y01655*
X052344Y016651*
X052305Y016744*
X052243Y016825*
X052163Y016887*
X052069Y016926*
X051968Y016939*
G37*
G36*
X048969D02*
X048868Y016926D01*
X048774Y016887*
X048694Y016825*
X048632Y016744*
X048593Y016651*
X04858Y01655*
X048593Y016449*
X048632Y016356*
X048694Y016275*
X048774Y016213*
X048868Y016174*
X048969Y016161*
X049069Y016174*
X049163Y016213*
X049243Y016275*
X049305Y016356*
X049344Y016449*
X049357Y01655*
X049344Y016651*
X049305Y016744*
X049243Y016825*
X049163Y016887*
X049069Y016926*
X048969Y016939*
G37*
G36*
X039218D02*
X039118Y016926D01*
X039024Y016887*
X038944Y016825*
X038882Y016744*
X038843Y016651*
X03883Y01655*
X038843Y016449*
X038882Y016356*
X038944Y016275*
X039024Y016213*
X039118Y016174*
X039218Y016161*
X039319Y016174*
X039413Y016213*
X039493Y016275*
X039555Y016356*
X039594Y016449*
X039607Y01655*
X039594Y016651*
X039555Y016744*
X039493Y016825*
X039413Y016887*
X039319Y016926*
X039218Y016939*
G37*
G36*
X036219D02*
X036118Y016926D01*
X036024Y016887*
X035944Y016825*
X035882Y016744*
X035843Y016651*
X03583Y01655*
X035843Y016449*
X035882Y016356*
X035944Y016275*
X036024Y016213*
X036118Y016174*
X036219Y016161*
X036319Y016174*
X036413Y016213*
X036493Y016275*
X036555Y016356*
X036594Y016449*
X036607Y01655*
X036594Y016651*
X036555Y016744*
X036493Y016825*
X036413Y016887*
X036319Y016926*
X036219Y016939*
G37*
G36*
X030468D02*
X030368Y016926D01*
X030274Y016887*
X030194Y016825*
X030132Y016744*
X030093Y016651*
X03008Y01655*
X030093Y016449*
X030132Y016356*
X030194Y016275*
X030274Y016213*
X030368Y016174*
X030468Y016161*
X030569Y016174*
X030663Y016213*
X030743Y016275*
X030805Y016356*
X030844Y016449*
X030857Y01655*
X030844Y016651*
X030805Y016744*
X030743Y016825*
X030663Y016887*
X030569Y016926*
X030468Y016939*
G37*
G36*
X027469D02*
X027368Y016926D01*
X027274Y016887*
X027194Y016825*
X027132Y016744*
X027093Y016651*
X02708Y01655*
X027093Y016449*
X027132Y016356*
X027194Y016275*
X027274Y016213*
X027368Y016174*
X027469Y016161*
X027569Y016174*
X027663Y016213*
X027743Y016275*
X027805Y016356*
X027844Y016449*
X027857Y01655*
X027844Y016651*
X027805Y016744*
X027743Y016825*
X027663Y016887*
X027569Y016926*
X027469Y016939*
G37*
G36*
X016468Y0167D02*
X016365Y016687D01*
X016268Y016647*
X016185Y016583*
X016122Y0165*
X016082Y016404*
X016068Y0163*
X016082Y016196*
X016122Y0161*
X016185Y016017*
X016268Y015953*
X016365Y015913*
X016468Y0159*
X016572Y015913*
X016669Y015953*
X016752Y016017*
X016815Y0161*
X016855Y016196*
X016869Y0163*
X016855Y016404*
X016815Y0165*
X016752Y016583*
X016669Y016647*
X016572Y016687*
X016468Y0167*
G37*
G36*
X015468D02*
X015365Y016687D01*
X015268Y016647*
X015185Y016583*
X015122Y0165*
X015082Y016404*
X015068Y0163*
X015082Y016196*
X015122Y0161*
X015185Y016017*
X015268Y015953*
X015365Y015913*
X015468Y0159*
X015572Y015913*
X015669Y015953*
X015752Y016017*
X015815Y0161*
X015855Y016196*
X015869Y0163*
X015855Y016404*
X015815Y0165*
X015752Y016583*
X015669Y016647*
X015572Y016687*
X015468Y0167*
G37*
G36*
X0164Y018199D02*
X016297Y018185D01*
X016201Y018145*
X016118Y018082*
X016055Y017999*
X016015Y017903*
X016001Y0178*
X016015Y017697*
X016055Y017601*
X016118Y017518*
X016201Y017455*
X016297Y017415*
X0164Y017401*
X016503Y017415*
X016599Y017455*
X016682Y017518*
X016745Y017601*
X016764Y017647*
X017537*
X018419Y016765*
X018398Y016715*
X018077*
Y015885*
X019655*
Y016715*
X018757*
Y016796*
X018745Y016855*
X018712Y016904*
X017708Y017908*
X017659Y017941*
X0176Y017953*
X016764*
X016745Y017999*
X016682Y018082*
X016599Y018145*
X016503Y018185*
X0164Y018199*
G37*
G36*
X061719Y015939D02*
X061618Y015926D01*
X061524Y015887*
X061444Y015825*
X061382Y015744*
X061343Y015651*
X06133Y01555*
X061343Y015449*
X061382Y015356*
X061444Y015275*
X061524Y015213*
X061618Y015174*
X061719Y015161*
X061819Y015174*
X061913Y015213*
X061993Y015275*
X062055Y015356*
X062094Y015449*
X062107Y01555*
X062094Y015651*
X062055Y015744*
X061993Y015825*
X061913Y015887*
X061819Y015926*
X061719Y015939*
G37*
G36*
X051968D02*
X051868Y015926D01*
X051774Y015887*
X051694Y015825*
X051632Y015744*
X051593Y015651*
X05158Y01555*
X051593Y015449*
X051632Y015356*
X051694Y015275*
X051774Y015213*
X051868Y015174*
X051968Y015161*
X052069Y015174*
X052163Y015213*
X052243Y015275*
X052305Y015356*
X052344Y015449*
X052357Y01555*
X052344Y015651*
X052305Y015744*
X052243Y015825*
X052163Y015887*
X052069Y015926*
X051968Y015939*
G37*
G36*
X039218D02*
X039118Y015926D01*
X039024Y015887*
X038944Y015825*
X038882Y015744*
X038843Y015651*
X03883Y01555*
X038843Y015449*
X038882Y015356*
X038944Y015275*
X039024Y015213*
X039118Y015174*
X039218Y015161*
X039319Y015174*
X039413Y015213*
X039493Y015275*
X039555Y015356*
X039594Y015449*
X039607Y01555*
X039594Y015651*
X039555Y015744*
X039493Y015825*
X039413Y015887*
X039319Y015926*
X039218Y015939*
G37*
G36*
X036219D02*
X036118Y015926D01*
X036024Y015887*
X035944Y015825*
X035882Y015744*
X035843Y015651*
X03583Y01555*
X035843Y015449*
X035882Y015356*
X035944Y015275*
X036024Y015213*
X036118Y015174*
X036219Y015161*
X036319Y015174*
X036413Y015213*
X036493Y015275*
X036555Y015356*
X036594Y015449*
X036607Y01555*
X036594Y015651*
X036555Y015744*
X036493Y015825*
X036413Y015887*
X036319Y015926*
X036219Y015939*
G37*
G36*
X030468D02*
X030368Y015926D01*
X030274Y015887*
X030194Y015825*
X030132Y015744*
X030093Y015651*
X03008Y01555*
X030093Y015449*
X030132Y015356*
X030194Y015275*
X030274Y015213*
X030368Y015174*
X030468Y015161*
X030569Y015174*
X030663Y015213*
X030743Y015275*
X030805Y015356*
X030844Y015449*
X030857Y01555*
X030844Y015651*
X030805Y015744*
X030743Y015825*
X030663Y015887*
X030569Y015926*
X030468Y015939*
G37*
G36*
X027469D02*
X027368Y015926D01*
X027274Y015887*
X027194Y015825*
X027132Y015744*
X027093Y015651*
X02708Y01555*
X027093Y015449*
X027132Y015356*
X027194Y015275*
X027274Y015213*
X027368Y015174*
X027469Y015161*
X027569Y015174*
X027663Y015213*
X027743Y015275*
X027805Y015356*
X027844Y015449*
X027857Y01555*
X027844Y015651*
X027805Y015744*
X027743Y015825*
X027663Y015887*
X027569Y015926*
X027469Y015939*
G37*
G36*
X067614Y015426D02*
X067269D01*
Y0151*
X067614*
Y015426*
G37*
G36*
X067168D02*
X066823D01*
Y0151*
X067168*
Y015426*
G37*
G36*
X055865Y015197D02*
X055072D01*
Y014403*
X055865*
Y015197*
G37*
G36*
X051968Y014939D02*
X051868Y014926D01*
X051774Y014887*
X051694Y014825*
X051632Y014744*
X051593Y014651*
X05158Y01455*
X051593Y014449*
X051632Y014356*
X051694Y014275*
X051774Y014213*
X051868Y014174*
X051968Y014161*
X052069Y014174*
X052163Y014213*
X052243Y014275*
X052305Y014356*
X052344Y014449*
X052357Y01455*
X052344Y014651*
X052305Y014744*
X052243Y014825*
X052163Y014887*
X052069Y014926*
X051968Y014939*
G37*
G36*
X039218D02*
X039118Y014926D01*
X039024Y014887*
X038944Y014825*
X038882Y014744*
X038843Y014651*
X03883Y01455*
X038843Y014449*
X038882Y014356*
X038944Y014275*
X039024Y014213*
X039118Y014174*
X039218Y014161*
X039319Y014174*
X039413Y014213*
X039493Y014275*
X039555Y014356*
X039594Y014449*
X039607Y01455*
X039594Y014651*
X039555Y014744*
X039493Y014825*
X039413Y014887*
X039319Y014926*
X039218Y014939*
G37*
G36*
X036219D02*
X036118Y014926D01*
X036024Y014887*
X035944Y014825*
X035882Y014744*
X035843Y014651*
X03583Y01455*
X035843Y014449*
X035882Y014356*
X035944Y014275*
X036024Y014213*
X036118Y014174*
X036219Y014161*
X036319Y014174*
X036413Y014213*
X036493Y014275*
X036555Y014356*
X036594Y014449*
X036607Y01455*
X036594Y014651*
X036555Y014744*
X036493Y014825*
X036413Y014887*
X036319Y014926*
X036219Y014939*
G37*
G36*
X030468D02*
X030368Y014926D01*
X030274Y014887*
X030194Y014825*
X030132Y014744*
X030093Y014651*
X03008Y01455*
X030093Y014449*
X030132Y014356*
X030194Y014275*
X030274Y014213*
X030368Y014174*
X030468Y014161*
X030569Y014174*
X030663Y014213*
X030743Y014275*
X030805Y014356*
X030844Y014449*
X030857Y01455*
X030844Y014651*
X030805Y014744*
X030743Y014825*
X030663Y014887*
X030569Y014926*
X030468Y014939*
G37*
G36*
X027469D02*
X027368Y014926D01*
X027274Y014887*
X027194Y014825*
X027132Y014744*
X027093Y014651*
X02708Y01455*
X027093Y014449*
X027132Y014356*
X027194Y014275*
X027274Y014213*
X027368Y014174*
X027469Y014161*
X027569Y014174*
X027663Y014213*
X027743Y014275*
X027805Y014356*
X027844Y014449*
X027857Y01455*
X027844Y014651*
X027805Y014744*
X027743Y014825*
X027663Y014887*
X027569Y014926*
X027469Y014939*
G37*
G36*
X0605Y014199D02*
X060397Y014185D01*
X060301Y014145*
X060218Y014082*
X060155Y013999*
X060115Y013903*
X060101Y0138*
X060115Y013697*
X060155Y013601*
X060168Y013584*
X059369Y012785*
X058815*
Y012015*
X059585*
Y012569*
X060427Y013411*
X0605Y013401*
X060603Y013415*
X060699Y013455*
X060782Y013518*
X060845Y013601*
X060885Y013697*
X060899Y0138*
X060885Y013903*
X060845Y013999*
X060782Y014082*
X060699Y014145*
X060603Y014185*
X0605Y014199*
G37*
G36*
X055469Y0142D02*
X055365Y014187D01*
X055268Y014147*
X055185Y014083*
X055122Y014*
X055082Y013904*
X055068Y0138*
X055082Y013696*
X055122Y0136*
X055185Y013517*
X055268Y013453*
X055365Y013413*
X055469Y0134*
X055572Y013413*
X055669Y013453*
X055752Y013517*
X055815Y0136*
X055855Y013696*
X055869Y0138*
X055855Y013904*
X055815Y014*
X055752Y014083*
X055669Y014147*
X055572Y014187*
X055469Y0142*
G37*
G36*
X042719D02*
X042615Y014187D01*
X042518Y014147*
X042435Y014083*
X042372Y014*
X042332Y013904*
X042318Y0138*
X042332Y013696*
X042372Y0136*
X042435Y013517*
X042518Y013453*
X042615Y013413*
X042719Y0134*
X042822Y013413*
X042919Y013453*
X043002Y013517*
X043065Y0136*
X043105Y013696*
X043119Y0138*
X043105Y013904*
X043065Y014*
X043002Y014083*
X042919Y014147*
X042822Y014187*
X042719Y0142*
G37*
G36*
X019364Y01305D02*
X019018D01*
Y012724*
X019364*
Y01305*
G37*
G36*
X049Y014099D02*
X048897Y014085D01*
X048801Y014045*
X048718Y013982*
X048655Y013899*
X048615Y013803*
X048601Y0137*
X048615Y013597*
X048655Y013501*
X048718Y013418*
X048801Y013355*
X048847Y013336*
Y013176*
X048573*
Y012424*
Y011676*
X049364*
Y011899*
X050105*
Y01165*
X050895*
Y012398*
Y012647*
X053336*
X053355Y012601*
X053418Y012518*
X053501Y012455*
X053597Y012415*
X0537Y012401*
X053803Y012415*
X053899Y012455*
X053982Y012518*
X054045Y012601*
X054085Y012697*
X054099Y0128*
X054085Y012903*
X054045Y012999*
X053982Y013082*
X053899Y013145*
X053803Y013185*
X0537Y013199*
X053597Y013185*
X053501Y013145*
X053418Y013082*
X053355Y012999*
X053336Y012953*
X050895*
Y01315*
X050105*
Y012398*
Y012205*
X049364*
Y012424*
Y013176*
X049153*
Y013336*
X049199Y013355*
X049282Y013418*
X049345Y013501*
X049385Y013597*
X049399Y0137*
X049385Y013803*
X049345Y013899*
X049282Y013982*
X049199Y014045*
X049103Y014085*
X049Y014099*
G37*
G36*
X055469Y0132D02*
X055365Y013187D01*
X055268Y013147*
X055185Y013083*
X055122Y013*
X055082Y012904*
X055068Y0128*
X055082Y012696*
X055122Y0126*
X055185Y012517*
X055268Y012453*
X055365Y012413*
X055469Y0124*
X055572Y012413*
X055669Y012453*
X055752Y012517*
X055815Y0126*
X055855Y012696*
X055869Y0128*
X055855Y012904*
X055815Y013*
X055752Y013083*
X055669Y013147*
X055572Y013187*
X055469Y0132*
G37*
G36*
X042719D02*
X042615Y013187D01*
X042518Y013147*
X042435Y013083*
X042372Y013*
X042332Y012904*
X042318Y0128*
X042332Y012696*
X042372Y0126*
X042435Y012517*
X042518Y012453*
X042615Y012413*
X042719Y0124*
X042822Y012413*
X042919Y012453*
X043002Y012517*
X043065Y0126*
X043105Y012696*
X043119Y0128*
X043105Y012904*
X043065Y013*
X043002Y013083*
X042919Y013147*
X042822Y013187*
X042719Y0132*
G37*
G36*
X028873Y013167D02*
X028102D01*
Y012396*
X028873*
Y013167*
G37*
G36*
X027488Y01317D02*
X027387Y013157D01*
X027293Y013118*
X027213Y013056*
X027151Y012976*
X027112Y012882*
X027099Y012781*
X027112Y012681*
X027151Y012587*
X027213Y012506*
X027293Y012445*
X027387Y012406*
X027488Y012393*
X027588Y012406*
X027682Y012445*
X027763Y012506*
X027824Y012587*
X027863Y012681*
X027876Y012781*
X027863Y012882*
X027824Y012976*
X027763Y013056*
X027682Y013118*
X027588Y013157*
X027488Y01317*
G37*
G36*
X0362Y013899D02*
X036097Y013885D01*
X036001Y013845*
X035918Y013782*
X035855Y013699*
X035815Y013603*
X035801Y0135*
X035815Y013397*
X035855Y013301*
X035918Y013218*
X036001Y013155*
X036047Y013136*
Y01295*
X035805*
Y012198*
Y01145*
X036595*
Y011673*
X037405*
Y01145*
X038195*
Y012198*
Y012421*
X03853*
X038543Y012405*
X038625Y012342*
X038721Y012302*
X038824Y012289*
X038928Y012302*
X039024Y012342*
X039106Y012405*
X03917Y012488*
X03921Y012584*
X039223Y012687*
X03921Y01279*
X03917Y012887*
X039106Y012969*
X039024Y013032*
X038928Y013072*
X038824Y013086*
X038721Y013072*
X038625Y013032*
X038543Y012969*
X038479Y012887*
X038439Y01279*
X038431Y012727*
X038195*
Y01295*
X037405*
Y012198*
Y011979*
X036595*
Y012198*
Y01295*
X036353*
Y013136*
X036399Y013155*
X036482Y013218*
X036545Y013301*
X036585Y013397*
X036599Y0135*
X036585Y013603*
X036545Y013699*
X036482Y013782*
X036399Y013845*
X036303Y013885*
X0362Y013899*
G37*
G36*
X0582Y012789D02*
X058099Y012776D01*
X058006Y012737*
X057925Y012675*
X057863Y012594*
X057824Y012501*
X057811Y0124*
X057824Y012299*
X057863Y012206*
X057925Y012125*
X058006Y012063*
X058099Y012024*
X0582Y012011*
X058301Y012024*
X058394Y012063*
X058475Y012125*
X058537Y012206*
X058576Y012299*
X058589Y0124*
X058576Y012501*
X058537Y012594*
X058475Y012675*
X058394Y012737*
X058301Y012776*
X0582Y012789*
G37*
G36*
X017618Y011876D02*
X017273D01*
Y01155*
X017618*
Y011876*
G37*
%LNmikrofonvorverstärker-3*%
%LPD*%
G36*
X040997Y031692D02*
X041046Y031659D01*
X041105Y031647*
X047121*
X047138Y031597*
X047118Y031582*
X047055Y031499*
X047036Y031453*
X040563*
X040208Y031808*
X039916Y0321*
X039937Y03215*
X039938*
X039942*
X040538*
X040997Y031692*
G37*
G36*
X064404Y029397D02*
X064363Y029344D01*
X064324Y029251*
X064311Y02915*
X064324Y029049*
X064363Y028956*
X064404Y028903*
X064379Y028853*
X062021*
X061996Y028903*
X062037Y028956*
X062076Y029049*
X062089Y02915*
X062076Y029251*
X062037Y029344*
X061996Y029397*
X062021Y029447*
X064379*
X064404Y029397*
G37*
G36*
X068055Y027429D02*
Y027022D01*
Y0267*
X06845*
X068845*
Y027022*
Y027247*
X069305*
Y027098*
Y02635*
X069547*
Y025932*
Y024363*
X069393Y024209*
X069347Y024228*
Y02435*
X069*
Y024003*
X069122*
X069141Y023957*
X068937Y023753*
X068364*
X068345Y023799*
X068282Y023882*
X068199Y023945*
X06811Y023982*
X068104Y024003*
X068106Y024035*
X06815Y024053*
X068233Y024117*
X068297Y0242*
X068337Y024296*
X06835Y0244*
X068337Y024504*
X068297Y0246*
X068233Y024683*
X06815Y024747*
X068054Y024787*
X06795Y0248*
X067846Y024787*
X06775Y024747*
X067667Y024683*
X067603Y0246*
X067563Y024504*
X06755Y0244*
X067563Y024296*
X067603Y0242*
X067667Y024117*
X06775Y024053*
X06784Y024016*
X067846Y023997*
X067844Y023963*
X067801Y023945*
X067718Y023882*
X067655Y023799*
X067615Y023703*
X067601Y0236*
X067615Y023497*
X067655Y023401*
X067718Y023318*
X067801Y023255*
X067847Y023236*
Y019663*
X067641Y019458*
X067595Y019477*
Y020254*
X067353*
Y0207*
X067341Y020759*
X067308Y020808*
X064608Y023508*
X064573Y023531*
X064545Y023599*
X064482Y023682*
X064399Y023745*
X064303Y023785*
X0642Y023799*
X064097Y023785*
X064001Y023745*
X063918Y023682*
X063855Y023599*
X063815Y023503*
X063801Y0234*
X063815Y023297*
X063855Y023201*
X063918Y023118*
X064001Y023055*
X064097Y023015*
X0642Y023001*
X064303Y023015*
X064399Y023055*
X064482Y023118*
X064495Y023135*
X064545Y023139*
X064874Y02281*
X064845Y022768*
X064803Y022785*
X0647Y022799*
X064597Y022785*
X064501Y022745*
X064418Y022682*
X064355Y022599*
X064336Y022553*
X062063*
X059853Y024763*
Y02665*
X060095*
Y027223*
X060141Y027242*
X061292Y026092*
X061341Y026059*
X0614Y026047*
X0658*
X065859Y026059*
X065908Y026092*
X066759Y026942*
X066805Y026923*
Y026702*
X0672*
X067595*
Y027024*
Y027776*
X067141*
X065966Y02895*
X065985Y028997*
X065999Y0291*
X065985Y029203*
X065945Y029299*
X065882Y029382*
X065862Y029397*
X065879Y029447*
X066037*
X068055Y027429*
G37*
G36*
X032742Y020541D02*
X032723Y020495D01*
X032421*
X031732Y021184*
X031745Y021201*
X031785Y021297*
X031799Y0214*
X031796Y021421*
X031841Y021443*
X032742Y020541*
G37*
G36*
X017355Y013301D02*
X017418Y013218D01*
X017501Y013155*
X017516Y013149*
Y01305*
X017273*
Y012748*
X017164*
X017106Y012737*
X017056Y012703*
X016545Y012193*
X016495Y012213*
Y012779*
X016827Y013111*
X0169Y013101*
X017003Y013115*
X017099Y013155*
X017182Y013218*
X017245Y013301*
X017273Y013367*
X017327*
X017355Y013301*
G37*
G36*
X023655Y013101D02*
X023659Y013094D01*
X023637Y01305*
X022905*
Y012953*
X022695*
Y01305*
X021905*
Y012805*
X021445Y012346*
X021395Y012366*
Y012853*
X021689Y013147*
X023636*
X023655Y013101*
G37*
G36*
X016481Y014197D02*
X015461Y013177D01*
X015416Y01311*
X015401Y013032*
Y012609*
X015341Y01255*
X015295Y012569*
Y01305*
X015053*
Y013337*
X015963Y014247*
X01646*
X016481Y014197*
G37*
G36*
X024347Y032695D02*
X023853D01*
Y033205*
X024347*
Y032695*
G37*
G36*
X014827Y032317D02*
X014553D01*
Y034405*
X014827*
Y032317*
G37*
G36*
X021105Y029798D02*
Y029579D01*
X018895*
Y029798*
Y029942*
X021105*
Y029798*
G37*
G36*
X059073Y014924D02*
Y014705D01*
X058364*
Y014924*
Y015147*
X059073*
Y014924*
G37*
G36*
X064405Y012398D02*
Y012279D01*
X063695*
Y012398*
Y012721*
X064405*
Y012398*
G37*
G36*
X032718Y018418D02*
X032801Y018355D01*
X032897Y018315*
X033Y018301*
X033103Y018315*
X033146Y018332*
X033823Y017655*
Y017172*
Y016953*
X033364*
Y017174*
Y017926*
X032573*
Y017704*
X031842*
X031782Y017782*
X031699Y017845*
X03169Y017849*
X031685Y017899*
X031692Y017903*
X032284Y018496*
X032658*
X032718Y018418*
G37*
%LNmikrofonvorverstärker-4*%
%LPC*%
G36*
X067595Y026602D02*
X06725D01*
Y026276*
X067595*
Y026602*
G37*
G36*
X06715D02*
X066805D01*
Y026276*
X06715*
Y026602*
G37*
G36*
X06895Y025692D02*
Y02535D01*
X069292*
X069285Y025403*
X069245Y025499*
X069182Y025582*
X069099Y025645*
X069003Y025685*
X06895Y025692*
G37*
G36*
X068845Y0266D02*
X06845D01*
X068055*
Y026274*
X068347*
Y0257*
X068359Y025641*
X068392Y025592*
X068534Y02545*
X068515Y025403*
X068508Y02535*
X06885*
Y025692*
X068797Y025685*
X06875Y025666*
X068653Y025763*
Y026274*
X068845*
Y0266*
G37*
G36*
X069292Y02525D02*
X06895D01*
Y024908*
X069003Y024915*
X069099Y024955*
X069182Y025018*
X069245Y025101*
X069285Y025197*
X069292Y02525*
G37*
G36*
X06885D02*
X068508D01*
X068515Y025197*
X068555Y025101*
X068618Y025018*
X068701Y024955*
X068797Y024915*
X06885Y024908*
Y02525*
G37*
G36*
X069347Y024797D02*
X069D01*
Y02445*
X069347*
Y024797*
G37*
G36*
X0689D02*
X068553D01*
Y02445*
X0689*
Y024797*
G37*
G36*
X06225Y024794D02*
Y02445D01*
X062594*
X062587Y024504*
X062547Y0246*
X062483Y024683*
X0624Y024747*
X062304Y024787*
X06225Y024794*
G37*
G36*
X06215D02*
X062096Y024787D01*
X062Y024747*
X061917Y024683*
X061853Y0246*
X061813Y024504*
X061806Y02445*
X06215*
Y024794*
G37*
G36*
X062594Y02435D02*
X06225D01*
Y024006*
X062304Y024013*
X0624Y024053*
X062483Y024117*
X062547Y0242*
X062587Y024296*
X062594Y02435*
G37*
G36*
X06215D02*
X061806D01*
X061813Y024296*
X061853Y0242*
X061917Y024117*
X062Y024053*
X062096Y024013*
X06215Y024006*
Y02435*
G37*
G36*
X0689D02*
X068553D01*
Y024003*
X0689*
Y02435*
G37*
G36*
X064597Y024797D02*
X063803D01*
Y024003*
X064597*
Y024797*
G37*
G36*
X06695Y0248D02*
X066846Y024787D01*
X06675Y024747*
X066667Y024683*
X066603Y0246*
X066563Y024504*
X06655Y0244*
X066563Y024296*
X066603Y0242*
X066667Y024117*
X06675Y024053*
X066846Y024013*
X06695Y024*
X067054Y024013*
X06715Y024053*
X067233Y024117*
X067297Y0242*
X067337Y024296*
X06735Y0244*
X067337Y024504*
X067297Y0246*
X067233Y024683*
X06715Y024747*
X067054Y024787*
X06695Y0248*
G37*
G36*
X0632D02*
X063096Y024787D01*
X063Y024747*
X062917Y024683*
X062853Y0246*
X062813Y024504*
X0628Y0244*
X062813Y024296*
X062853Y0242*
X062917Y024117*
X063Y024053*
X063096Y024013*
X0632Y024*
X063304Y024013*
X0634Y024053*
X063483Y024117*
X063547Y0242*
X063587Y024296*
X0636Y0244*
X063587Y024504*
X063547Y0246*
X063483Y024683*
X0634Y024747*
X063304Y024787*
X0632Y0248*
G37*
%LNmikrofonvorverstärker-5*%
%LPD*%
G54D10*
X029Y027479D03*
Y026731D03*
X0185Y029426D03*
Y030174D03*
X06845Y02665D03*
Y027398D03*
X0161Y012674D03*
Y011926D03*
X057969Y0153D03*
Y014552D03*
X0233Y012674D03*
Y011926D03*
X058Y017426D03*
Y018174D03*
X021Y012674D03*
Y011926D03*
X032968Y014302D03*
Y01505D03*
X067218Y014302D03*
Y01505D03*
X0633Y012026D03*
Y012774D03*
X0362Y012574D03*
Y011826D03*
X048969Y0128D03*
Y012052D03*
X055968Y016802D03*
Y01755D03*
X0672Y017548D03*
Y0168D03*
X043218Y01755D03*
Y016802D03*
X0672Y0274D03*
Y026652D03*
X0253Y017474D03*
Y016726D03*
X032968Y016802D03*
Y01755D03*
X0597Y030074D03*
Y029326D03*
X034218Y0168D03*
Y017548D03*
X041719Y01755D03*
Y016802D03*
X0468Y016826D03*
Y017574D03*
X054Y01755D03*
Y016802D03*
X0595Y018174D03*
Y017426D03*
X0672Y030174D03*
Y029426D03*
X0215D03*
Y030174D03*
X059468Y014552D03*
Y0153D03*
X0648Y012026D03*
Y012774D03*
X0672D03*
Y012026D03*
X0149Y012674D03*
Y011926D03*
X0143Y026726D03*
Y027474D03*
X0202Y024826D03*
Y025574D03*
X0139Y011926D03*
Y012674D03*
X0202Y021026D03*
Y021774D03*
X020236Y022926D03*
Y023674D03*
X0143Y025574D03*
Y024826D03*
X0203Y019026D03*
Y019774D03*
X0143Y023374D03*
Y022626D03*
X029Y025469D03*
Y024721D03*
X014331Y019737D03*
Y018989D03*
X059468Y019381D03*
Y020129D03*
X014331Y020761D03*
Y021509D03*
X017668Y011926D03*
Y012674D03*
X041496Y024107D03*
Y024855D03*
X0223Y012674D03*
Y011926D03*
X0618Y012774D03*
Y012026D03*
X043071Y024855D03*
Y024107D03*
X019969Y012674D03*
Y011926D03*
X057969Y019381D03*
Y020129D03*
X023Y014626D03*
Y015374D03*
X0378Y012574D03*
Y011826D03*
X0505Y012774D03*
Y012026D03*
X018968Y011926D03*
Y012674D03*
X05625Y0248D03*
Y024052D03*
X0468Y019026D03*
Y019774D03*
X0597Y031526D03*
Y032274D03*
X0403Y032526D03*
Y033274D03*
X0393D03*
Y032526D03*
X0697Y026726D03*
Y027474D03*
X0672Y019131D03*
Y019879D03*
X058Y027026D03*
Y027774D03*
X0597Y027026D03*
Y027774D03*
X05425Y024674D03*
Y023926D03*
X0413Y032526D03*
Y033274D03*
X022968Y01755D03*
Y016802D03*
G54D11*
X026213Y0265D03*
X027787D03*
X027687Y0281D03*
X026113D03*
G54D12*
X024474Y0336D03*
X023726D03*
X0245Y0323D03*
X023752D03*
X014232Y031922D03*
X01498D03*
X029026Y0227D03*
X029774D03*
X064974Y0347D03*
X064226D03*
X041067Y030749D03*
X041815D03*
X044374Y0306D03*
X043626D03*
X046563Y030749D03*
X045815D03*
X039563D03*
X038815D03*
X034774Y0201D03*
X034026D03*
X032526D03*
X033274D03*
X027326Y0228D03*
X028074D03*
X061371Y03465D03*
X062119D03*
X014974Y0348D03*
X014226D03*
G54D13*
X018866Y0163D03*
X021071D03*
G54D14*
X02148Y032217D03*
Y034422D03*
X01748Y032217D03*
Y034422D03*
G54D15*
X068Y0196D02*
Y0236D01*
X069*
X0691Y0237*
X0672Y019879D02*
Y0207D01*
Y0198D02*
Y019879D01*
X0642Y0234D02*
X0645D01*
X0672Y0207*
X038687Y012687D02*
X038824D01*
X038574Y012574D02*
X038687Y012687D01*
X038824Y012624D02*
Y012687D01*
X0388Y0126D02*
X038824Y012624D01*
X0378Y012574D02*
X038574D01*
X037574Y011826D02*
X0376Y0118D01*
X0362Y011826D02*
X037574D01*
X0362D02*
X036374Y012D01*
X0378Y012574D02*
X037826Y0126D01*
X0605Y0342D02*
X0609Y0346D01*
X0605Y0332D02*
Y0342D01*
X0609Y0346D02*
X06145D01*
X04322Y0168D02*
X0442D01*
X0441Y0169D02*
Y019D01*
X017668Y011926D02*
X017908D01*
X018682Y0127D02*
X018943D01*
X017908Y011926D02*
X018682Y0127D01*
X018943D02*
X018968Y012674D01*
X016174Y012D02*
X016569D01*
X017164Y012595D02*
X017668D01*
X016569Y012D02*
X017164Y012595D01*
X0161Y011926D02*
X016174Y012D01*
X0412Y0325D02*
X05D01*
X0169Y0134D02*
Y0135D01*
X0161Y012674D02*
X016174D01*
X0166Y0131*
X0169Y0134*
X017668Y013469D02*
X0177Y0135D01*
X017668Y012674D02*
Y013469D01*
X0149Y0134D02*
X0159Y0144D01*
X0207D02*
X021071Y014771D01*
X0159Y0144D02*
X0207D01*
X021071Y014771D02*
Y0163D01*
X043218Y016802D02*
X04322Y0168D01*
X025126Y033574D02*
X0255Y0332D01*
X0245Y033574D02*
X025126D01*
X0229Y0112D02*
X0282D01*
X0223Y0118D02*
X0229Y0112D01*
X0282D02*
X0305Y0135D01*
X04675Y02435D02*
Y02455D01*
Y02435D02*
X0468Y0243D01*
X05625Y02405D02*
X0575D01*
X05775Y0238*
X057653D02*
X05775D01*
X05625Y02405D02*
X0563Y024D01*
X055198Y024788D02*
X0561D01*
X056112Y0248*
X052974Y02405D02*
X053D01*
X05294Y024016D02*
X052974Y02405D01*
X052946Y0248D02*
X053D01*
X052862Y024716D02*
X052946Y0248D01*
X052862Y024716D02*
X053862D01*
X053904Y024674D02*
X05425D01*
X053862Y024716D02*
X053904Y024674D01*
X056112Y0248D02*
X056182Y024731D01*
X0538Y0148D02*
X055Y016D01*
Y0168*
X0558*
X057926Y0181D02*
X058Y018174D01*
X0565Y0184D02*
X0568Y0181D01*
X057926*
X0565Y0192D02*
X0568Y0195D01*
X0565Y0184D02*
Y0192D01*
X0568Y0195D02*
X0569D01*
X0596Y0145D02*
X0607D01*
Y014523D02*
X060709Y014514D01*
X0607Y014523D02*
Y018532D01*
X0605Y0137D02*
Y0138D01*
X021626Y0133D02*
X024D01*
X021Y012674D02*
X021626Y0133D01*
X0233Y011926D02*
X024026D01*
X0247Y0126*
X0149Y012674D02*
Y0134D01*
X0223Y0118D02*
Y011926D01*
X0468Y019774D02*
Y0243D01*
X057Y0187D02*
X058974D01*
X0595Y018174*
X050469Y012619D02*
X050549Y0127D01*
Y0128D02*
X0537D01*
X0133Y0348D02*
X014226D01*
X02158Y0349D02*
X0255D01*
X02148Y035D02*
X02158Y0349D01*
X022445Y0333D02*
X023245Y0341D01*
X0255*
X02148Y034422D02*
Y035D01*
X0261Y026613D02*
X026213Y0265D01*
X0261Y026613D02*
Y028D01*
X039563Y027937D02*
Y030749D01*
X0255Y0311D02*
X027687Y028913D01*
Y0281D02*
Y028913D01*
X0279Y022974D02*
Y0263D01*
X0278Y0264D02*
X0279Y0263D01*
Y022974D02*
X028074Y0228D01*
X029039Y027439D02*
X029115Y027515D01*
X0278Y0281D02*
X028379D01*
X029Y027479*
X0163Y025D02*
X0165Y0252D01*
X0393Y033274D02*
Y0339D01*
Y033195D02*
Y033274D01*
X0672Y019131D02*
X067531D01*
X068Y0196*
X023274Y0128D02*
X0233Y012774D01*
X0223Y0128D02*
X023274D01*
X0237Y032352D02*
X023752Y0323D01*
X0237Y033574D02*
X023726Y0336D01*
X0237Y032352D02*
Y033574D01*
X024474Y0336D02*
X0245Y033574D01*
Y0323D02*
Y033574D01*
X06845Y02665D02*
X0685Y0266D01*
Y0257D02*
Y0266D01*
Y0257D02*
X0689Y0253D01*
X050705Y019105D02*
X0511Y0195D01*
X0388Y0241D02*
X0403D01*
X034695Y0201D02*
X0348D01*
X0388Y0241*
X0413D02*
X0414Y0242D01*
X0409Y0241D02*
X0413D01*
X0403D02*
X0409D01*
X0403Y0248D02*
X0404D01*
X040424Y024776*
X041496*
X0415Y0248D02*
Y0261D01*
X0419Y0267D02*
X0431Y0255D01*
X0408Y0267D02*
X0419D01*
X0431Y0247D02*
Y0255D01*
X0413Y033195D02*
Y0337D01*
X0403Y033195D02*
Y0337D01*
X0594Y0287D02*
X065D01*
X041105Y0318D02*
X0563D01*
X0594Y0287*
X065D02*
X0656Y0281D01*
X0597Y027695D02*
X059905D01*
X0614Y0262D02*
X0658D01*
X059905Y027695D02*
X0614Y0262D01*
X0658D02*
X067Y0274D01*
X0671*
X0672D02*
Y0275D01*
X06565Y02905D02*
X0672Y0275D01*
X0403Y032605D02*
X041105Y0318D01*
X0405Y0313D02*
X0474D01*
X0403Y0315D02*
X0405Y0313D01*
X0401Y0317D02*
X0403Y0315D01*
X0397Y0321D02*
X0401Y0317D01*
X044442Y030668D02*
X044459Y030651D01*
X044405Y030705D02*
X044442Y030668D01*
X044359Y030751D02*
X044405Y030705D01*
X0444Y0307D02*
X044449Y030749D01*
X0393Y0325D02*
X0397Y0321D01*
X05Y0325D02*
X0533Y0358D01*
X0636*
X041285Y03321D02*
X0413Y033195D01*
X040285Y03321D02*
X0403Y033195D01*
X0413Y032605D02*
X041342Y032646D01*
X0255Y0187D02*
Y0196D01*
X0314Y0213D02*
Y0214D01*
Y0213D02*
X0326Y0201D01*
X0697Y025932D02*
Y026805D01*
Y0243D02*
Y025932D01*
X069608Y0274D02*
X069617Y027391D01*
X068452Y0274D02*
X069608D01*
X0682Y0275D02*
X0685D01*
X06845Y027398D02*
X068452Y0274D01*
X0661Y0296D02*
X0682Y0275D01*
X061Y0296D02*
X0661D01*
X0606Y0292D02*
X061Y0296D01*
X0567Y0262D02*
X0568D01*
X0615Y0215D02*
X0649D01*
X0568Y0262D02*
X0615Y0215D01*
X0649D02*
X0656Y0208D01*
Y0195D02*
Y0208D01*
X0578Y0271D02*
X0596D01*
X062Y0224D02*
X0647D01*
X0597Y0247D02*
X062Y0224D01*
X0597Y0247D02*
Y027105D01*
X0632Y0169D02*
Y0176D01*
X06455Y01555D02*
X064718D01*
X0632Y0169D02*
X06455Y01555D01*
X058Y0278D02*
Y0287D01*
X0568Y0281D02*
X0578Y0271D01*
X0567Y0281D02*
X0568D01*
X0605Y0322D02*
Y0332D01*
X0598Y0316D02*
X0599D01*
X0605Y0322*
X0663Y0349D02*
X0665D01*
X0643Y0348D02*
X0644Y0349D01*
Y0358*
X0291Y021626D02*
X0292Y021526D01*
X0291Y021626D02*
Y0227D01*
X0281Y0215D02*
Y0226D01*
X027282Y022723D02*
X027382Y022823D01*
X0274Y0216D02*
X027405Y021605D01*
Y0228*
X035Y0212D02*
Y0243D01*
X034105Y0201D02*
Y020305D01*
X035Y0212*
X0308Y0227D02*
X0332Y0203D01*
X029774Y0227D02*
X0308D01*
X034922Y016068D02*
Y018178D01*
X0332Y0199D02*
Y02D01*
Y0199D02*
X034922Y018178D01*
X029026Y0227D02*
X0291D01*
X029Y0228D02*
Y0248D01*
X0662Y0348D02*
X0663Y0349D01*
X064974Y0347D02*
X065074Y0348D01*
X0662*
X062Y0339D02*
X0665D01*
X0615Y0344D02*
Y0346D01*
Y0344D02*
X062Y0339D01*
X058695Y0332D02*
X0597Y032195D01*
X0572Y0332D02*
X058695D01*
X021Y012674D02*
D01*
X014542Y019658D02*
X0148Y0194D01*
X0145Y0178D02*
X0148Y0181D01*
Y0194*
X014331Y019658D02*
X014542D01*
X021421Y029426D02*
X0215Y029505D01*
X020626Y029426D02*
X021421D01*
X0185D02*
X020626D01*
X017431Y031932D02*
X0175Y031863D01*
Y0302D02*
Y031863D01*
X018274Y029426D02*
X0185D01*
X017409Y031954D02*
X017431Y031932D01*
X0175Y0302D02*
X018274Y029426D01*
X014232Y031922D02*
X0144Y03209D01*
Y034791D02*
X014409Y0348D01*
X0144Y03209D02*
Y034791D01*
X0138Y023D02*
Y0245D01*
Y023D02*
X014067Y022733D01*
X0138Y0245D02*
X014213Y024913D01*
X014067Y022733D02*
X014272D01*
X014213Y024913D02*
X014292D01*
X0137Y0195D02*
X014132Y019068D01*
X0137Y021D02*
X01413Y02143D01*
X0137Y0195D02*
Y021D01*
X01413Y02143D02*
X014331D01*
X014132Y019068D02*
X014331D01*
X0174Y0277D02*
X0175Y0278D01*
X0202Y024905D02*
X020208Y024913D01*
X023369*
X0216Y0236D02*
X0224Y0244D01*
X0202Y0236D02*
X0216D01*
X0161Y0284D02*
X0169D01*
X0175Y0278*
X0145Y0268D02*
X0161Y0284D01*
X0143Y026805D02*
X014505D01*
X0165Y027695D02*
Y0277D01*
X0143Y025495D02*
X0165Y027695D01*
X0143Y025495D02*
D01*
Y023295D02*
X014448Y023148D01*
X0163Y025D01*
X014396Y020774D02*
X015674D01*
X0164Y0215*
X05294Y024016D02*
X052951Y024005D01*
X047Y019105D02*
X050705D01*
X061719Y01955D02*
D01*
X0607Y018532D02*
X061719Y01955D01*
X0602Y016032D02*
Y0188D01*
X0596Y0194D02*
D01*
X0602Y0188*
Y020782D02*
Y0218D01*
X059468Y02005D02*
X0602Y020782D01*
X0665Y0192D02*
X0673D01*
X0592Y0124D02*
D01*
X0605Y0137*
X055968Y016802D02*
D01*
X0537Y0128D02*
D01*
X0185Y0302D02*
Y0311D01*
X043218Y016802D02*
X043402D01*
X0362Y0128D02*
Y0135D01*
X0691Y0237D02*
X0697Y0243D01*
X0625Y0165D02*
X064Y015D01*
X0656*
X066298Y014302*
X067218*
X0558Y0168D02*
X0559Y0167D01*
X064926Y012D02*
X0671D01*
X0648Y012126D02*
X064926Y012D01*
X0607Y0145D02*
X0618Y0134D01*
Y012695D02*
Y0134D01*
X0625Y0145D02*
X0633Y0137D01*
Y012874D02*
Y0137D01*
X061805Y0121D02*
X0631D01*
X0618Y012105D02*
X061805Y0121D01*
X063374Y012874D02*
X0648D01*
X063319Y012126D02*
X064674D01*
X0633D02*
X063319D01*
X064674D02*
X0647Y0121D01*
X0648Y012774D02*
X064852Y012826D01*
X0672Y012591D02*
Y0142D01*
X063319Y012126D02*
X063323Y012131D01*
X059452Y014552D02*
X0595Y0146D01*
X057Y0195D02*
X057041Y019459D01*
X057969*
X06145Y03465D02*
X0615Y0346D01*
X06415Y03465D02*
X0642Y0346D01*
X062041Y03465D02*
X06415D01*
X04Y0275D02*
X0408Y0267D01*
X02913Y0275D02*
X04D01*
X039563Y027937D02*
X0399Y0276D01*
X0396Y0307D02*
X041018D01*
X041067Y030749*
X044449D02*
X045815D01*
X054262Y024716D02*
Y025516D01*
X0581Y02D02*
X0586D01*
X059141Y019459*
X059468*
Y0153D02*
X0602Y016032D01*
X057969Y014552D02*
X059452D01*
X057969Y0153D02*
X059468D01*
X052951Y024005D02*
X05425D01*
X049Y012831D02*
Y0137D01*
X048969Y0128D02*
X049Y012831D01*
X050448Y011952D02*
X0505Y0119D01*
X048969Y012052D02*
X050448D01*
X0139Y012595D02*
Y0182D01*
X014331Y018631D02*
Y019068D01*
X0139Y0182D02*
X014331Y018631D01*
X029115Y027515D02*
X02913Y0275D01*
X033854Y015D02*
X034922Y016068D01*
X033Y015D02*
X033854D01*
X032605Y0201D02*
X032645Y020141D01*
X033Y0168D02*
X034218D01*
X0322Y0135D02*
X0329Y0142D01*
X0305Y0135D02*
X0322D01*
X043Y0241D02*
X0431Y024D01*
Y0232D02*
Y024D01*
X027382Y022823D02*
X027405Y0228D01*
X020926Y0126D02*
X021Y012674D01*
X0202Y0126D02*
X020926D01*
X0216Y012284D02*
X022111Y012795D01*
X022295*
X021Y011926D02*
X021242D01*
X0216Y012284*
X022295Y012795D02*
X0223Y0128D01*
X02253Y01677D02*
X023D01*
X0222Y0171D02*
X02253Y01677D01*
X0222Y0171D02*
Y018D01*
X022952Y017567D02*
X022968Y01755D01*
X022952Y019852D02*
X0234Y0203D01*
X022952Y017567D02*
Y019852D01*
X0204Y0197D02*
X021D01*
X0217Y0204D02*
X0224D01*
X021Y0197D02*
X0217Y0204D01*
X021067Y016304D02*
Y017205D01*
X0203Y017972D02*
Y019105D01*
Y017972D02*
X021067Y017205D01*
Y016304D02*
X021071Y0163D01*
X019476Y019424D02*
Y021448D01*
Y019424D02*
X0198Y0191D01*
X019476Y021448D02*
X019723Y021695D01*
X0198Y0191D02*
X019805Y019105D01*
X0203*
X019723Y021695D02*
X0202D01*
X0255Y0311D02*
Y0323D01*
X0251Y0183D02*
X0255Y0187D01*
X0242Y0183D02*
X0251D01*
X0238Y0179D02*
X0242Y0183D01*
X0238Y0151D02*
Y0179D01*
X0234Y0147D02*
X0238Y0151D01*
X023395Y014705D02*
X0234Y0147D01*
X023Y014705D02*
X023395D01*
X014331Y020839D02*
X014396Y020774D01*
X0291Y0228D02*
X0292Y0229D01*
X029Y025391D02*
Y0267D01*
X01498Y031922D02*
X017378D01*
X0203Y0211D02*
X0219D01*
X0224Y0216*
X0215Y029505D02*
X023095D01*
X0244Y0282*
X023Y015295D02*
Y01677D01*
X013934Y012496D02*
X014003D01*
X019969Y012595D02*
X020115Y012448D01*
X018968Y012005D02*
X019969D01*
X0176Y0178D02*
X018604Y016796D01*
Y016562D02*
X018866Y0163D01*
X018604Y016562D02*
Y016796D01*
X0164Y0178D02*
X0176D01*
X0144D02*
X0145D01*
X0143Y022705D02*
X014331Y022674D01*
Y02143D02*
Y022674D01*
X014272Y022733D02*
X0143Y022705D01*
X014292Y024913D02*
X0143Y024905D01*
X0202Y021695D02*
Y022968D01*
X020792Y0333D02*
X022445D01*
X0185Y030174D02*
X018579Y030095D01*
X0215*
X02148Y030115D02*
Y032217D01*
X01967Y034422D02*
X020792Y0333D01*
X01748Y034422D02*
X01967D01*
X01498Y031922D02*
Y03478D01*
X015Y0348*
X0185Y030174D02*
X018502Y030176D01*
X02148Y030115D02*
X0215Y030095D01*
X023669Y032217D02*
X023752Y0323D01*
X02148Y032217D02*
X023669D01*
X0245Y0323D02*
X0255D01*
G54D16*
X04845Y01805D02*
X056444D01*
X057894Y0166*
X0479Y0175D02*
X04845Y01805D01*
X047Y017574D02*
X047826D01*
X0468D02*
X047D01*
X047826D02*
X0479Y0175D01*
X048969Y01755D02*
X049044D01*
X046624Y01775D02*
X0468Y017574D01*
X015605Y013032D02*
X016672Y0141D01*
X0241D02*
X0245Y0145D01*
X016672Y0141D02*
X0241D01*
X0245Y0145D02*
Y0175D01*
X015605Y012525D02*
Y013032D01*
X015181Y012102D02*
X015605Y012525D01*
X053Y01755D02*
X054082D01*
X0143Y027395D02*
Y027439D01*
X0441Y02015D02*
X04415D01*
X034023Y017724D02*
Y017743D01*
X0441Y02015D02*
Y0275D01*
X04655Y01775D02*
X046624D01*
X032919Y0175D02*
X032968Y01755D01*
X0143Y027439D02*
X014495Y027635D01*
X0372Y01865D02*
X037615Y019065D01*
X027469Y01755D02*
X029782D01*
X044Y0275D02*
X0441D01*
X0435Y028D02*
X044Y0275D01*
X043015Y019065D02*
X0441Y02015D01*
X042571Y016029D02*
Y017143D01*
X0315Y0175D02*
X032919D01*
X0595Y0166D02*
Y0174D01*
X015006Y012102D02*
X015181D01*
X0435Y028D02*
Y030682D01*
X0466Y0281D02*
Y0306D01*
X046Y0275D02*
X0466Y0281D01*
X0418Y0283D02*
Y0308D01*
X041Y0275D02*
X0418Y0283D01*
X029782Y01755D02*
X03028Y018048D01*
X042Y0175D02*
X042214D01*
X0435Y0151D02*
X048732D01*
X0159Y0288D02*
X0171D01*
X049205Y0151D02*
X049518D01*
X020071Y025683D02*
X020217D01*
X020311Y025589D02*
X025385D01*
X042571Y016029D02*
X042805Y015795D01*
X042214Y0175D02*
X042571Y017143D01*
X0378Y0307D02*
X0388D01*
X037615Y019065D02*
X043015D01*
X020217Y025683D02*
X020311Y025589D01*
X020005Y02575D02*
X020071Y025683D01*
X0656Y0301D02*
X0672D01*
X020005Y02575D02*
Y025895D01*
X067148Y0176D02*
X0672Y017548D01*
X0405Y0175D02*
X041669D01*
X041719Y01755*
X043095Y015505D02*
X0435Y0151D01*
X014495Y027635D02*
X014735D01*
X049518Y0151D02*
X051968Y01755D01*
X057894Y0166D02*
X059444D01*
X033067Y0187D02*
X034023Y017743D01*
X0372Y0186D02*
Y01865D01*
X013905Y012D02*
X0149D01*
X0597Y030074D02*
X059726Y0301D01*
X014905Y012D02*
X015006Y012102D01*
X034199Y017548D02*
X034218D01*
X031548Y018048D02*
X0322Y0187D01*
X034023Y017724D02*
X034199Y017548D01*
X059726Y0301D02*
X0606D01*
X014735Y027635D02*
X0159Y0288D01*
X0245Y0175D02*
X025274D01*
X0322Y0187D02*
X033067D01*
X03028Y018048D02*
X031548D01*
X04415Y02015D02*
X04655Y01775D01*
X0171Y0288D02*
X020005Y025895D01*
X0657Y0176D02*
X067148D01*
G54D17*
X048732Y0151D02*
X049205D01*
G54D18*
X042805Y015795D02*
X043095Y015505D01*
G54D19*
X027968Y0323D03*
X0682Y035D03*
X0554Y0292D03*
X055Y0332D03*
X0551Y0205D03*
X042218Y0198D03*
X055469Y0148D03*
X042719D03*
G54D20*
X027968Y0333D03*
Y0343D03*
X0682Y034D03*
Y033D03*
X0554Y0282D03*
Y0272D03*
X06795Y0244D03*
X06695D03*
X055Y0342D03*
Y0352D03*
X0502Y0288D03*
X0492D03*
X0632Y0244D03*
X0622D03*
X0502Y0248D03*
X0512D03*
X0551Y0215D03*
Y0225D03*
X042218Y0208D03*
Y0218D03*
X055469Y0138D03*
Y0128D03*
X042719Y0138D03*
Y0128D03*
X0378Y0248D03*
X0388D03*
X015468Y0163D03*
X016468D03*
G54D21*
X041Y0294D03*
X046D03*
G54D22*
X04Y0294D03*
X039D03*
X045D03*
X044D03*
G54D23*
X0647Y02715D03*
Y02815D03*
Y02915D03*
Y03015D03*
Y03115D03*
Y03215D03*
Y03315D03*
X0617Y02715D03*
Y02815D03*
Y02915D03*
Y03015D03*
Y03115D03*
Y03215D03*
X064718Y01455D03*
Y01555D03*
Y01655D03*
Y01755D03*
Y01855D03*
Y01955D03*
Y02055D03*
X061719Y01455D03*
Y01555D03*
Y01655D03*
Y01755D03*
Y01855D03*
Y01955D03*
X051968Y01455D03*
Y01555D03*
Y01655D03*
Y01755D03*
Y01855D03*
Y01955D03*
Y02055D03*
X048969Y01455D03*
Y01555D03*
Y01655D03*
Y01755D03*
Y01855D03*
Y01955D03*
X039218Y01455D03*
Y01555D03*
Y01655D03*
Y01755D03*
Y01855D03*
Y01955D03*
Y02055D03*
X036219Y01455D03*
Y01555D03*
Y01655D03*
Y01755D03*
Y01855D03*
Y01955D03*
X030468Y01455D03*
Y01555D03*
Y01655D03*
Y01755D03*
Y01855D03*
Y01955D03*
Y02055D03*
X027469Y01455D03*
Y01555D03*
Y01655D03*
Y01755D03*
Y01855D03*
Y01955D03*
X0582Y0124D03*
X0337Y0223D03*
X027488Y012781D03*
X059219Y0218D03*
X04675Y02555D03*
X0453Y0215D03*
X034016Y025367D03*
G54D24*
X0617Y03315D03*
X061719Y02055D03*
X048969D03*
X036219D03*
X027469D03*
X0453Y0225D03*
G54D25*
X06895Y0244D03*
X0512Y0288D03*
X0642Y0244D03*
X0492Y0248D03*
X0368D03*
X014468Y0163D03*
G54D26*
X0592Y0124D03*
X0327Y0223D03*
X028488Y012781D03*
X058218Y0218D03*
X04575Y02555D03*
X033016Y025367D03*
G54D27*
X0453Y0358D03*
X0443D03*
X0433D03*
X0403D03*
X0413D03*
X0423D03*
X0453Y0348D03*
X0443D03*
X0433D03*
X0393D03*
X0403D03*
X0413D03*
X0423D03*
G54D28*
X0393Y0358D03*
G54D29*
X022386Y0193D03*
X016468D03*
X01648Y023005D03*
X0165Y0263D03*
X022386Y0265D03*
Y023005D03*
G54D30*
X023386Y0193D03*
X024386D03*
X017469D03*
X018469D03*
X01748Y023005D03*
X01848D03*
X0175Y0263D03*
X0185D03*
X023386Y0265D03*
X024386D03*
X023386Y023005D03*
X024386D03*
G54D31*
X068Y0236D03*
X0642Y0234D03*
X038824Y012687D03*
X0479Y0175D03*
X0169Y0135D03*
X0177D03*
X0442Y0168D03*
X04675Y02455D03*
X05775Y0238D03*
X055198Y024788D03*
X053Y02405D03*
Y0248D03*
X055Y0168D03*
X053Y01755D03*
X0605Y0138D03*
X0248Y0127D03*
X057Y0187D03*
X024Y0133D03*
X0133Y0348D03*
X0255Y0349D03*
Y0341D03*
Y0332D03*
X0165Y0252D03*
X0413Y034D03*
X0393D03*
X0403D03*
X0545Y0292D03*
X0511Y0195D03*
X0441Y0275D03*
X0403Y0241D03*
Y0248D03*
X0415Y0261D03*
X0656Y0281D03*
X0474Y0313D03*
X0255Y0196D03*
X0315Y0175D03*
X0314Y0214D03*
X0689Y0253D03*
X0606Y0292D03*
X0567Y0262D03*
X0656Y0195D03*
X0647Y0224D03*
X0632Y0176D03*
X058Y0287D03*
X0567Y0281D03*
X0657Y0176D03*
X0665Y0349D03*
X0636Y0358D03*
X0644D03*
X0656Y0291D03*
X0595Y0166D03*
X0281Y0215D03*
X0174Y0277D03*
X0224Y0244D03*
X0165Y0277D03*
X0537Y0128D03*
X0185Y0311D03*
X0378Y0307D03*
X0362Y0135D03*
X0274Y0215D03*
X0656Y0301D03*
X0665Y0192D03*
X0625Y0165D03*
Y0145D03*
X057Y0195D03*
X0405Y0175D03*
X0665Y0339D03*
X0605Y0332D03*
X0572D03*
X0606Y0301D03*
X054262Y025516D03*
X0602Y0218D03*
X0538Y0148D03*
X049Y0137D03*
X0372Y0186D03*
X046Y0275D03*
X041D03*
X04D03*
X033Y0187D03*
X0305Y0135D03*
X035Y0243D03*
X0431Y0232D03*
X0441Y019D03*
X0292Y021526D03*
X0245Y0175D03*
X0222Y018D03*
X0234Y0204D03*
X0224D03*
X023369Y024913D03*
X025381Y025589D03*
X0164Y0215D03*
X0224Y0216D03*
X0244Y0282D03*
X0164Y0178D03*
X0144D03*
X0255Y0323D03*
>>>>>>> 7bd1cce91baa8b1f11babff2120aec98a590d833
M02*